M48
; DRILL file {KiCad (5.1.10)-1} date 08/05/21 14:46:48
; FORMAT={-:-/ absolute / inch / decimal}
; #@! TF.CreationDate,2021-08-05T14:46:48-04:00
; #@! TF.GenerationSoftware,Kicad,Pcbnew,(5.1.10)-1
FMAT,2
INCH
T1C0.0157
T2C0.0394
T3C0.0480
T4C0.0548
T5C0.0256
T6C0.0453
T7C0.1260
%
G90
G05
T1
X5.6744Y-5.3005
X5.6744Y-5.332
X5.6744Y-5.3635
X5.6744Y-5.4265
X5.6744Y-5.458
X5.6744Y-5.4895
X5.702Y-5.2749
X5.702Y-5.3478
X5.702Y-5.3793
X5.702Y-5.4107
X5.702Y-5.4422
X5.702Y-5.5151
X5.8082Y-5.4048
X5.8464Y-5.3226
X5.864Y-5.4592
X6.0559Y-4.4651
X6.0559Y-4.712
X6.176Y-4.6612
X6.1767Y-4.7334
X6.1793Y-4.6114
X6.1807Y-4.5505
X6.2141Y-4.58
X6.9882Y-6.544
X7.3543Y-4.8422
X7.3544Y-6.1006
X7.3755Y-6.134
X7.4322Y-4.3825
X7.4491Y-6.1869
X7.4508Y-6.2321
X7.6277Y-6.0308
X7.6288Y-6.0987
X7.7062Y-6.0468
X7.9463Y-5.9927
X7.9928Y-5.916
X8.0343Y-6.0468
X8.132Y-6.5372
T2
X5.7162Y-4.4507
X5.7162Y-4.5507
X5.7162Y-4.6507
X5.7162Y-4.7507
X6.21Y-5.232
X6.21Y-5.332
X6.21Y-5.432
X6.21Y-5.532
X6.6335Y-3.8406
X6.6335Y-3.9406
X6.6335Y-4.0406
X6.6335Y-4.1406
X6.6335Y-4.2406
X6.6335Y-4.3406
X6.6349Y-4.5872
X6.6349Y-4.6872
X6.6349Y-4.7872
X6.6349Y-4.8872
X6.6349Y-4.9872
X7.0579Y-5.902
X7.0579Y-6.002
X7.0579Y-6.102
X7.0579Y-6.202
X7.2354Y-4.2257
X7.2354Y-4.3257
X7.2354Y-4.4257
X7.2354Y-4.5257
X7.2354Y-4.6257
X7.2354Y-4.7257
X7.9268Y-3.9263
X7.9268Y-4.0263
X7.9268Y-4.1263
X7.9268Y-4.2263
X7.9268Y-4.3263
X7.9268Y-4.4263
X7.9268Y-4.5263
X7.9268Y-4.6263
X7.9268Y-4.7263
X7.9268Y-4.8263
X7.9268Y-4.9263
X7.9268Y-5.0263
X7.9268Y-5.1263
X7.9268Y-5.2263
X8.1122Y-5.2255
X8.1792Y-5.8566
X8.1792Y-5.9566
X8.1792Y-6.0566
X8.1792Y-6.1566
X8.1792Y-6.2566
X8.1792Y-6.3566
X8.2122Y-5.2255
X8.3122Y-5.2255
X8.4122Y-5.2255
X8.5122Y-5.2255
X8.584Y-5.7347
X8.584Y-5.8347
X8.584Y-5.9347
X8.584Y-6.0347
X8.584Y-6.1347
X8.584Y-6.2347
X8.584Y-6.3347
X8.584Y-6.4347
X8.6122Y-5.2255
X8.7122Y-5.2255
X8.8122Y-5.2255
X8.9122Y-5.2255
X9.009Y-5.9137
X9.009Y-6.0137
X9.009Y-6.1137
X9.009Y-6.2137
X9.009Y-6.3137
X9.0122Y-5.2255
X9.1815Y-3.9218
X9.1815Y-4.0218
X9.1815Y-4.1218
X9.1815Y-4.2218
X9.1815Y-4.3218
X9.1815Y-4.4218
X9.1815Y-4.5218
X9.1815Y-4.6218
X9.1815Y-4.7218
X9.1815Y-4.8218
X9.1815Y-4.9218
X9.1815Y-5.0218
X9.1815Y-5.1218
X9.1815Y-5.2218
T3
X5.7335Y-5.2178
X5.7335Y-5.5722
T4
X5.513Y-5.2178
X5.513Y-5.5722
T5
X5.6744Y-5.2483
T6
X5.6744Y-5.5417
T7
X5.5906Y-3.7008
X5.5906Y-6.5748
X9.3701Y-3.7008
X9.3701Y-6.5748
T0
M30
