%TF.GenerationSoftware,KiCad,Pcbnew,(5.1.10)-1*%
%TF.CreationDate,2021-08-05T14:48:44-04:00*%
%TF.ProjectId,ftdi-testing-board,66746469-2d74-4657-9374-696e672d626f,rev?*%
%TF.SameCoordinates,Original*%
%TF.FileFunction,Paste,Top*%
%TF.FilePolarity,Positive*%
%FSLAX46Y46*%
G04 Gerber Fmt 4.6, Leading zero omitted, Abs format (unit mm)*
G04 Created by KiCad (PCBNEW (5.1.10)-1) date 2021-08-05 14:48:44*
%MOMM*%
%LPD*%
G01*
G04 APERTURE LIST*
%TA.AperFunction,Profile*%
%ADD10C,0.050000*%
%TD*%
%ADD11R,0.650000X1.560000*%
%ADD12R,0.700000X0.350000*%
%ADD13R,0.900000X0.800000*%
%ADD14R,0.800000X0.300000*%
%ADD15R,5.000000X5.000000*%
%ADD16R,2.000000X0.900000*%
%ADD17R,0.900000X2.000000*%
%ADD18R,7.875000X2.000000*%
G04 APERTURE END LIST*
D10*
X242000000Y-94000000D02*
G75*
G03*
X238000000Y-90000000I-4000000J0D01*
G01*
X238000000Y-171000000D02*
G75*
G03*
X242000000Y-167000000I0J4000000D01*
G01*
X138000000Y-167000000D02*
G75*
G03*
X142000000Y-171000000I4000000J0D01*
G01*
X142000000Y-90000000D02*
G75*
G03*
X138000000Y-94000000I0J-4000000D01*
G01*
X138000000Y-167000000D02*
X138000000Y-94000000D01*
X238000000Y-90000000D02*
X142000000Y-90000000D01*
X242000000Y-167000000D02*
X242000000Y-94000000D01*
X142000000Y-171000000D02*
X238000000Y-171000000D01*
%TO.C,C1*%
G36*
G01*
X193098440Y-111795220D02*
X192148440Y-111795220D01*
G75*
G02*
X191898440Y-111545220I0J250000D01*
G01*
X191898440Y-111045220D01*
G75*
G02*
X192148440Y-110795220I250000J0D01*
G01*
X193098440Y-110795220D01*
G75*
G02*
X193348440Y-111045220I0J-250000D01*
G01*
X193348440Y-111545220D01*
G75*
G02*
X193098440Y-111795220I-250000J0D01*
G01*
G37*
G36*
G01*
X193098440Y-109895220D02*
X192148440Y-109895220D01*
G75*
G02*
X191898440Y-109645220I0J250000D01*
G01*
X191898440Y-109145220D01*
G75*
G02*
X192148440Y-108895220I250000J0D01*
G01*
X193098440Y-108895220D01*
G75*
G02*
X193348440Y-109145220I0J-250000D01*
G01*
X193348440Y-109645220D01*
G75*
G02*
X193098440Y-109895220I-250000J0D01*
G01*
G37*
%TD*%
%TO.C,C2*%
G36*
G01*
X190469500Y-124366440D02*
X191419500Y-124366440D01*
G75*
G02*
X191669500Y-124616440I0J-250000D01*
G01*
X191669500Y-125116440D01*
G75*
G02*
X191419500Y-125366440I-250000J0D01*
G01*
X190469500Y-125366440D01*
G75*
G02*
X190219500Y-125116440I0J250000D01*
G01*
X190219500Y-124616440D01*
G75*
G02*
X190469500Y-124366440I250000J0D01*
G01*
G37*
G36*
G01*
X190469500Y-122466440D02*
X191419500Y-122466440D01*
G75*
G02*
X191669500Y-122716440I0J-250000D01*
G01*
X191669500Y-123216440D01*
G75*
G02*
X191419500Y-123466440I-250000J0D01*
G01*
X190469500Y-123466440D01*
G75*
G02*
X190219500Y-123216440I0J250000D01*
G01*
X190219500Y-122716440D01*
G75*
G02*
X190469500Y-122466440I250000J0D01*
G01*
G37*
%TD*%
%TO.C,C3*%
G36*
G01*
X184091560Y-156342540D02*
X185041560Y-156342540D01*
G75*
G02*
X185291560Y-156592540I0J-250000D01*
G01*
X185291560Y-157092540D01*
G75*
G02*
X185041560Y-157342540I-250000J0D01*
G01*
X184091560Y-157342540D01*
G75*
G02*
X183841560Y-157092540I0J250000D01*
G01*
X183841560Y-156592540D01*
G75*
G02*
X184091560Y-156342540I250000J0D01*
G01*
G37*
G36*
G01*
X184091560Y-154442540D02*
X185041560Y-154442540D01*
G75*
G02*
X185291560Y-154692540I0J-250000D01*
G01*
X185291560Y-155192540D01*
G75*
G02*
X185041560Y-155442540I-250000J0D01*
G01*
X184091560Y-155442540D01*
G75*
G02*
X183841560Y-155192540I0J250000D01*
G01*
X183841560Y-154692540D01*
G75*
G02*
X184091560Y-154442540I250000J0D01*
G01*
G37*
%TD*%
%TO.C,C4*%
G36*
G01*
X181846200Y-154518700D02*
X182796200Y-154518700D01*
G75*
G02*
X183046200Y-154768700I0J-250000D01*
G01*
X183046200Y-155268700D01*
G75*
G02*
X182796200Y-155518700I-250000J0D01*
G01*
X181846200Y-155518700D01*
G75*
G02*
X181596200Y-155268700I0J250000D01*
G01*
X181596200Y-154768700D01*
G75*
G02*
X181846200Y-154518700I250000J0D01*
G01*
G37*
G36*
G01*
X181846200Y-156418700D02*
X182796200Y-156418700D01*
G75*
G02*
X183046200Y-156668700I0J-250000D01*
G01*
X183046200Y-157168700D01*
G75*
G02*
X182796200Y-157418700I-250000J0D01*
G01*
X181846200Y-157418700D01*
G75*
G02*
X181596200Y-157168700I0J250000D01*
G01*
X181596200Y-156668700D01*
G75*
G02*
X181846200Y-156418700I250000J0D01*
G01*
G37*
%TD*%
%TO.C,C5*%
G36*
G01*
X152829280Y-113469080D02*
X151879280Y-113469080D01*
G75*
G02*
X151629280Y-113219080I0J250000D01*
G01*
X151629280Y-112719080D01*
G75*
G02*
X151879280Y-112469080I250000J0D01*
G01*
X152829280Y-112469080D01*
G75*
G02*
X153079280Y-112719080I0J-250000D01*
G01*
X153079280Y-113219080D01*
G75*
G02*
X152829280Y-113469080I-250000J0D01*
G01*
G37*
G36*
G01*
X152829280Y-111569080D02*
X151879280Y-111569080D01*
G75*
G02*
X151629280Y-111319080I0J250000D01*
G01*
X151629280Y-110819080D01*
G75*
G02*
X151879280Y-110569080I250000J0D01*
G01*
X152829280Y-110569080D01*
G75*
G02*
X153079280Y-110819080I0J-250000D01*
G01*
X153079280Y-111319080D01*
G75*
G02*
X152829280Y-111569080I-250000J0D01*
G01*
G37*
%TD*%
%TO.C,C6*%
G36*
G01*
X196700160Y-146092880D02*
X195750160Y-146092880D01*
G75*
G02*
X195500160Y-145842880I0J250000D01*
G01*
X195500160Y-145342880D01*
G75*
G02*
X195750160Y-145092880I250000J0D01*
G01*
X196700160Y-145092880D01*
G75*
G02*
X196950160Y-145342880I0J-250000D01*
G01*
X196950160Y-145842880D01*
G75*
G02*
X196700160Y-146092880I-250000J0D01*
G01*
G37*
G36*
G01*
X196700160Y-144192880D02*
X195750160Y-144192880D01*
G75*
G02*
X195500160Y-143942880I0J250000D01*
G01*
X195500160Y-143442880D01*
G75*
G02*
X195750160Y-143192880I250000J0D01*
G01*
X196700160Y-143192880D01*
G75*
G02*
X196950160Y-143442880I0J-250000D01*
G01*
X196950160Y-143942880D01*
G75*
G02*
X196700160Y-144192880I-250000J0D01*
G01*
G37*
%TD*%
%TO.C,C7*%
G36*
G01*
X148945580Y-119227980D02*
X149895580Y-119227980D01*
G75*
G02*
X150145580Y-119477980I0J-250000D01*
G01*
X150145580Y-119977980D01*
G75*
G02*
X149895580Y-120227980I-250000J0D01*
G01*
X148945580Y-120227980D01*
G75*
G02*
X148695580Y-119977980I0J250000D01*
G01*
X148695580Y-119477980D01*
G75*
G02*
X148945580Y-119227980I250000J0D01*
G01*
G37*
G36*
G01*
X148945580Y-121127980D02*
X149895580Y-121127980D01*
G75*
G02*
X150145580Y-121377980I0J-250000D01*
G01*
X150145580Y-121877980D01*
G75*
G02*
X149895580Y-122127980I-250000J0D01*
G01*
X148945580Y-122127980D01*
G75*
G02*
X148695580Y-121877980I0J250000D01*
G01*
X148695580Y-121377980D01*
G75*
G02*
X148945580Y-121127980I250000J0D01*
G01*
G37*
%TD*%
%TO.C,C8*%
G36*
G01*
X180738800Y-166654140D02*
X179788800Y-166654140D01*
G75*
G02*
X179538800Y-166404140I0J250000D01*
G01*
X179538800Y-165904140D01*
G75*
G02*
X179788800Y-165654140I250000J0D01*
G01*
X180738800Y-165654140D01*
G75*
G02*
X180988800Y-165904140I0J-250000D01*
G01*
X180988800Y-166404140D01*
G75*
G02*
X180738800Y-166654140I-250000J0D01*
G01*
G37*
G36*
G01*
X180738800Y-164754140D02*
X179788800Y-164754140D01*
G75*
G02*
X179538800Y-164504140I0J250000D01*
G01*
X179538800Y-164004140D01*
G75*
G02*
X179788800Y-163754140I250000J0D01*
G01*
X180738800Y-163754140D01*
G75*
G02*
X180988800Y-164004140I0J-250000D01*
G01*
X180988800Y-164504140D01*
G75*
G02*
X180738800Y-164754140I-250000J0D01*
G01*
G37*
%TD*%
%TO.C,C9*%
G36*
G01*
X151155380Y-119230480D02*
X152105380Y-119230480D01*
G75*
G02*
X152355380Y-119480480I0J-250000D01*
G01*
X152355380Y-119980480D01*
G75*
G02*
X152105380Y-120230480I-250000J0D01*
G01*
X151155380Y-120230480D01*
G75*
G02*
X150905380Y-119980480I0J250000D01*
G01*
X150905380Y-119480480D01*
G75*
G02*
X151155380Y-119230480I250000J0D01*
G01*
G37*
G36*
G01*
X151155380Y-121130480D02*
X152105380Y-121130480D01*
G75*
G02*
X152355380Y-121380480I0J-250000D01*
G01*
X152355380Y-121880480D01*
G75*
G02*
X152105380Y-122130480I-250000J0D01*
G01*
X151155380Y-122130480D01*
G75*
G02*
X150905380Y-121880480I0J250000D01*
G01*
X150905380Y-121380480D01*
G75*
G02*
X151155380Y-121130480I250000J0D01*
G01*
G37*
%TD*%
%TO.C,C10*%
G36*
G01*
X204896740Y-164733860D02*
X203946740Y-164733860D01*
G75*
G02*
X203696740Y-164483860I0J250000D01*
G01*
X203696740Y-163983860D01*
G75*
G02*
X203946740Y-163733860I250000J0D01*
G01*
X204896740Y-163733860D01*
G75*
G02*
X205146740Y-163983860I0J-250000D01*
G01*
X205146740Y-164483860D01*
G75*
G02*
X204896740Y-164733860I-250000J0D01*
G01*
G37*
G36*
G01*
X204896740Y-166633860D02*
X203946740Y-166633860D01*
G75*
G02*
X203696740Y-166383860I0J250000D01*
G01*
X203696740Y-165883860D01*
G75*
G02*
X203946740Y-165633860I250000J0D01*
G01*
X204896740Y-165633860D01*
G75*
G02*
X205146740Y-165883860I0J-250000D01*
G01*
X205146740Y-166383860D01*
G75*
G02*
X204896740Y-166633860I-250000J0D01*
G01*
G37*
%TD*%
%TO.C,C11*%
G36*
G01*
X200263780Y-149496400D02*
X199313780Y-149496400D01*
G75*
G02*
X199063780Y-149246400I0J250000D01*
G01*
X199063780Y-148746400D01*
G75*
G02*
X199313780Y-148496400I250000J0D01*
G01*
X200263780Y-148496400D01*
G75*
G02*
X200513780Y-148746400I0J-250000D01*
G01*
X200513780Y-149246400D01*
G75*
G02*
X200263780Y-149496400I-250000J0D01*
G01*
G37*
G36*
G01*
X200263780Y-151396400D02*
X199313780Y-151396400D01*
G75*
G02*
X199063780Y-151146400I0J250000D01*
G01*
X199063780Y-150646400D01*
G75*
G02*
X199313780Y-150396400I250000J0D01*
G01*
X200263780Y-150396400D01*
G75*
G02*
X200513780Y-150646400I0J-250000D01*
G01*
X200513780Y-151146400D01*
G75*
G02*
X200263780Y-151396400I-250000J0D01*
G01*
G37*
%TD*%
D11*
%TO.C,D1*%
X150835400Y-137283200D03*
X149885400Y-137283200D03*
X148935400Y-137283200D03*
X148935400Y-139983200D03*
X150835400Y-139983200D03*
X149885400Y-139983200D03*
%TD*%
%TO.C,D2*%
G36*
G01*
X198170980Y-158291850D02*
X198170980Y-157379350D01*
G75*
G02*
X198414730Y-157135600I243750J0D01*
G01*
X198902230Y-157135600D01*
G75*
G02*
X199145980Y-157379350I0J-243750D01*
G01*
X199145980Y-158291850D01*
G75*
G02*
X198902230Y-158535600I-243750J0D01*
G01*
X198414730Y-158535600D01*
G75*
G02*
X198170980Y-158291850I0J243750D01*
G01*
G37*
G36*
G01*
X200045980Y-158291850D02*
X200045980Y-157379350D01*
G75*
G02*
X200289730Y-157135600I243750J0D01*
G01*
X200777230Y-157135600D01*
G75*
G02*
X201020980Y-157379350I0J-243750D01*
G01*
X201020980Y-158291850D01*
G75*
G02*
X200777230Y-158535600I-243750J0D01*
G01*
X200289730Y-158535600D01*
G75*
G02*
X200045980Y-158291850I0J243750D01*
G01*
G37*
%TD*%
%TO.C,D3*%
G36*
G01*
X187571320Y-160438150D02*
X187571320Y-159525650D01*
G75*
G02*
X187815070Y-159281900I243750J0D01*
G01*
X188302570Y-159281900D01*
G75*
G02*
X188546320Y-159525650I0J-243750D01*
G01*
X188546320Y-160438150D01*
G75*
G02*
X188302570Y-160681900I-243750J0D01*
G01*
X187815070Y-160681900D01*
G75*
G02*
X187571320Y-160438150I0J243750D01*
G01*
G37*
G36*
G01*
X189446320Y-160438150D02*
X189446320Y-159525650D01*
G75*
G02*
X189690070Y-159281900I243750J0D01*
G01*
X190177570Y-159281900D01*
G75*
G02*
X190421320Y-159525650I0J-243750D01*
G01*
X190421320Y-160438150D01*
G75*
G02*
X190177570Y-160681900I-243750J0D01*
G01*
X189690070Y-160681900D01*
G75*
G02*
X189446320Y-160438150I0J243750D01*
G01*
G37*
%TD*%
%TO.C,D4*%
G36*
G01*
X153094080Y-105978010D02*
X153094080Y-105065510D01*
G75*
G02*
X153337830Y-104821760I243750J0D01*
G01*
X153825330Y-104821760D01*
G75*
G02*
X154069080Y-105065510I0J-243750D01*
G01*
X154069080Y-105978010D01*
G75*
G02*
X153825330Y-106221760I-243750J0D01*
G01*
X153337830Y-106221760D01*
G75*
G02*
X153094080Y-105978010I0J243750D01*
G01*
G37*
G36*
G01*
X151219080Y-105978010D02*
X151219080Y-105065510D01*
G75*
G02*
X151462830Y-104821760I243750J0D01*
G01*
X151950330Y-104821760D01*
G75*
G02*
X152194080Y-105065510I0J-243750D01*
G01*
X152194080Y-105978010D01*
G75*
G02*
X151950330Y-106221760I-243750J0D01*
G01*
X151462830Y-106221760D01*
G75*
G02*
X151219080Y-105978010I0J243750D01*
G01*
G37*
%TD*%
%TO.C,FB1*%
G36*
G01*
X153447800Y-135770199D02*
X153447800Y-136670201D01*
G75*
G02*
X153197801Y-136920200I-249999J0D01*
G01*
X152672799Y-136920200D01*
G75*
G02*
X152422800Y-136670201I0J249999D01*
G01*
X152422800Y-135770199D01*
G75*
G02*
X152672799Y-135520200I249999J0D01*
G01*
X153197801Y-135520200D01*
G75*
G02*
X153447800Y-135770199I0J-249999D01*
G01*
G37*
G36*
G01*
X155272800Y-135770199D02*
X155272800Y-136670201D01*
G75*
G02*
X155022801Y-136920200I-249999J0D01*
G01*
X154497799Y-136920200D01*
G75*
G02*
X154247800Y-136670201I0J249999D01*
G01*
X154247800Y-135770199D01*
G75*
G02*
X154497799Y-135520200I249999J0D01*
G01*
X155022801Y-135520200D01*
G75*
G02*
X155272800Y-135770199I0J-249999D01*
G01*
G37*
%TD*%
%TO.C,FB2*%
G36*
G01*
X155222000Y-138284799D02*
X155222000Y-139184801D01*
G75*
G02*
X154972001Y-139434800I-249999J0D01*
G01*
X154446999Y-139434800D01*
G75*
G02*
X154197000Y-139184801I0J249999D01*
G01*
X154197000Y-138284799D01*
G75*
G02*
X154446999Y-138034800I249999J0D01*
G01*
X154972001Y-138034800D01*
G75*
G02*
X155222000Y-138284799I0J-249999D01*
G01*
G37*
G36*
G01*
X153397000Y-138284799D02*
X153397000Y-139184801D01*
G75*
G02*
X153147001Y-139434800I-249999J0D01*
G01*
X152621999Y-139434800D01*
G75*
G02*
X152372000Y-139184801I0J249999D01*
G01*
X152372000Y-138284799D01*
G75*
G02*
X152621999Y-138034800I249999J0D01*
G01*
X153147001Y-138034800D01*
G75*
G02*
X153397000Y-138284799I0J-249999D01*
G01*
G37*
%TD*%
D12*
%TO.C,J3*%
X145980200Y-139783000D03*
X145980200Y-139283000D03*
X145980200Y-138783000D03*
X145980200Y-138283000D03*
X145980200Y-137783000D03*
X145980200Y-137283000D03*
X145980200Y-136783000D03*
X145980200Y-136283000D03*
X145980200Y-135783000D03*
X145980200Y-135283000D03*
X145980200Y-134783000D03*
X145980200Y-134283000D03*
%TD*%
D13*
%TO.C,Q1*%
X192726820Y-115788440D03*
X190726820Y-116738440D03*
X190726820Y-114838440D03*
%TD*%
%TO.C,Q2*%
X190726820Y-118635740D03*
X190726820Y-120535740D03*
X192726820Y-119585740D03*
%TD*%
%TO.C,R1*%
G36*
G01*
X187389820Y-114487539D02*
X187389820Y-115387541D01*
G75*
G02*
X187139821Y-115637540I-249999J0D01*
G01*
X186614819Y-115637540D01*
G75*
G02*
X186364820Y-115387541I0J249999D01*
G01*
X186364820Y-114487539D01*
G75*
G02*
X186614819Y-114237540I249999J0D01*
G01*
X187139821Y-114237540D01*
G75*
G02*
X187389820Y-114487539I0J-249999D01*
G01*
G37*
G36*
G01*
X189214820Y-114487539D02*
X189214820Y-115387541D01*
G75*
G02*
X188964821Y-115637540I-249999J0D01*
G01*
X188439819Y-115637540D01*
G75*
G02*
X188189820Y-115387541I0J249999D01*
G01*
X188189820Y-114487539D01*
G75*
G02*
X188439819Y-114237540I249999J0D01*
G01*
X188964821Y-114237540D01*
G75*
G02*
X189214820Y-114487539I0J-249999D01*
G01*
G37*
%TD*%
%TO.C,R2*%
G36*
G01*
X189230060Y-118218799D02*
X189230060Y-119118801D01*
G75*
G02*
X188980061Y-119368800I-249999J0D01*
G01*
X188455059Y-119368800D01*
G75*
G02*
X188205060Y-119118801I0J249999D01*
G01*
X188205060Y-118218799D01*
G75*
G02*
X188455059Y-117968800I249999J0D01*
G01*
X188980061Y-117968800D01*
G75*
G02*
X189230060Y-118218799I0J-249999D01*
G01*
G37*
G36*
G01*
X187405060Y-118218799D02*
X187405060Y-119118801D01*
G75*
G02*
X187155061Y-119368800I-249999J0D01*
G01*
X186630059Y-119368800D01*
G75*
G02*
X186380060Y-119118801I0J249999D01*
G01*
X186380060Y-118218799D01*
G75*
G02*
X186630059Y-117968800I249999J0D01*
G01*
X187155061Y-117968800D01*
G75*
G02*
X187405060Y-118218799I0J-249999D01*
G01*
G37*
%TD*%
%TO.C,R3*%
G36*
G01*
X152651400Y-143045601D02*
X152651400Y-142145599D01*
G75*
G02*
X152901399Y-141895600I249999J0D01*
G01*
X153426401Y-141895600D01*
G75*
G02*
X153676400Y-142145599I0J-249999D01*
G01*
X153676400Y-143045601D01*
G75*
G02*
X153426401Y-143295600I-249999J0D01*
G01*
X152901399Y-143295600D01*
G75*
G02*
X152651400Y-143045601I0J249999D01*
G01*
G37*
G36*
G01*
X154476400Y-143045601D02*
X154476400Y-142145599D01*
G75*
G02*
X154726399Y-141895600I249999J0D01*
G01*
X155251401Y-141895600D01*
G75*
G02*
X155501400Y-142145599I0J-249999D01*
G01*
X155501400Y-143045601D01*
G75*
G02*
X155251401Y-143295600I-249999J0D01*
G01*
X154726399Y-143295600D01*
G75*
G02*
X154476400Y-143045601I0J249999D01*
G01*
G37*
%TD*%
%TO.C,R4*%
G36*
G01*
X149573401Y-131807000D02*
X148673399Y-131807000D01*
G75*
G02*
X148423400Y-131557001I0J249999D01*
G01*
X148423400Y-131031999D01*
G75*
G02*
X148673399Y-130782000I249999J0D01*
G01*
X149573401Y-130782000D01*
G75*
G02*
X149823400Y-131031999I0J-249999D01*
G01*
X149823400Y-131557001D01*
G75*
G02*
X149573401Y-131807000I-249999J0D01*
G01*
G37*
G36*
G01*
X149573401Y-133632000D02*
X148673399Y-133632000D01*
G75*
G02*
X148423400Y-133382001I0J249999D01*
G01*
X148423400Y-132856999D01*
G75*
G02*
X148673399Y-132607000I249999J0D01*
G01*
X149573401Y-132607000D01*
G75*
G02*
X149823400Y-132856999I0J-249999D01*
G01*
X149823400Y-133382001D01*
G75*
G02*
X149573401Y-133632000I-249999J0D01*
G01*
G37*
%TD*%
%TO.C,R5*%
G36*
G01*
X190042379Y-110785860D02*
X190942381Y-110785860D01*
G75*
G02*
X191192380Y-111035859I0J-249999D01*
G01*
X191192380Y-111560861D01*
G75*
G02*
X190942381Y-111810860I-249999J0D01*
G01*
X190042379Y-111810860D01*
G75*
G02*
X189792380Y-111560861I0J249999D01*
G01*
X189792380Y-111035859D01*
G75*
G02*
X190042379Y-110785860I249999J0D01*
G01*
G37*
G36*
G01*
X190042379Y-108960860D02*
X190942381Y-108960860D01*
G75*
G02*
X191192380Y-109210859I0J-249999D01*
G01*
X191192380Y-109735861D01*
G75*
G02*
X190942381Y-109985860I-249999J0D01*
G01*
X190042379Y-109985860D01*
G75*
G02*
X189792380Y-109735861I0J249999D01*
G01*
X189792380Y-109210859D01*
G75*
G02*
X190042379Y-108960860I249999J0D01*
G01*
G37*
%TD*%
%TO.C,R6*%
G36*
G01*
X188864661Y-125323020D02*
X187964659Y-125323020D01*
G75*
G02*
X187714660Y-125073021I0J249999D01*
G01*
X187714660Y-124548019D01*
G75*
G02*
X187964659Y-124298020I249999J0D01*
G01*
X188864661Y-124298020D01*
G75*
G02*
X189114660Y-124548019I0J-249999D01*
G01*
X189114660Y-125073021D01*
G75*
G02*
X188864661Y-125323020I-249999J0D01*
G01*
G37*
G36*
G01*
X188864661Y-123498020D02*
X187964659Y-123498020D01*
G75*
G02*
X187714660Y-123248021I0J249999D01*
G01*
X187714660Y-122723019D01*
G75*
G02*
X187964659Y-122473020I249999J0D01*
G01*
X188864661Y-122473020D01*
G75*
G02*
X189114660Y-122723019I0J-249999D01*
G01*
X189114660Y-123248021D01*
G75*
G02*
X188864661Y-123498020I-249999J0D01*
G01*
G37*
%TD*%
%TO.C,R7*%
G36*
G01*
X183475040Y-152137959D02*
X183475040Y-153037961D01*
G75*
G02*
X183225041Y-153287960I-249999J0D01*
G01*
X182700039Y-153287960D01*
G75*
G02*
X182450040Y-153037961I0J249999D01*
G01*
X182450040Y-152137959D01*
G75*
G02*
X182700039Y-151887960I249999J0D01*
G01*
X183225041Y-151887960D01*
G75*
G02*
X183475040Y-152137959I0J-249999D01*
G01*
G37*
G36*
G01*
X185300040Y-152137959D02*
X185300040Y-153037961D01*
G75*
G02*
X185050041Y-153287960I-249999J0D01*
G01*
X184525039Y-153287960D01*
G75*
G02*
X184275040Y-153037961I0J249999D01*
G01*
X184275040Y-152137959D01*
G75*
G02*
X184525039Y-151887960I249999J0D01*
G01*
X185050041Y-151887960D01*
G75*
G02*
X185300040Y-152137959I0J-249999D01*
G01*
G37*
%TD*%
%TO.C,R8*%
G36*
G01*
X187009460Y-150093259D02*
X187009460Y-150993261D01*
G75*
G02*
X186759461Y-151243260I-249999J0D01*
G01*
X186234459Y-151243260D01*
G75*
G02*
X185984460Y-150993261I0J249999D01*
G01*
X185984460Y-150093259D01*
G75*
G02*
X186234459Y-149843260I249999J0D01*
G01*
X186759461Y-149843260D01*
G75*
G02*
X187009460Y-150093259I0J-249999D01*
G01*
G37*
G36*
G01*
X185184460Y-150093259D02*
X185184460Y-150993261D01*
G75*
G02*
X184934461Y-151243260I-249999J0D01*
G01*
X184409459Y-151243260D01*
G75*
G02*
X184159460Y-150993261I0J249999D01*
G01*
X184159460Y-150093259D01*
G75*
G02*
X184409459Y-149843260I249999J0D01*
G01*
X184934461Y-149843260D01*
G75*
G02*
X185184460Y-150093259I0J-249999D01*
G01*
G37*
%TD*%
%TO.C,R9*%
G36*
G01*
X153004580Y-114959979D02*
X153004580Y-115859981D01*
G75*
G02*
X152754581Y-116109980I-249999J0D01*
G01*
X152229579Y-116109980D01*
G75*
G02*
X151979580Y-115859981I0J249999D01*
G01*
X151979580Y-114959979D01*
G75*
G02*
X152229579Y-114709980I249999J0D01*
G01*
X152754581Y-114709980D01*
G75*
G02*
X153004580Y-114959979I0J-249999D01*
G01*
G37*
G36*
G01*
X151179580Y-114959979D02*
X151179580Y-115859981D01*
G75*
G02*
X150929581Y-116109980I-249999J0D01*
G01*
X150404579Y-116109980D01*
G75*
G02*
X150154580Y-115859981I0J249999D01*
G01*
X150154580Y-114959979D01*
G75*
G02*
X150404579Y-114709980I249999J0D01*
G01*
X150929581Y-114709980D01*
G75*
G02*
X151179580Y-114959979I0J-249999D01*
G01*
G37*
%TD*%
%TO.C,R10*%
G36*
G01*
X151130680Y-117360279D02*
X151130680Y-118260281D01*
G75*
G02*
X150880681Y-118510280I-249999J0D01*
G01*
X150355679Y-118510280D01*
G75*
G02*
X150105680Y-118260281I0J249999D01*
G01*
X150105680Y-117360279D01*
G75*
G02*
X150355679Y-117110280I249999J0D01*
G01*
X150880681Y-117110280D01*
G75*
G02*
X151130680Y-117360279I0J-249999D01*
G01*
G37*
G36*
G01*
X152955680Y-117360279D02*
X152955680Y-118260281D01*
G75*
G02*
X152705681Y-118510280I-249999J0D01*
G01*
X152180679Y-118510280D01*
G75*
G02*
X151930680Y-118260281I0J249999D01*
G01*
X151930680Y-117360279D01*
G75*
G02*
X152180679Y-117110280I249999J0D01*
G01*
X152705681Y-117110280D01*
G75*
G02*
X152955680Y-117360279I0J-249999D01*
G01*
G37*
%TD*%
%TO.C,R11*%
G36*
G01*
X200842200Y-155372221D02*
X200842200Y-154472219D01*
G75*
G02*
X201092199Y-154222220I249999J0D01*
G01*
X201617201Y-154222220D01*
G75*
G02*
X201867200Y-154472219I0J-249999D01*
G01*
X201867200Y-155372221D01*
G75*
G02*
X201617201Y-155622220I-249999J0D01*
G01*
X201092199Y-155622220D01*
G75*
G02*
X200842200Y-155372221I0J249999D01*
G01*
G37*
G36*
G01*
X199017200Y-155372221D02*
X199017200Y-154472219D01*
G75*
G02*
X199267199Y-154222220I249999J0D01*
G01*
X199792201Y-154222220D01*
G75*
G02*
X200042200Y-154472219I0J-249999D01*
G01*
X200042200Y-155372221D01*
G75*
G02*
X199792201Y-155622220I-249999J0D01*
G01*
X199267199Y-155622220D01*
G75*
G02*
X199017200Y-155372221I0J249999D01*
G01*
G37*
%TD*%
%TO.C,R12*%
G36*
G01*
X194050980Y-159498879D02*
X194050980Y-160398881D01*
G75*
G02*
X193800981Y-160648880I-249999J0D01*
G01*
X193275979Y-160648880D01*
G75*
G02*
X193025980Y-160398881I0J249999D01*
G01*
X193025980Y-159498879D01*
G75*
G02*
X193275979Y-159248880I249999J0D01*
G01*
X193800981Y-159248880D01*
G75*
G02*
X194050980Y-159498879I0J-249999D01*
G01*
G37*
G36*
G01*
X192225980Y-159498879D02*
X192225980Y-160398881D01*
G75*
G02*
X191975981Y-160648880I-249999J0D01*
G01*
X191450979Y-160648880D01*
G75*
G02*
X191200980Y-160398881I0J249999D01*
G01*
X191200980Y-159498879D01*
G75*
G02*
X191450979Y-159248880I249999J0D01*
G01*
X191975981Y-159248880D01*
G75*
G02*
X192225980Y-159498879I0J-249999D01*
G01*
G37*
%TD*%
%TO.C,R13*%
G36*
G01*
X157614680Y-105046359D02*
X157614680Y-105946361D01*
G75*
G02*
X157364681Y-106196360I-249999J0D01*
G01*
X156839679Y-106196360D01*
G75*
G02*
X156589680Y-105946361I0J249999D01*
G01*
X156589680Y-105046359D01*
G75*
G02*
X156839679Y-104796360I249999J0D01*
G01*
X157364681Y-104796360D01*
G75*
G02*
X157614680Y-105046359I0J-249999D01*
G01*
G37*
G36*
G01*
X155789680Y-105046359D02*
X155789680Y-105946361D01*
G75*
G02*
X155539681Y-106196360I-249999J0D01*
G01*
X155014679Y-106196360D01*
G75*
G02*
X154764680Y-105946361I0J249999D01*
G01*
X154764680Y-105046359D01*
G75*
G02*
X155014679Y-104796360I249999J0D01*
G01*
X155539681Y-104796360D01*
G75*
G02*
X155789680Y-105046359I0J-249999D01*
G01*
G37*
%TD*%
D14*
%TO.C,U1*%
X225527200Y-151540780D03*
X225527200Y-152040780D03*
X225527200Y-152540780D03*
X225527200Y-153040780D03*
X222427200Y-153040780D03*
X222427200Y-152540780D03*
X222427200Y-152040780D03*
X222427200Y-151540780D03*
%TD*%
%TO.C,U2*%
X222478000Y-154791980D03*
X222478000Y-155291980D03*
X222478000Y-155791980D03*
X222478000Y-156291980D03*
X225578000Y-156291980D03*
X225578000Y-155791980D03*
X225578000Y-155291980D03*
X225578000Y-154791980D03*
%TD*%
D15*
%TO.C,U3*%
X216774000Y-113366460D03*
D16*
X226274000Y-105866460D03*
X226274000Y-107136460D03*
X226274000Y-108406460D03*
X226274000Y-109676460D03*
X226274000Y-110946460D03*
X226274000Y-112216460D03*
X226274000Y-113486460D03*
X226274000Y-114756460D03*
X226274000Y-116026460D03*
X226274000Y-117296460D03*
X226274000Y-118566460D03*
X226274000Y-119836460D03*
X226274000Y-121106460D03*
X226274000Y-122376460D03*
D17*
X223489000Y-123376460D03*
X222219000Y-123376460D03*
X220949000Y-123376460D03*
X219679000Y-123376460D03*
X218409000Y-123376460D03*
X217139000Y-123376460D03*
X215869000Y-123376460D03*
X214599000Y-123376460D03*
X213329000Y-123376460D03*
X212059000Y-123376460D03*
D16*
X209274000Y-122376460D03*
X209274000Y-121106460D03*
X209274000Y-119836460D03*
X209274000Y-118566460D03*
X209274000Y-117296460D03*
X209274000Y-116026460D03*
X209274000Y-114756460D03*
X209274000Y-113486460D03*
X209274000Y-112216460D03*
X209274000Y-110946460D03*
X209274000Y-109676460D03*
X209274000Y-108406460D03*
X209274000Y-107136460D03*
X209274000Y-105866460D03*
%TD*%
%TO.C,C12*%
G36*
G01*
X184251620Y-144137000D02*
X183301620Y-144137000D01*
G75*
G02*
X183051620Y-143887000I0J250000D01*
G01*
X183051620Y-143387000D01*
G75*
G02*
X183301620Y-143137000I250000J0D01*
G01*
X184251620Y-143137000D01*
G75*
G02*
X184501620Y-143387000I0J-250000D01*
G01*
X184501620Y-143887000D01*
G75*
G02*
X184251620Y-144137000I-250000J0D01*
G01*
G37*
G36*
G01*
X184251620Y-146037000D02*
X183301620Y-146037000D01*
G75*
G02*
X183051620Y-145787000I0J250000D01*
G01*
X183051620Y-145287000D01*
G75*
G02*
X183301620Y-145037000I250000J0D01*
G01*
X184251620Y-145037000D01*
G75*
G02*
X184501620Y-145287000I0J-250000D01*
G01*
X184501620Y-145787000D01*
G75*
G02*
X184251620Y-146037000I-250000J0D01*
G01*
G37*
%TD*%
%TO.C,U5*%
G36*
G01*
X192189780Y-145389460D02*
X192189780Y-145689460D01*
G75*
G02*
X192039780Y-145839460I-150000J0D01*
G01*
X190389780Y-145839460D01*
G75*
G02*
X190239780Y-145689460I0J150000D01*
G01*
X190239780Y-145389460D01*
G75*
G02*
X190389780Y-145239460I150000J0D01*
G01*
X192039780Y-145239460D01*
G75*
G02*
X192189780Y-145389460I0J-150000D01*
G01*
G37*
G36*
G01*
X192189780Y-144119460D02*
X192189780Y-144419460D01*
G75*
G02*
X192039780Y-144569460I-150000J0D01*
G01*
X190389780Y-144569460D01*
G75*
G02*
X190239780Y-144419460I0J150000D01*
G01*
X190239780Y-144119460D01*
G75*
G02*
X190389780Y-143969460I150000J0D01*
G01*
X192039780Y-143969460D01*
G75*
G02*
X192189780Y-144119460I0J-150000D01*
G01*
G37*
G36*
G01*
X192189780Y-142849460D02*
X192189780Y-143149460D01*
G75*
G02*
X192039780Y-143299460I-150000J0D01*
G01*
X190389780Y-143299460D01*
G75*
G02*
X190239780Y-143149460I0J150000D01*
G01*
X190239780Y-142849460D01*
G75*
G02*
X190389780Y-142699460I150000J0D01*
G01*
X192039780Y-142699460D01*
G75*
G02*
X192189780Y-142849460I0J-150000D01*
G01*
G37*
G36*
G01*
X192189780Y-141579460D02*
X192189780Y-141879460D01*
G75*
G02*
X192039780Y-142029460I-150000J0D01*
G01*
X190389780Y-142029460D01*
G75*
G02*
X190239780Y-141879460I0J150000D01*
G01*
X190239780Y-141579460D01*
G75*
G02*
X190389780Y-141429460I150000J0D01*
G01*
X192039780Y-141429460D01*
G75*
G02*
X192189780Y-141579460I0J-150000D01*
G01*
G37*
G36*
G01*
X187239780Y-141579460D02*
X187239780Y-141879460D01*
G75*
G02*
X187089780Y-142029460I-150000J0D01*
G01*
X185439780Y-142029460D01*
G75*
G02*
X185289780Y-141879460I0J150000D01*
G01*
X185289780Y-141579460D01*
G75*
G02*
X185439780Y-141429460I150000J0D01*
G01*
X187089780Y-141429460D01*
G75*
G02*
X187239780Y-141579460I0J-150000D01*
G01*
G37*
G36*
G01*
X187239780Y-142849460D02*
X187239780Y-143149460D01*
G75*
G02*
X187089780Y-143299460I-150000J0D01*
G01*
X185439780Y-143299460D01*
G75*
G02*
X185289780Y-143149460I0J150000D01*
G01*
X185289780Y-142849460D01*
G75*
G02*
X185439780Y-142699460I150000J0D01*
G01*
X187089780Y-142699460D01*
G75*
G02*
X187239780Y-142849460I0J-150000D01*
G01*
G37*
G36*
G01*
X187239780Y-144119460D02*
X187239780Y-144419460D01*
G75*
G02*
X187089780Y-144569460I-150000J0D01*
G01*
X185439780Y-144569460D01*
G75*
G02*
X185289780Y-144419460I0J150000D01*
G01*
X185289780Y-144119460D01*
G75*
G02*
X185439780Y-143969460I150000J0D01*
G01*
X187089780Y-143969460D01*
G75*
G02*
X187239780Y-144119460I0J-150000D01*
G01*
G37*
G36*
G01*
X187239780Y-145389460D02*
X187239780Y-145689460D01*
G75*
G02*
X187089780Y-145839460I-150000J0D01*
G01*
X185439780Y-145839460D01*
G75*
G02*
X185289780Y-145689460I0J150000D01*
G01*
X185289780Y-145389460D01*
G75*
G02*
X185439780Y-145239460I150000J0D01*
G01*
X187089780Y-145239460D01*
G75*
G02*
X187239780Y-145389460I0J-150000D01*
G01*
G37*
%TD*%
%TO.C,C13*%
G36*
G01*
X150517880Y-111584280D02*
X149567880Y-111584280D01*
G75*
G02*
X149317880Y-111334280I0J250000D01*
G01*
X149317880Y-110834280D01*
G75*
G02*
X149567880Y-110584280I250000J0D01*
G01*
X150517880Y-110584280D01*
G75*
G02*
X150767880Y-110834280I0J-250000D01*
G01*
X150767880Y-111334280D01*
G75*
G02*
X150517880Y-111584280I-250000J0D01*
G01*
G37*
G36*
G01*
X150517880Y-113484280D02*
X149567880Y-113484280D01*
G75*
G02*
X149317880Y-113234280I0J250000D01*
G01*
X149317880Y-112734280D01*
G75*
G02*
X149567880Y-112484280I250000J0D01*
G01*
X150517880Y-112484280D01*
G75*
G02*
X150767880Y-112734280I0J-250000D01*
G01*
X150767880Y-113234280D01*
G75*
G02*
X150517880Y-113484280I-250000J0D01*
G01*
G37*
%TD*%
%TO.C,C14*%
G36*
G01*
X194243980Y-144236060D02*
X193293980Y-144236060D01*
G75*
G02*
X193043980Y-143986060I0J250000D01*
G01*
X193043980Y-143486060D01*
G75*
G02*
X193293980Y-143236060I250000J0D01*
G01*
X194243980Y-143236060D01*
G75*
G02*
X194493980Y-143486060I0J-250000D01*
G01*
X194493980Y-143986060D01*
G75*
G02*
X194243980Y-144236060I-250000J0D01*
G01*
G37*
G36*
G01*
X194243980Y-146136060D02*
X193293980Y-146136060D01*
G75*
G02*
X193043980Y-145886060I0J250000D01*
G01*
X193043980Y-145386060D01*
G75*
G02*
X193293980Y-145136060I250000J0D01*
G01*
X194243980Y-145136060D01*
G75*
G02*
X194493980Y-145386060I0J-250000D01*
G01*
X194493980Y-145886060D01*
G75*
G02*
X194243980Y-146136060I-250000J0D01*
G01*
G37*
%TD*%
%TO.C,U8*%
G36*
G01*
X161961380Y-120677980D02*
X161961380Y-120877980D01*
G75*
G02*
X161861380Y-120977980I-100000J0D01*
G01*
X160586380Y-120977980D01*
G75*
G02*
X160486380Y-120877980I0J100000D01*
G01*
X160486380Y-120677980D01*
G75*
G02*
X160586380Y-120577980I100000J0D01*
G01*
X161861380Y-120577980D01*
G75*
G02*
X161961380Y-120677980I0J-100000D01*
G01*
G37*
G36*
G01*
X161961380Y-120027980D02*
X161961380Y-120227980D01*
G75*
G02*
X161861380Y-120327980I-100000J0D01*
G01*
X160586380Y-120327980D01*
G75*
G02*
X160486380Y-120227980I0J100000D01*
G01*
X160486380Y-120027980D01*
G75*
G02*
X160586380Y-119927980I100000J0D01*
G01*
X161861380Y-119927980D01*
G75*
G02*
X161961380Y-120027980I0J-100000D01*
G01*
G37*
G36*
G01*
X161961380Y-119377980D02*
X161961380Y-119577980D01*
G75*
G02*
X161861380Y-119677980I-100000J0D01*
G01*
X160586380Y-119677980D01*
G75*
G02*
X160486380Y-119577980I0J100000D01*
G01*
X160486380Y-119377980D01*
G75*
G02*
X160586380Y-119277980I100000J0D01*
G01*
X161861380Y-119277980D01*
G75*
G02*
X161961380Y-119377980I0J-100000D01*
G01*
G37*
G36*
G01*
X161961380Y-118727980D02*
X161961380Y-118927980D01*
G75*
G02*
X161861380Y-119027980I-100000J0D01*
G01*
X160586380Y-119027980D01*
G75*
G02*
X160486380Y-118927980I0J100000D01*
G01*
X160486380Y-118727980D01*
G75*
G02*
X160586380Y-118627980I100000J0D01*
G01*
X161861380Y-118627980D01*
G75*
G02*
X161961380Y-118727980I0J-100000D01*
G01*
G37*
G36*
G01*
X161961380Y-118077980D02*
X161961380Y-118277980D01*
G75*
G02*
X161861380Y-118377980I-100000J0D01*
G01*
X160586380Y-118377980D01*
G75*
G02*
X160486380Y-118277980I0J100000D01*
G01*
X160486380Y-118077980D01*
G75*
G02*
X160586380Y-117977980I100000J0D01*
G01*
X161861380Y-117977980D01*
G75*
G02*
X161961380Y-118077980I0J-100000D01*
G01*
G37*
G36*
G01*
X161961380Y-117427980D02*
X161961380Y-117627980D01*
G75*
G02*
X161861380Y-117727980I-100000J0D01*
G01*
X160586380Y-117727980D01*
G75*
G02*
X160486380Y-117627980I0J100000D01*
G01*
X160486380Y-117427980D01*
G75*
G02*
X160586380Y-117327980I100000J0D01*
G01*
X161861380Y-117327980D01*
G75*
G02*
X161961380Y-117427980I0J-100000D01*
G01*
G37*
G36*
G01*
X161961380Y-116777980D02*
X161961380Y-116977980D01*
G75*
G02*
X161861380Y-117077980I-100000J0D01*
G01*
X160586380Y-117077980D01*
G75*
G02*
X160486380Y-116977980I0J100000D01*
G01*
X160486380Y-116777980D01*
G75*
G02*
X160586380Y-116677980I100000J0D01*
G01*
X161861380Y-116677980D01*
G75*
G02*
X161961380Y-116777980I0J-100000D01*
G01*
G37*
G36*
G01*
X161961380Y-116127980D02*
X161961380Y-116327980D01*
G75*
G02*
X161861380Y-116427980I-100000J0D01*
G01*
X160586380Y-116427980D01*
G75*
G02*
X160486380Y-116327980I0J100000D01*
G01*
X160486380Y-116127980D01*
G75*
G02*
X160586380Y-116027980I100000J0D01*
G01*
X161861380Y-116027980D01*
G75*
G02*
X161961380Y-116127980I0J-100000D01*
G01*
G37*
G36*
G01*
X161961380Y-115477980D02*
X161961380Y-115677980D01*
G75*
G02*
X161861380Y-115777980I-100000J0D01*
G01*
X160586380Y-115777980D01*
G75*
G02*
X160486380Y-115677980I0J100000D01*
G01*
X160486380Y-115477980D01*
G75*
G02*
X160586380Y-115377980I100000J0D01*
G01*
X161861380Y-115377980D01*
G75*
G02*
X161961380Y-115477980I0J-100000D01*
G01*
G37*
G36*
G01*
X161961380Y-114827980D02*
X161961380Y-115027980D01*
G75*
G02*
X161861380Y-115127980I-100000J0D01*
G01*
X160586380Y-115127980D01*
G75*
G02*
X160486380Y-115027980I0J100000D01*
G01*
X160486380Y-114827980D01*
G75*
G02*
X160586380Y-114727980I100000J0D01*
G01*
X161861380Y-114727980D01*
G75*
G02*
X161961380Y-114827980I0J-100000D01*
G01*
G37*
G36*
G01*
X161961380Y-114177980D02*
X161961380Y-114377980D01*
G75*
G02*
X161861380Y-114477980I-100000J0D01*
G01*
X160586380Y-114477980D01*
G75*
G02*
X160486380Y-114377980I0J100000D01*
G01*
X160486380Y-114177980D01*
G75*
G02*
X160586380Y-114077980I100000J0D01*
G01*
X161861380Y-114077980D01*
G75*
G02*
X161961380Y-114177980I0J-100000D01*
G01*
G37*
G36*
G01*
X161961380Y-113527980D02*
X161961380Y-113727980D01*
G75*
G02*
X161861380Y-113827980I-100000J0D01*
G01*
X160586380Y-113827980D01*
G75*
G02*
X160486380Y-113727980I0J100000D01*
G01*
X160486380Y-113527980D01*
G75*
G02*
X160586380Y-113427980I100000J0D01*
G01*
X161861380Y-113427980D01*
G75*
G02*
X161961380Y-113527980I0J-100000D01*
G01*
G37*
G36*
G01*
X161961380Y-112877980D02*
X161961380Y-113077980D01*
G75*
G02*
X161861380Y-113177980I-100000J0D01*
G01*
X160586380Y-113177980D01*
G75*
G02*
X160486380Y-113077980I0J100000D01*
G01*
X160486380Y-112877980D01*
G75*
G02*
X160586380Y-112777980I100000J0D01*
G01*
X161861380Y-112777980D01*
G75*
G02*
X161961380Y-112877980I0J-100000D01*
G01*
G37*
G36*
G01*
X161961380Y-112227980D02*
X161961380Y-112427980D01*
G75*
G02*
X161861380Y-112527980I-100000J0D01*
G01*
X160586380Y-112527980D01*
G75*
G02*
X160486380Y-112427980I0J100000D01*
G01*
X160486380Y-112227980D01*
G75*
G02*
X160586380Y-112127980I100000J0D01*
G01*
X161861380Y-112127980D01*
G75*
G02*
X161961380Y-112227980I0J-100000D01*
G01*
G37*
G36*
G01*
X156236380Y-112227980D02*
X156236380Y-112427980D01*
G75*
G02*
X156136380Y-112527980I-100000J0D01*
G01*
X154861380Y-112527980D01*
G75*
G02*
X154761380Y-112427980I0J100000D01*
G01*
X154761380Y-112227980D01*
G75*
G02*
X154861380Y-112127980I100000J0D01*
G01*
X156136380Y-112127980D01*
G75*
G02*
X156236380Y-112227980I0J-100000D01*
G01*
G37*
G36*
G01*
X156236380Y-112877980D02*
X156236380Y-113077980D01*
G75*
G02*
X156136380Y-113177980I-100000J0D01*
G01*
X154861380Y-113177980D01*
G75*
G02*
X154761380Y-113077980I0J100000D01*
G01*
X154761380Y-112877980D01*
G75*
G02*
X154861380Y-112777980I100000J0D01*
G01*
X156136380Y-112777980D01*
G75*
G02*
X156236380Y-112877980I0J-100000D01*
G01*
G37*
G36*
G01*
X156236380Y-113527980D02*
X156236380Y-113727980D01*
G75*
G02*
X156136380Y-113827980I-100000J0D01*
G01*
X154861380Y-113827980D01*
G75*
G02*
X154761380Y-113727980I0J100000D01*
G01*
X154761380Y-113527980D01*
G75*
G02*
X154861380Y-113427980I100000J0D01*
G01*
X156136380Y-113427980D01*
G75*
G02*
X156236380Y-113527980I0J-100000D01*
G01*
G37*
G36*
G01*
X156236380Y-114177980D02*
X156236380Y-114377980D01*
G75*
G02*
X156136380Y-114477980I-100000J0D01*
G01*
X154861380Y-114477980D01*
G75*
G02*
X154761380Y-114377980I0J100000D01*
G01*
X154761380Y-114177980D01*
G75*
G02*
X154861380Y-114077980I100000J0D01*
G01*
X156136380Y-114077980D01*
G75*
G02*
X156236380Y-114177980I0J-100000D01*
G01*
G37*
G36*
G01*
X156236380Y-114827980D02*
X156236380Y-115027980D01*
G75*
G02*
X156136380Y-115127980I-100000J0D01*
G01*
X154861380Y-115127980D01*
G75*
G02*
X154761380Y-115027980I0J100000D01*
G01*
X154761380Y-114827980D01*
G75*
G02*
X154861380Y-114727980I100000J0D01*
G01*
X156136380Y-114727980D01*
G75*
G02*
X156236380Y-114827980I0J-100000D01*
G01*
G37*
G36*
G01*
X156236380Y-115477980D02*
X156236380Y-115677980D01*
G75*
G02*
X156136380Y-115777980I-100000J0D01*
G01*
X154861380Y-115777980D01*
G75*
G02*
X154761380Y-115677980I0J100000D01*
G01*
X154761380Y-115477980D01*
G75*
G02*
X154861380Y-115377980I100000J0D01*
G01*
X156136380Y-115377980D01*
G75*
G02*
X156236380Y-115477980I0J-100000D01*
G01*
G37*
G36*
G01*
X156236380Y-116127980D02*
X156236380Y-116327980D01*
G75*
G02*
X156136380Y-116427980I-100000J0D01*
G01*
X154861380Y-116427980D01*
G75*
G02*
X154761380Y-116327980I0J100000D01*
G01*
X154761380Y-116127980D01*
G75*
G02*
X154861380Y-116027980I100000J0D01*
G01*
X156136380Y-116027980D01*
G75*
G02*
X156236380Y-116127980I0J-100000D01*
G01*
G37*
G36*
G01*
X156236380Y-116777980D02*
X156236380Y-116977980D01*
G75*
G02*
X156136380Y-117077980I-100000J0D01*
G01*
X154861380Y-117077980D01*
G75*
G02*
X154761380Y-116977980I0J100000D01*
G01*
X154761380Y-116777980D01*
G75*
G02*
X154861380Y-116677980I100000J0D01*
G01*
X156136380Y-116677980D01*
G75*
G02*
X156236380Y-116777980I0J-100000D01*
G01*
G37*
G36*
G01*
X156236380Y-117427980D02*
X156236380Y-117627980D01*
G75*
G02*
X156136380Y-117727980I-100000J0D01*
G01*
X154861380Y-117727980D01*
G75*
G02*
X154761380Y-117627980I0J100000D01*
G01*
X154761380Y-117427980D01*
G75*
G02*
X154861380Y-117327980I100000J0D01*
G01*
X156136380Y-117327980D01*
G75*
G02*
X156236380Y-117427980I0J-100000D01*
G01*
G37*
G36*
G01*
X156236380Y-118077980D02*
X156236380Y-118277980D01*
G75*
G02*
X156136380Y-118377980I-100000J0D01*
G01*
X154861380Y-118377980D01*
G75*
G02*
X154761380Y-118277980I0J100000D01*
G01*
X154761380Y-118077980D01*
G75*
G02*
X154861380Y-117977980I100000J0D01*
G01*
X156136380Y-117977980D01*
G75*
G02*
X156236380Y-118077980I0J-100000D01*
G01*
G37*
G36*
G01*
X156236380Y-118727980D02*
X156236380Y-118927980D01*
G75*
G02*
X156136380Y-119027980I-100000J0D01*
G01*
X154861380Y-119027980D01*
G75*
G02*
X154761380Y-118927980I0J100000D01*
G01*
X154761380Y-118727980D01*
G75*
G02*
X154861380Y-118627980I100000J0D01*
G01*
X156136380Y-118627980D01*
G75*
G02*
X156236380Y-118727980I0J-100000D01*
G01*
G37*
G36*
G01*
X156236380Y-119377980D02*
X156236380Y-119577980D01*
G75*
G02*
X156136380Y-119677980I-100000J0D01*
G01*
X154861380Y-119677980D01*
G75*
G02*
X154761380Y-119577980I0J100000D01*
G01*
X154761380Y-119377980D01*
G75*
G02*
X154861380Y-119277980I100000J0D01*
G01*
X156136380Y-119277980D01*
G75*
G02*
X156236380Y-119377980I0J-100000D01*
G01*
G37*
G36*
G01*
X156236380Y-120027980D02*
X156236380Y-120227980D01*
G75*
G02*
X156136380Y-120327980I-100000J0D01*
G01*
X154861380Y-120327980D01*
G75*
G02*
X154761380Y-120227980I0J100000D01*
G01*
X154761380Y-120027980D01*
G75*
G02*
X154861380Y-119927980I100000J0D01*
G01*
X156136380Y-119927980D01*
G75*
G02*
X156236380Y-120027980I0J-100000D01*
G01*
G37*
G36*
G01*
X156236380Y-120677980D02*
X156236380Y-120877980D01*
G75*
G02*
X156136380Y-120977980I-100000J0D01*
G01*
X154861380Y-120977980D01*
G75*
G02*
X154761380Y-120877980I0J100000D01*
G01*
X154761380Y-120677980D01*
G75*
G02*
X154861380Y-120577980I100000J0D01*
G01*
X156136380Y-120577980D01*
G75*
G02*
X156236380Y-120677980I0J-100000D01*
G01*
G37*
%TD*%
%TO.C,U9*%
G36*
G01*
X198042980Y-155632580D02*
X198042980Y-155882580D01*
G75*
G02*
X197917980Y-156007580I-125000J0D01*
G01*
X196667980Y-156007580D01*
G75*
G02*
X196542980Y-155882580I0J125000D01*
G01*
X196542980Y-155632580D01*
G75*
G02*
X196667980Y-155507580I125000J0D01*
G01*
X197917980Y-155507580D01*
G75*
G02*
X198042980Y-155632580I0J-125000D01*
G01*
G37*
G36*
G01*
X198042980Y-154832580D02*
X198042980Y-155082580D01*
G75*
G02*
X197917980Y-155207580I-125000J0D01*
G01*
X196667980Y-155207580D01*
G75*
G02*
X196542980Y-155082580I0J125000D01*
G01*
X196542980Y-154832580D01*
G75*
G02*
X196667980Y-154707580I125000J0D01*
G01*
X197917980Y-154707580D01*
G75*
G02*
X198042980Y-154832580I0J-125000D01*
G01*
G37*
G36*
G01*
X198042980Y-154032580D02*
X198042980Y-154282580D01*
G75*
G02*
X197917980Y-154407580I-125000J0D01*
G01*
X196667980Y-154407580D01*
G75*
G02*
X196542980Y-154282580I0J125000D01*
G01*
X196542980Y-154032580D01*
G75*
G02*
X196667980Y-153907580I125000J0D01*
G01*
X197917980Y-153907580D01*
G75*
G02*
X198042980Y-154032580I0J-125000D01*
G01*
G37*
G36*
G01*
X198042980Y-153232580D02*
X198042980Y-153482580D01*
G75*
G02*
X197917980Y-153607580I-125000J0D01*
G01*
X196667980Y-153607580D01*
G75*
G02*
X196542980Y-153482580I0J125000D01*
G01*
X196542980Y-153232580D01*
G75*
G02*
X196667980Y-153107580I125000J0D01*
G01*
X197917980Y-153107580D01*
G75*
G02*
X198042980Y-153232580I0J-125000D01*
G01*
G37*
G36*
G01*
X198042980Y-152432580D02*
X198042980Y-152682580D01*
G75*
G02*
X197917980Y-152807580I-125000J0D01*
G01*
X196667980Y-152807580D01*
G75*
G02*
X196542980Y-152682580I0J125000D01*
G01*
X196542980Y-152432580D01*
G75*
G02*
X196667980Y-152307580I125000J0D01*
G01*
X197917980Y-152307580D01*
G75*
G02*
X198042980Y-152432580I0J-125000D01*
G01*
G37*
G36*
G01*
X198042980Y-151632580D02*
X198042980Y-151882580D01*
G75*
G02*
X197917980Y-152007580I-125000J0D01*
G01*
X196667980Y-152007580D01*
G75*
G02*
X196542980Y-151882580I0J125000D01*
G01*
X196542980Y-151632580D01*
G75*
G02*
X196667980Y-151507580I125000J0D01*
G01*
X197917980Y-151507580D01*
G75*
G02*
X198042980Y-151632580I0J-125000D01*
G01*
G37*
G36*
G01*
X198042980Y-150832580D02*
X198042980Y-151082580D01*
G75*
G02*
X197917980Y-151207580I-125000J0D01*
G01*
X196667980Y-151207580D01*
G75*
G02*
X196542980Y-151082580I0J125000D01*
G01*
X196542980Y-150832580D01*
G75*
G02*
X196667980Y-150707580I125000J0D01*
G01*
X197917980Y-150707580D01*
G75*
G02*
X198042980Y-150832580I0J-125000D01*
G01*
G37*
G36*
G01*
X198042980Y-150032580D02*
X198042980Y-150282580D01*
G75*
G02*
X197917980Y-150407580I-125000J0D01*
G01*
X196667980Y-150407580D01*
G75*
G02*
X196542980Y-150282580I0J125000D01*
G01*
X196542980Y-150032580D01*
G75*
G02*
X196667980Y-149907580I125000J0D01*
G01*
X197917980Y-149907580D01*
G75*
G02*
X198042980Y-150032580I0J-125000D01*
G01*
G37*
G36*
G01*
X196167980Y-148157580D02*
X196167980Y-149407580D01*
G75*
G02*
X196042980Y-149532580I-125000J0D01*
G01*
X195792980Y-149532580D01*
G75*
G02*
X195667980Y-149407580I0J125000D01*
G01*
X195667980Y-148157580D01*
G75*
G02*
X195792980Y-148032580I125000J0D01*
G01*
X196042980Y-148032580D01*
G75*
G02*
X196167980Y-148157580I0J-125000D01*
G01*
G37*
G36*
G01*
X195367980Y-148157580D02*
X195367980Y-149407580D01*
G75*
G02*
X195242980Y-149532580I-125000J0D01*
G01*
X194992980Y-149532580D01*
G75*
G02*
X194867980Y-149407580I0J125000D01*
G01*
X194867980Y-148157580D01*
G75*
G02*
X194992980Y-148032580I125000J0D01*
G01*
X195242980Y-148032580D01*
G75*
G02*
X195367980Y-148157580I0J-125000D01*
G01*
G37*
G36*
G01*
X194567980Y-148157580D02*
X194567980Y-149407580D01*
G75*
G02*
X194442980Y-149532580I-125000J0D01*
G01*
X194192980Y-149532580D01*
G75*
G02*
X194067980Y-149407580I0J125000D01*
G01*
X194067980Y-148157580D01*
G75*
G02*
X194192980Y-148032580I125000J0D01*
G01*
X194442980Y-148032580D01*
G75*
G02*
X194567980Y-148157580I0J-125000D01*
G01*
G37*
G36*
G01*
X193767980Y-148157580D02*
X193767980Y-149407580D01*
G75*
G02*
X193642980Y-149532580I-125000J0D01*
G01*
X193392980Y-149532580D01*
G75*
G02*
X193267980Y-149407580I0J125000D01*
G01*
X193267980Y-148157580D01*
G75*
G02*
X193392980Y-148032580I125000J0D01*
G01*
X193642980Y-148032580D01*
G75*
G02*
X193767980Y-148157580I0J-125000D01*
G01*
G37*
G36*
G01*
X192967980Y-148157580D02*
X192967980Y-149407580D01*
G75*
G02*
X192842980Y-149532580I-125000J0D01*
G01*
X192592980Y-149532580D01*
G75*
G02*
X192467980Y-149407580I0J125000D01*
G01*
X192467980Y-148157580D01*
G75*
G02*
X192592980Y-148032580I125000J0D01*
G01*
X192842980Y-148032580D01*
G75*
G02*
X192967980Y-148157580I0J-125000D01*
G01*
G37*
G36*
G01*
X192167980Y-148157580D02*
X192167980Y-149407580D01*
G75*
G02*
X192042980Y-149532580I-125000J0D01*
G01*
X191792980Y-149532580D01*
G75*
G02*
X191667980Y-149407580I0J125000D01*
G01*
X191667980Y-148157580D01*
G75*
G02*
X191792980Y-148032580I125000J0D01*
G01*
X192042980Y-148032580D01*
G75*
G02*
X192167980Y-148157580I0J-125000D01*
G01*
G37*
G36*
G01*
X191367980Y-148157580D02*
X191367980Y-149407580D01*
G75*
G02*
X191242980Y-149532580I-125000J0D01*
G01*
X190992980Y-149532580D01*
G75*
G02*
X190867980Y-149407580I0J125000D01*
G01*
X190867980Y-148157580D01*
G75*
G02*
X190992980Y-148032580I125000J0D01*
G01*
X191242980Y-148032580D01*
G75*
G02*
X191367980Y-148157580I0J-125000D01*
G01*
G37*
G36*
G01*
X190567980Y-148157580D02*
X190567980Y-149407580D01*
G75*
G02*
X190442980Y-149532580I-125000J0D01*
G01*
X190192980Y-149532580D01*
G75*
G02*
X190067980Y-149407580I0J125000D01*
G01*
X190067980Y-148157580D01*
G75*
G02*
X190192980Y-148032580I125000J0D01*
G01*
X190442980Y-148032580D01*
G75*
G02*
X190567980Y-148157580I0J-125000D01*
G01*
G37*
G36*
G01*
X189692980Y-150032580D02*
X189692980Y-150282580D01*
G75*
G02*
X189567980Y-150407580I-125000J0D01*
G01*
X188317980Y-150407580D01*
G75*
G02*
X188192980Y-150282580I0J125000D01*
G01*
X188192980Y-150032580D01*
G75*
G02*
X188317980Y-149907580I125000J0D01*
G01*
X189567980Y-149907580D01*
G75*
G02*
X189692980Y-150032580I0J-125000D01*
G01*
G37*
G36*
G01*
X189692980Y-150832580D02*
X189692980Y-151082580D01*
G75*
G02*
X189567980Y-151207580I-125000J0D01*
G01*
X188317980Y-151207580D01*
G75*
G02*
X188192980Y-151082580I0J125000D01*
G01*
X188192980Y-150832580D01*
G75*
G02*
X188317980Y-150707580I125000J0D01*
G01*
X189567980Y-150707580D01*
G75*
G02*
X189692980Y-150832580I0J-125000D01*
G01*
G37*
G36*
G01*
X189692980Y-151632580D02*
X189692980Y-151882580D01*
G75*
G02*
X189567980Y-152007580I-125000J0D01*
G01*
X188317980Y-152007580D01*
G75*
G02*
X188192980Y-151882580I0J125000D01*
G01*
X188192980Y-151632580D01*
G75*
G02*
X188317980Y-151507580I125000J0D01*
G01*
X189567980Y-151507580D01*
G75*
G02*
X189692980Y-151632580I0J-125000D01*
G01*
G37*
G36*
G01*
X189692980Y-152432580D02*
X189692980Y-152682580D01*
G75*
G02*
X189567980Y-152807580I-125000J0D01*
G01*
X188317980Y-152807580D01*
G75*
G02*
X188192980Y-152682580I0J125000D01*
G01*
X188192980Y-152432580D01*
G75*
G02*
X188317980Y-152307580I125000J0D01*
G01*
X189567980Y-152307580D01*
G75*
G02*
X189692980Y-152432580I0J-125000D01*
G01*
G37*
G36*
G01*
X189692980Y-153232580D02*
X189692980Y-153482580D01*
G75*
G02*
X189567980Y-153607580I-125000J0D01*
G01*
X188317980Y-153607580D01*
G75*
G02*
X188192980Y-153482580I0J125000D01*
G01*
X188192980Y-153232580D01*
G75*
G02*
X188317980Y-153107580I125000J0D01*
G01*
X189567980Y-153107580D01*
G75*
G02*
X189692980Y-153232580I0J-125000D01*
G01*
G37*
G36*
G01*
X189692980Y-154032580D02*
X189692980Y-154282580D01*
G75*
G02*
X189567980Y-154407580I-125000J0D01*
G01*
X188317980Y-154407580D01*
G75*
G02*
X188192980Y-154282580I0J125000D01*
G01*
X188192980Y-154032580D01*
G75*
G02*
X188317980Y-153907580I125000J0D01*
G01*
X189567980Y-153907580D01*
G75*
G02*
X189692980Y-154032580I0J-125000D01*
G01*
G37*
G36*
G01*
X189692980Y-154832580D02*
X189692980Y-155082580D01*
G75*
G02*
X189567980Y-155207580I-125000J0D01*
G01*
X188317980Y-155207580D01*
G75*
G02*
X188192980Y-155082580I0J125000D01*
G01*
X188192980Y-154832580D01*
G75*
G02*
X188317980Y-154707580I125000J0D01*
G01*
X189567980Y-154707580D01*
G75*
G02*
X189692980Y-154832580I0J-125000D01*
G01*
G37*
G36*
G01*
X189692980Y-155632580D02*
X189692980Y-155882580D01*
G75*
G02*
X189567980Y-156007580I-125000J0D01*
G01*
X188317980Y-156007580D01*
G75*
G02*
X188192980Y-155882580I0J125000D01*
G01*
X188192980Y-155632580D01*
G75*
G02*
X188317980Y-155507580I125000J0D01*
G01*
X189567980Y-155507580D01*
G75*
G02*
X189692980Y-155632580I0J-125000D01*
G01*
G37*
G36*
G01*
X190567980Y-156507580D02*
X190567980Y-157757580D01*
G75*
G02*
X190442980Y-157882580I-125000J0D01*
G01*
X190192980Y-157882580D01*
G75*
G02*
X190067980Y-157757580I0J125000D01*
G01*
X190067980Y-156507580D01*
G75*
G02*
X190192980Y-156382580I125000J0D01*
G01*
X190442980Y-156382580D01*
G75*
G02*
X190567980Y-156507580I0J-125000D01*
G01*
G37*
G36*
G01*
X191367980Y-156507580D02*
X191367980Y-157757580D01*
G75*
G02*
X191242980Y-157882580I-125000J0D01*
G01*
X190992980Y-157882580D01*
G75*
G02*
X190867980Y-157757580I0J125000D01*
G01*
X190867980Y-156507580D01*
G75*
G02*
X190992980Y-156382580I125000J0D01*
G01*
X191242980Y-156382580D01*
G75*
G02*
X191367980Y-156507580I0J-125000D01*
G01*
G37*
G36*
G01*
X192167980Y-156507580D02*
X192167980Y-157757580D01*
G75*
G02*
X192042980Y-157882580I-125000J0D01*
G01*
X191792980Y-157882580D01*
G75*
G02*
X191667980Y-157757580I0J125000D01*
G01*
X191667980Y-156507580D01*
G75*
G02*
X191792980Y-156382580I125000J0D01*
G01*
X192042980Y-156382580D01*
G75*
G02*
X192167980Y-156507580I0J-125000D01*
G01*
G37*
G36*
G01*
X192967980Y-156507580D02*
X192967980Y-157757580D01*
G75*
G02*
X192842980Y-157882580I-125000J0D01*
G01*
X192592980Y-157882580D01*
G75*
G02*
X192467980Y-157757580I0J125000D01*
G01*
X192467980Y-156507580D01*
G75*
G02*
X192592980Y-156382580I125000J0D01*
G01*
X192842980Y-156382580D01*
G75*
G02*
X192967980Y-156507580I0J-125000D01*
G01*
G37*
G36*
G01*
X193767980Y-156507580D02*
X193767980Y-157757580D01*
G75*
G02*
X193642980Y-157882580I-125000J0D01*
G01*
X193392980Y-157882580D01*
G75*
G02*
X193267980Y-157757580I0J125000D01*
G01*
X193267980Y-156507580D01*
G75*
G02*
X193392980Y-156382580I125000J0D01*
G01*
X193642980Y-156382580D01*
G75*
G02*
X193767980Y-156507580I0J-125000D01*
G01*
G37*
G36*
G01*
X194567980Y-156507580D02*
X194567980Y-157757580D01*
G75*
G02*
X194442980Y-157882580I-125000J0D01*
G01*
X194192980Y-157882580D01*
G75*
G02*
X194067980Y-157757580I0J125000D01*
G01*
X194067980Y-156507580D01*
G75*
G02*
X194192980Y-156382580I125000J0D01*
G01*
X194442980Y-156382580D01*
G75*
G02*
X194567980Y-156507580I0J-125000D01*
G01*
G37*
G36*
G01*
X195367980Y-156507580D02*
X195367980Y-157757580D01*
G75*
G02*
X195242980Y-157882580I-125000J0D01*
G01*
X194992980Y-157882580D01*
G75*
G02*
X194867980Y-157757580I0J125000D01*
G01*
X194867980Y-156507580D01*
G75*
G02*
X194992980Y-156382580I125000J0D01*
G01*
X195242980Y-156382580D01*
G75*
G02*
X195367980Y-156507580I0J-125000D01*
G01*
G37*
G36*
G01*
X196167980Y-156507580D02*
X196167980Y-157757580D01*
G75*
G02*
X196042980Y-157882580I-125000J0D01*
G01*
X195792980Y-157882580D01*
G75*
G02*
X195667980Y-157757580I0J125000D01*
G01*
X195667980Y-156507580D01*
G75*
G02*
X195792980Y-156382580I125000J0D01*
G01*
X196042980Y-156382580D01*
G75*
G02*
X196167980Y-156507580I0J-125000D01*
G01*
G37*
%TD*%
D18*
%TO.C,XTAL1*%
X186031640Y-166202360D03*
X197906640Y-166202360D03*
%TD*%
M02*
