%TF.GenerationSoftware,KiCad,Pcbnew,(5.1.10)-1*%
%TF.CreationDate,2021-08-05T14:48:44-04:00*%
%TF.ProjectId,ftdi-testing-board,66746469-2d74-4657-9374-696e672d626f,rev?*%
%TF.SameCoordinates,Original*%
%TF.FileFunction,Copper,L2,Bot*%
%TF.FilePolarity,Positive*%
%FSLAX46Y46*%
G04 Gerber Fmt 4.6, Leading zero omitted, Abs format (unit mm)*
G04 Created by KiCad (PCBNEW (5.1.10)-1) date 2021-08-05 14:48:44*
%MOMM*%
%LPD*%
G01*
G04 APERTURE LIST*
%TA.AperFunction,Profile*%
%ADD10C,0.050000*%
%TD*%
%TA.AperFunction,ComponentPad*%
%ADD11O,1.700000X1.700000*%
%TD*%
%TA.AperFunction,ComponentPad*%
%ADD12R,1.700000X1.700000*%
%TD*%
%TA.AperFunction,ComponentPad*%
%ADD13C,1.815000*%
%TD*%
%TA.AperFunction,ComponentPad*%
%ADD14C,2.085000*%
%TD*%
%TA.AperFunction,ComponentPad*%
%ADD15C,0.650000*%
%TD*%
%TA.AperFunction,ViaPad*%
%ADD16C,0.800000*%
%TD*%
%TA.AperFunction,Conductor*%
%ADD17C,0.500000*%
%TD*%
%TA.AperFunction,Conductor*%
%ADD18C,0.300000*%
%TD*%
%TA.AperFunction,Conductor*%
%ADD19C,0.250000*%
%TD*%
G04 APERTURE END LIST*
D10*
X242000000Y-94000000D02*
G75*
G03*
X238000000Y-90000000I-4000000J0D01*
G01*
X238000000Y-171000000D02*
G75*
G03*
X242000000Y-167000000I0J4000000D01*
G01*
X138000000Y-167000000D02*
G75*
G03*
X142000000Y-171000000I4000000J0D01*
G01*
X142000000Y-90000000D02*
G75*
G03*
X138000000Y-94000000I0J-4000000D01*
G01*
X138000000Y-167000000D02*
X138000000Y-94000000D01*
X238000000Y-90000000D02*
X142000000Y-90000000D01*
X242000000Y-167000000D02*
X242000000Y-94000000D01*
X142000000Y-171000000D02*
X238000000Y-171000000D01*
D11*
%TO.P,J13,6*%
%TO.N,Net-(C14-Pad1)*%
X207751680Y-148757640D03*
%TO.P,J13,5*%
%TO.N,Net-(J13-Pad5)*%
X207751680Y-151297640D03*
%TO.P,J13,4*%
%TO.N,Net-(J13-Pad4)*%
X207751680Y-153837640D03*
%TO.P,J13,3*%
%TO.N,Net-(J13-Pad3)*%
X207751680Y-156377640D03*
%TO.P,J13,2*%
%TO.N,Net-(J13-Pad2)*%
X207751680Y-158917640D03*
D12*
%TO.P,J13,1*%
%TO.N,GND2*%
X207751680Y-161457640D03*
%TD*%
D11*
%TO.P,J11,6*%
%TO.N,3V3_FT260*%
X168490900Y-97551240D03*
%TO.P,J11,5*%
%TO.N,Net-(J11-Pad5)*%
X168490900Y-100091240D03*
%TO.P,J11,4*%
%TO.N,Net-(J11-Pad4)*%
X168490900Y-102631240D03*
%TO.P,J11,3*%
%TO.N,Net-(J11-Pad3)*%
X168490900Y-105171240D03*
%TO.P,J11,2*%
%TO.N,Net-(J11-Pad2)*%
X168490900Y-107711240D03*
D12*
%TO.P,J11,1*%
%TO.N,GND3*%
X168490900Y-110251240D03*
%TD*%
D11*
%TO.P,J2,6*%
%TO.N,+3V3*%
X183779160Y-107332780D03*
%TO.P,J2,5*%
%TO.N,ESP_TX*%
X183779160Y-109872780D03*
%TO.P,J2,4*%
%TO.N,ESP_RX*%
X183779160Y-112412780D03*
%TO.P,J2,3*%
%TO.N,Net-(J2-Pad3)*%
X183779160Y-114952780D03*
%TO.P,J2,2*%
%TO.N,Net-(J2-Pad2)*%
X183779160Y-117492780D03*
D12*
%TO.P,J2,1*%
%TO.N,GND*%
X183779160Y-120032780D03*
%TD*%
%TO.P,J1,1*%
%TO.N,GND*%
X201340720Y-99728020D03*
D11*
%TO.P,J1,2*%
%TO.N,+3V3*%
X201340720Y-102268020D03*
%TO.P,J1,3*%
%TO.N,ESP_EN*%
X201340720Y-104808020D03*
%TO.P,J1,4*%
%TO.N,SENSOR_VP*%
X201340720Y-107348020D03*
%TO.P,J1,5*%
%TO.N,SENSOR_VN*%
X201340720Y-109888020D03*
%TO.P,J1,6*%
%TO.N,ESP_IO34*%
X201340720Y-112428020D03*
%TO.P,J1,7*%
%TO.N,ESP_IO35*%
X201340720Y-114968020D03*
%TO.P,J1,8*%
%TO.N,ESP_IO32*%
X201340720Y-117508020D03*
%TO.P,J1,9*%
%TO.N,ESP_IO33*%
X201340720Y-120048020D03*
%TO.P,J1,10*%
%TO.N,ESP_IO25*%
X201340720Y-122588020D03*
%TO.P,J1,11*%
%TO.N,ESP_IO26*%
X201340720Y-125128020D03*
%TO.P,J1,12*%
%TO.N,ESP_IO27*%
X201340720Y-127668020D03*
%TO.P,J1,13*%
%TO.N,ESP_IO14*%
X201340720Y-130208020D03*
%TO.P,J1,14*%
%TO.N,ESP_IO12*%
X201340720Y-132748020D03*
%TD*%
D13*
%TO.P,J3,S4*%
%TO.N,GND1*%
X145630200Y-141533000D03*
D14*
%TO.P,J3,S3*%
X140030200Y-141533000D03*
%TO.P,J3,S2*%
X140030200Y-132533000D03*
D13*
%TO.P,J3,S1*%
X145630200Y-132533000D03*
D15*
%TO.P,J3,B12*%
X144830200Y-133983000D03*
%TO.P,J3,B11*%
%TO.N,Net-(J3-PadB11)*%
X144130200Y-134633000D03*
%TO.P,J3,B10*%
%TO.N,Net-(J3-PadB10)*%
X144130200Y-135433000D03*
%TO.P,J3,B9*%
%TO.N,Net-(D1-Pad4)*%
X144830200Y-135833000D03*
%TO.P,J3,B8*%
%TO.N,Net-(J3-PadB8)*%
X144130200Y-136233000D03*
%TO.P,J3,B7*%
%TO.N,Net-(D1-Pad3)*%
X144830200Y-136633000D03*
%TO.P,J3,B6*%
%TO.N,Net-(D1-Pad1)*%
X144830200Y-137433000D03*
%TO.P,J3,B5*%
%TO.N,Net-(J3-PadB5)*%
X144130200Y-137833000D03*
%TO.P,J3,B4*%
%TO.N,Net-(D1-Pad4)*%
X144830200Y-138233000D03*
%TO.P,J3,B3*%
%TO.N,Net-(J3-PadB3)*%
X144130200Y-138633000D03*
%TO.P,J3,B2*%
%TO.N,Net-(J3-PadB2)*%
X144130200Y-139433000D03*
%TO.P,J3,B1*%
%TO.N,GND1*%
X144830200Y-140083000D03*
%TD*%
D11*
%TO.P,J4,14*%
%TO.N,ESP_IO0*%
X233210100Y-132633720D03*
%TO.P,J4,13*%
%TO.N,ESP_IO4*%
X233210100Y-130093720D03*
%TO.P,J4,12*%
%TO.N,ESP_IO16*%
X233210100Y-127553720D03*
%TO.P,J4,11*%
%TO.N,ESP_IO17*%
X233210100Y-125013720D03*
%TO.P,J4,10*%
%TO.N,ESP_IO5*%
X233210100Y-122473720D03*
%TO.P,J4,9*%
%TO.N,ESP_IO18*%
X233210100Y-119933720D03*
%TO.P,J4,8*%
%TO.N,ESP_IO19*%
X233210100Y-117393720D03*
%TO.P,J4,7*%
%TO.N,Net-(J4-Pad7)*%
X233210100Y-114853720D03*
%TO.P,J4,6*%
%TO.N,ESP_IO21*%
X233210100Y-112313720D03*
%TO.P,J4,5*%
%TO.N,ESP_RX*%
X233210100Y-109773720D03*
%TO.P,J4,4*%
%TO.N,ESP_TX*%
X233210100Y-107233720D03*
%TO.P,J4,3*%
%TO.N,ESP_IO22*%
X233210100Y-104693720D03*
%TO.P,J4,2*%
%TO.N,ESP_IO23*%
X233210100Y-102153720D03*
D12*
%TO.P,J4,1*%
%TO.N,GND*%
X233210100Y-99613720D03*
%TD*%
%TO.P,J5,1*%
%TO.N,ESP_IO2*%
X228909880Y-132727700D03*
D11*
%TO.P,J5,2*%
%TO.N,ESP_IO15*%
X226369880Y-132727700D03*
%TO.P,J5,3*%
%TO.N,SD1*%
X223829880Y-132727700D03*
%TO.P,J5,4*%
%TO.N,SD0*%
X221289880Y-132727700D03*
%TO.P,J5,5*%
%TO.N,CLK*%
X218749880Y-132727700D03*
%TO.P,J5,6*%
%TO.N,CMD*%
X216209880Y-132727700D03*
%TO.P,J5,7*%
%TO.N,SD3*%
X213669880Y-132727700D03*
%TO.P,J5,8*%
%TO.N,SD2*%
X211129880Y-132727700D03*
%TO.P,J5,9*%
%TO.N,ESP_IO13*%
X208589880Y-132727700D03*
%TO.P,J5,10*%
%TO.N,GND*%
X206049880Y-132727700D03*
%TD*%
D12*
%TO.P,J6,1*%
%TO.N,GNDA*%
X218033600Y-163441380D03*
D11*
%TO.P,J6,2*%
%TO.N,Net-(J6-Pad2)*%
X218033600Y-160901380D03*
%TO.P,J6,3*%
%TO.N,Net-(J6-Pad3)*%
X218033600Y-158361380D03*
%TO.P,J6,4*%
%TO.N,Net-(J6-Pad4)*%
X218033600Y-155821380D03*
%TO.P,J6,5*%
%TO.N,Net-(J6-Pad5)*%
X218033600Y-153281380D03*
%TO.P,J6,6*%
%TO.N,Net-(J6-Pad6)*%
X218033600Y-150741380D03*
%TO.P,J6,7*%
%TO.N,Net-(J6-Pad7)*%
X218033600Y-148201380D03*
%TO.P,J6,8*%
%TO.N,Net-(J6-Pad8)*%
X218033600Y-145661380D03*
%TD*%
%TO.P,J7,4*%
%TO.N,Net-(D1-Pad4)*%
X157734000Y-132892800D03*
%TO.P,J7,3*%
%TO.N,Net-(FB1-Pad1)*%
X157734000Y-135432800D03*
%TO.P,J7,2*%
%TO.N,Net-(FB2-Pad1)*%
X157734000Y-137972800D03*
D12*
%TO.P,J7,1*%
%TO.N,GND1*%
X157734000Y-140512800D03*
%TD*%
D11*
%TO.P,J8,5*%
%TO.N,Net-(J8-Pad5)*%
X228828600Y-150207980D03*
%TO.P,J8,4*%
%TO.N,Net-(J8-Pad4)*%
X228828600Y-152747980D03*
%TO.P,J8,3*%
%TO.N,Net-(J8-Pad3)*%
X228828600Y-155287980D03*
%TO.P,J8,2*%
%TO.N,Net-(J8-Pad2)*%
X228828600Y-157827980D03*
D12*
%TO.P,J8,1*%
%TO.N,GNDA*%
X228828600Y-160367980D03*
%TD*%
%TO.P,J9,1*%
%TO.N,GND2*%
X179270660Y-157530800D03*
D11*
%TO.P,J9,2*%
%TO.N,Net-(C3-Pad1)*%
X179270660Y-154990800D03*
%TO.P,J9,3*%
%TO.N,Net-(C4-Pad1)*%
X179270660Y-152450800D03*
%TO.P,J9,4*%
%TO.N,Net-(C12-Pad1)*%
X179270660Y-149910800D03*
%TD*%
D12*
%TO.P,J10,1*%
%TO.N,GND3*%
X145191480Y-120667780D03*
D11*
%TO.P,J10,2*%
%TO.N,Net-(C7-Pad1)*%
X145191480Y-118127780D03*
%TO.P,J10,3*%
%TO.N,Net-(C9-Pad1)*%
X145191480Y-115587780D03*
%TO.P,J10,4*%
%TO.N,Net-(C13-Pad1)*%
X145191480Y-113047780D03*
%TD*%
D12*
%TO.P,J12,1*%
%TO.N,GND3*%
X168526460Y-126674880D03*
D11*
%TO.P,J12,2*%
%TO.N,Net-(J12-Pad2)*%
X168526460Y-124134880D03*
%TO.P,J12,3*%
%TO.N,Net-(J12-Pad3)*%
X168526460Y-121594880D03*
%TO.P,J12,4*%
%TO.N,Net-(J12-Pad4)*%
X168526460Y-119054880D03*
%TO.P,J12,5*%
%TO.N,Net-(J12-Pad5)*%
X168526460Y-116514880D03*
%TD*%
D16*
%TO.N,ESP_IO0*%
X188777880Y-111315500D03*
%TO.N,ESP_EN*%
X186799220Y-122991880D03*
%TO.N,GND2*%
X193771520Y-154907580D03*
X193743580Y-153182320D03*
%TO.N,GND3*%
X156870400Y-118394480D03*
X156888180Y-120228360D03*
%TO.N,Net-(C8-Pad1)*%
X203017120Y-150266400D03*
X177500280Y-166217600D03*
%TO.N,Net-(C10-Pad1)*%
X201836020Y-152214250D03*
X206552800Y-166044880D03*
%TO.N,Net-(C11-Pad1)*%
X204071220Y-153588720D03*
X195737480Y-153588720D03*
%TO.N,Net-(D1-Pad1)*%
X148497410Y-135195190D03*
%TO.N,Net-(D1-Pad3)*%
X147527200Y-137283000D03*
%TO.N,Net-(D1-Pad4)*%
X148945600Y-138663202D03*
%TO.N,Net-(J12-Pad3)*%
X156954220Y-117129560D03*
%TO.N,Net-(J12-Pad4)*%
X157838140Y-116332700D03*
%TO.N,Net-(J12-Pad5)*%
X156989780Y-115582700D03*
%TO.N,Net-(J13-Pad2)*%
X189250320Y-158295340D03*
%TO.N,Net-(J13-Pad3)*%
X189207140Y-157147260D03*
%TO.N,Net-(J13-Pad4)*%
X187337700Y-155803600D03*
%TO.N,Net-(J13-Pad5)*%
X186801760Y-154955240D03*
%TO.N,Net-(C13-Pad1)*%
X153819860Y-113413540D03*
X153819860Y-119684800D03*
%TD*%
D17*
%TO.N,ESP_IO0*%
X232529380Y-134802880D02*
X233210100Y-134122160D01*
X233210100Y-134122160D02*
X233210100Y-132633720D01*
X197698360Y-133347460D02*
X199153780Y-134802880D01*
X199153780Y-134802880D02*
X232529380Y-134802880D01*
X197698360Y-112036860D02*
X197698360Y-133347460D01*
X196977000Y-111315500D02*
X197698360Y-112036860D01*
X188777880Y-111315500D02*
X196977000Y-111315500D01*
%TO.N,ESP_EN*%
X186799220Y-122991880D02*
X186799220Y-106156760D01*
X188147960Y-104808020D02*
X201340720Y-104808020D01*
X186799220Y-106156760D02*
X188147960Y-104808020D01*
D18*
%TO.N,GND2*%
X193771520Y-153210260D02*
X193743580Y-153182320D01*
X193771520Y-154907580D02*
X193771520Y-153210260D01*
%TO.N,GND3*%
X156870400Y-120210580D02*
X156888180Y-120228360D01*
X156870400Y-118394480D02*
X156870400Y-120210580D01*
X156448760Y-120667780D02*
X156888180Y-120228360D01*
X145191480Y-120667780D02*
X156448760Y-120667780D01*
X168490900Y-110251240D02*
X144152620Y-110251240D01*
X144152620Y-110251240D02*
X143202660Y-111201200D01*
X143202660Y-111201200D02*
X143202660Y-120162320D01*
X143708120Y-120667780D02*
X145191480Y-120667780D01*
X143202660Y-120162320D02*
X143708120Y-120667780D01*
%TO.N,Net-(C8-Pad1)*%
X203017120Y-150266400D02*
X185816240Y-150266400D01*
X185816240Y-150266400D02*
X185775600Y-150307040D01*
X185775600Y-150307040D02*
X181902100Y-150307040D01*
X181902100Y-150307040D02*
X181394100Y-150815040D01*
X181394100Y-150815040D02*
X181394100Y-161731960D01*
X181394100Y-161731960D02*
X180715920Y-162410140D01*
X180715920Y-162410140D02*
X177500280Y-162410140D01*
X177500280Y-162410140D02*
X176824640Y-163085780D01*
X176824640Y-163085780D02*
X176824640Y-165712140D01*
X177330100Y-166217600D02*
X177500280Y-166217600D01*
X176824640Y-165712140D02*
X177330100Y-166217600D01*
%TO.N,Net-(C10-Pad1)*%
X201836020Y-152214250D02*
X202136070Y-152514300D01*
X202136070Y-152514300D02*
X208869280Y-152514300D01*
X208869280Y-152514300D02*
X209423000Y-153068020D01*
X209423000Y-153068020D02*
X209423000Y-165641020D01*
X209019140Y-166044880D02*
X206552800Y-166044880D01*
X209423000Y-165641020D02*
X209019140Y-166044880D01*
%TO.N,Net-(C11-Pad1)*%
X204071220Y-153588720D02*
X195737480Y-153588720D01*
D19*
%TO.N,Net-(D1-Pad1)*%
X144692202Y-137433000D02*
X144368402Y-137109200D01*
X144830200Y-137433000D02*
X144692202Y-137433000D01*
X144368402Y-137109200D02*
X142976600Y-137109200D01*
X142976600Y-137109200D02*
X142621000Y-136753600D01*
X142621000Y-136753600D02*
X142621000Y-131521200D01*
X142621000Y-131521200D02*
X142976600Y-131165600D01*
X142976600Y-131165600D02*
X147675600Y-131165600D01*
X147675600Y-131165600D02*
X148056600Y-131546600D01*
X148497410Y-135195190D02*
X148276190Y-135195190D01*
X148056600Y-134975600D02*
X148056600Y-131546600D01*
X148276190Y-135195190D02*
X148056600Y-134975600D01*
%TO.N,Net-(D1-Pad3)*%
X147527200Y-137283000D02*
X147527200Y-136808400D01*
X147351800Y-136633000D02*
X144830200Y-136633000D01*
X147527200Y-136808400D02*
X147351800Y-136633000D01*
%TO.N,Net-(D1-Pad4)*%
X144830200Y-138233000D02*
X148075800Y-138233000D01*
X148252201Y-138056599D02*
X148252201Y-135958601D01*
X148075800Y-138233000D02*
X148252201Y-138056599D01*
X148126600Y-135833000D02*
X144830200Y-135833000D01*
X148252201Y-135958601D02*
X148126600Y-135833000D01*
X148945600Y-138663202D02*
X155544998Y-138663202D01*
X155544998Y-138663202D02*
X156032200Y-138176000D01*
X156032200Y-138176000D02*
X156032200Y-133096000D01*
X156235400Y-132892800D02*
X157734000Y-132892800D01*
X156032200Y-133096000D02*
X156235400Y-132892800D01*
D17*
%TO.N,+3V3*%
X183779160Y-107332780D02*
X183779160Y-103677720D01*
X185188860Y-102268020D02*
X201340720Y-102268020D01*
X183779160Y-103677720D02*
X185188860Y-102268020D01*
%TO.N,ESP_RX*%
X183779160Y-112412780D02*
X181434740Y-112412780D01*
X181434740Y-112412780D02*
X180446680Y-111424720D01*
X180446680Y-111424720D02*
X180446680Y-98562160D01*
X180446680Y-98562160D02*
X182272940Y-96735900D01*
X182272940Y-96735900D02*
X234866180Y-96735900D01*
X234866180Y-96735900D02*
X236217460Y-98087180D01*
X236217460Y-98087180D02*
X236217460Y-108717080D01*
X235160820Y-109773720D02*
X233210100Y-109773720D01*
X236217460Y-108717080D02*
X235160820Y-109773720D01*
%TO.N,ESP_TX*%
X183779160Y-109872780D02*
X182618380Y-109872780D01*
X182618380Y-109872780D02*
X182001160Y-109255560D01*
X182001160Y-109255560D02*
X182001160Y-99240340D01*
X182001160Y-99240340D02*
X183492140Y-97749360D01*
X183492140Y-97749360D02*
X228434900Y-97749360D01*
X228434900Y-97749360D02*
X229654100Y-98968560D01*
X229654100Y-98968560D02*
X229654100Y-106281220D01*
X230606600Y-107233720D02*
X233210100Y-107233720D01*
X229654100Y-106281220D02*
X230606600Y-107233720D01*
D18*
%TO.N,Net-(J12-Pad3)*%
X156954220Y-117129560D02*
X164983160Y-117129560D01*
X164983160Y-117129560D02*
X165348920Y-117495320D01*
X165348920Y-117495320D02*
X165348920Y-121269760D01*
X165674040Y-121594880D02*
X168526460Y-121594880D01*
X165348920Y-121269760D02*
X165674040Y-121594880D01*
%TO.N,Net-(J12-Pad4)*%
X157838140Y-116332700D02*
X166004940Y-116332700D01*
X166004940Y-116332700D02*
X166309040Y-116636800D01*
X166309040Y-116636800D02*
X166309040Y-118739920D01*
X166624000Y-119054880D02*
X168526460Y-119054880D01*
X166309040Y-118739920D02*
X166624000Y-119054880D01*
%TO.N,Net-(J12-Pad5)*%
X156989780Y-115582700D02*
X166799260Y-115582700D01*
X166799260Y-115582700D02*
X167017700Y-115801140D01*
X167017700Y-115801140D02*
X167017700Y-116298980D01*
X167233600Y-116514880D02*
X168526460Y-116514880D01*
X167017700Y-116298980D02*
X167233600Y-116514880D01*
%TO.N,Net-(J13-Pad2)*%
X207129380Y-158295340D02*
X207751680Y-158917640D01*
X189250320Y-158295340D02*
X207129380Y-158295340D01*
%TO.N,Net-(J13-Pad3)*%
X189207140Y-157147260D02*
X205158340Y-157147260D01*
X207751680Y-156377640D02*
X205757780Y-156377640D01*
X205757780Y-156377640D02*
X205618080Y-156517340D01*
X205618080Y-156517340D02*
X205618080Y-157002480D01*
X205473300Y-157147260D02*
X205158340Y-157147260D01*
X205618080Y-157002480D02*
X205473300Y-157147260D01*
%TO.N,Net-(J13-Pad4)*%
X187337700Y-155803600D02*
X205132940Y-155803600D01*
X205132940Y-155803600D02*
X205628240Y-155308300D01*
X205628240Y-155308300D02*
X205628240Y-154279600D01*
X206070200Y-153837640D02*
X207751680Y-153837640D01*
X205628240Y-154279600D02*
X206070200Y-153837640D01*
%TO.N,Net-(J13-Pad5)*%
X187426600Y-151297640D02*
X207751680Y-151297640D01*
X186801760Y-151922480D02*
X187426600Y-151297640D01*
X186801760Y-154955240D02*
X186801760Y-151922480D01*
%TO.N,Net-(C13-Pad1)*%
X153819860Y-113413540D02*
X153819860Y-119684800D01*
%TD*%
M02*
