%TF.GenerationSoftware,KiCad,Pcbnew,(5.1.10)-1*%
%TF.CreationDate,2021-08-05T14:48:44-04:00*%
%TF.ProjectId,ftdi-testing-board,66746469-2d74-4657-9374-696e672d626f,rev?*%
%TF.SameCoordinates,Original*%
%TF.FileFunction,Soldermask,Bot*%
%TF.FilePolarity,Negative*%
%FSLAX46Y46*%
G04 Gerber Fmt 4.6, Leading zero omitted, Abs format (unit mm)*
G04 Created by KiCad (PCBNEW (5.1.10)-1) date 2021-08-05 14:48:44*
%MOMM*%
%LPD*%
G01*
G04 APERTURE LIST*
%TA.AperFunction,Profile*%
%ADD10C,0.050000*%
%TD*%
%ADD11C,3.200000*%
%ADD12O,1.700000X1.700000*%
%ADD13R,1.700000X1.700000*%
%ADD14C,1.815000*%
%ADD15C,2.085000*%
%ADD16C,0.650000*%
G04 APERTURE END LIST*
D10*
X242000000Y-94000000D02*
G75*
G03*
X238000000Y-90000000I-4000000J0D01*
G01*
X238000000Y-171000000D02*
G75*
G03*
X242000000Y-167000000I0J4000000D01*
G01*
X138000000Y-167000000D02*
G75*
G03*
X142000000Y-171000000I4000000J0D01*
G01*
X142000000Y-90000000D02*
G75*
G03*
X138000000Y-94000000I0J-4000000D01*
G01*
X138000000Y-167000000D02*
X138000000Y-94000000D01*
X238000000Y-90000000D02*
X142000000Y-90000000D01*
X242000000Y-167000000D02*
X242000000Y-94000000D01*
X142000000Y-171000000D02*
X238000000Y-171000000D01*
D11*
%TO.C,REF\u002A\u002A*%
X142000000Y-94000000D03*
%TD*%
%TO.C,REF\u002A\u002A*%
X238000000Y-94000000D03*
%TD*%
%TO.C,REF\u002A\u002A*%
X238000000Y-167000000D03*
%TD*%
%TO.C,REF\u002A\u002A*%
X142000000Y-167000000D03*
%TD*%
D12*
%TO.C,J13*%
X207751680Y-148757640D03*
X207751680Y-151297640D03*
X207751680Y-153837640D03*
X207751680Y-156377640D03*
X207751680Y-158917640D03*
D13*
X207751680Y-161457640D03*
%TD*%
D12*
%TO.C,J11*%
X168490900Y-97551240D03*
X168490900Y-100091240D03*
X168490900Y-102631240D03*
X168490900Y-105171240D03*
X168490900Y-107711240D03*
D13*
X168490900Y-110251240D03*
%TD*%
D12*
%TO.C,J2*%
X183779160Y-107332780D03*
X183779160Y-109872780D03*
X183779160Y-112412780D03*
X183779160Y-114952780D03*
X183779160Y-117492780D03*
D13*
X183779160Y-120032780D03*
%TD*%
%TO.C,J1*%
X201340720Y-99728020D03*
D12*
X201340720Y-102268020D03*
X201340720Y-104808020D03*
X201340720Y-107348020D03*
X201340720Y-109888020D03*
X201340720Y-112428020D03*
X201340720Y-114968020D03*
X201340720Y-117508020D03*
X201340720Y-120048020D03*
X201340720Y-122588020D03*
X201340720Y-125128020D03*
X201340720Y-127668020D03*
X201340720Y-130208020D03*
X201340720Y-132748020D03*
%TD*%
D14*
%TO.C,J3*%
X145630200Y-141533000D03*
D15*
X140030200Y-141533000D03*
X140030200Y-132533000D03*
D14*
X145630200Y-132533000D03*
D16*
X144830200Y-133983000D03*
X144130200Y-134633000D03*
X144130200Y-135433000D03*
X144830200Y-135833000D03*
X144130200Y-136233000D03*
X144830200Y-136633000D03*
X144830200Y-137433000D03*
X144130200Y-137833000D03*
X144830200Y-138233000D03*
X144130200Y-138633000D03*
X144130200Y-139433000D03*
X144830200Y-140083000D03*
%TD*%
D12*
%TO.C,J4*%
X233210100Y-132633720D03*
X233210100Y-130093720D03*
X233210100Y-127553720D03*
X233210100Y-125013720D03*
X233210100Y-122473720D03*
X233210100Y-119933720D03*
X233210100Y-117393720D03*
X233210100Y-114853720D03*
X233210100Y-112313720D03*
X233210100Y-109773720D03*
X233210100Y-107233720D03*
X233210100Y-104693720D03*
X233210100Y-102153720D03*
D13*
X233210100Y-99613720D03*
%TD*%
%TO.C,J5*%
X228909880Y-132727700D03*
D12*
X226369880Y-132727700D03*
X223829880Y-132727700D03*
X221289880Y-132727700D03*
X218749880Y-132727700D03*
X216209880Y-132727700D03*
X213669880Y-132727700D03*
X211129880Y-132727700D03*
X208589880Y-132727700D03*
X206049880Y-132727700D03*
%TD*%
D13*
%TO.C,J6*%
X218033600Y-163441380D03*
D12*
X218033600Y-160901380D03*
X218033600Y-158361380D03*
X218033600Y-155821380D03*
X218033600Y-153281380D03*
X218033600Y-150741380D03*
X218033600Y-148201380D03*
X218033600Y-145661380D03*
%TD*%
%TO.C,J7*%
X157734000Y-132892800D03*
X157734000Y-135432800D03*
X157734000Y-137972800D03*
D13*
X157734000Y-140512800D03*
%TD*%
D12*
%TO.C,J8*%
X228828600Y-150207980D03*
X228828600Y-152747980D03*
X228828600Y-155287980D03*
X228828600Y-157827980D03*
D13*
X228828600Y-160367980D03*
%TD*%
%TO.C,J9*%
X179270660Y-157530800D03*
D12*
X179270660Y-154990800D03*
X179270660Y-152450800D03*
X179270660Y-149910800D03*
%TD*%
D13*
%TO.C,J10*%
X145191480Y-120667780D03*
D12*
X145191480Y-118127780D03*
X145191480Y-115587780D03*
X145191480Y-113047780D03*
%TD*%
D13*
%TO.C,J12*%
X168526460Y-126674880D03*
D12*
X168526460Y-124134880D03*
X168526460Y-121594880D03*
X168526460Y-119054880D03*
X168526460Y-116514880D03*
%TD*%
M02*
