%TF.GenerationSoftware,KiCad,Pcbnew,(5.1.10)-1*%
%TF.CreationDate,2021-08-05T14:48:44-04:00*%
%TF.ProjectId,ftdi-testing-board,66746469-2d74-4657-9374-696e672d626f,rev?*%
%TF.SameCoordinates,Original*%
%TF.FileFunction,Copper,L1,Top*%
%TF.FilePolarity,Positive*%
%FSLAX46Y46*%
G04 Gerber Fmt 4.6, Leading zero omitted, Abs format (unit mm)*
G04 Created by KiCad (PCBNEW (5.1.10)-1) date 2021-08-05 14:48:44*
%MOMM*%
%LPD*%
G01*
G04 APERTURE LIST*
%TA.AperFunction,Profile*%
%ADD10C,0.050000*%
%TD*%
%TA.AperFunction,ComponentPad*%
%ADD11O,1.700000X1.700000*%
%TD*%
%TA.AperFunction,ComponentPad*%
%ADD12R,1.700000X1.700000*%
%TD*%
%TA.AperFunction,SMDPad,CuDef*%
%ADD13R,0.650000X1.560000*%
%TD*%
%TA.AperFunction,ComponentPad*%
%ADD14C,1.815000*%
%TD*%
%TA.AperFunction,ComponentPad*%
%ADD15C,2.085000*%
%TD*%
%TA.AperFunction,ComponentPad*%
%ADD16C,0.650000*%
%TD*%
%TA.AperFunction,SMDPad,CuDef*%
%ADD17R,0.700000X0.350000*%
%TD*%
%TA.AperFunction,SMDPad,CuDef*%
%ADD18R,0.900000X0.800000*%
%TD*%
%TA.AperFunction,SMDPad,CuDef*%
%ADD19R,0.800000X0.300000*%
%TD*%
%TA.AperFunction,SMDPad,CuDef*%
%ADD20R,5.000000X5.000000*%
%TD*%
%TA.AperFunction,SMDPad,CuDef*%
%ADD21R,2.000000X0.900000*%
%TD*%
%TA.AperFunction,SMDPad,CuDef*%
%ADD22R,0.900000X2.000000*%
%TD*%
%TA.AperFunction,SMDPad,CuDef*%
%ADD23R,7.875000X2.000000*%
%TD*%
%TA.AperFunction,ViaPad*%
%ADD24C,0.800000*%
%TD*%
%TA.AperFunction,Conductor*%
%ADD25C,0.300000*%
%TD*%
%TA.AperFunction,Conductor*%
%ADD26C,0.500000*%
%TD*%
%TA.AperFunction,Conductor*%
%ADD27C,0.250000*%
%TD*%
%TA.AperFunction,Conductor*%
%ADD28C,0.254000*%
%TD*%
%TA.AperFunction,Conductor*%
%ADD29C,0.100000*%
%TD*%
G04 APERTURE END LIST*
D10*
X242000000Y-94000000D02*
G75*
G03*
X238000000Y-90000000I-4000000J0D01*
G01*
X238000000Y-171000000D02*
G75*
G03*
X242000000Y-167000000I0J4000000D01*
G01*
X138000000Y-167000000D02*
G75*
G03*
X142000000Y-171000000I4000000J0D01*
G01*
X142000000Y-90000000D02*
G75*
G03*
X138000000Y-94000000I0J-4000000D01*
G01*
X138000000Y-167000000D02*
X138000000Y-94000000D01*
X238000000Y-90000000D02*
X142000000Y-90000000D01*
X242000000Y-167000000D02*
X242000000Y-94000000D01*
X142000000Y-171000000D02*
X238000000Y-171000000D01*
D11*
%TO.P,J13,6*%
%TO.N,Net-(C14-Pad1)*%
X207751680Y-148757640D03*
%TO.P,J13,5*%
%TO.N,Net-(J13-Pad5)*%
X207751680Y-151297640D03*
%TO.P,J13,4*%
%TO.N,Net-(J13-Pad4)*%
X207751680Y-153837640D03*
%TO.P,J13,3*%
%TO.N,Net-(J13-Pad3)*%
X207751680Y-156377640D03*
%TO.P,J13,2*%
%TO.N,Net-(J13-Pad2)*%
X207751680Y-158917640D03*
D12*
%TO.P,J13,1*%
%TO.N,GND2*%
X207751680Y-161457640D03*
%TD*%
D11*
%TO.P,J11,6*%
%TO.N,3V3_FT260*%
X168490900Y-97551240D03*
%TO.P,J11,5*%
%TO.N,Net-(J11-Pad5)*%
X168490900Y-100091240D03*
%TO.P,J11,4*%
%TO.N,Net-(J11-Pad4)*%
X168490900Y-102631240D03*
%TO.P,J11,3*%
%TO.N,Net-(J11-Pad3)*%
X168490900Y-105171240D03*
%TO.P,J11,2*%
%TO.N,Net-(J11-Pad2)*%
X168490900Y-107711240D03*
D12*
%TO.P,J11,1*%
%TO.N,GND3*%
X168490900Y-110251240D03*
%TD*%
D11*
%TO.P,J2,6*%
%TO.N,+3V3*%
X183779160Y-107332780D03*
%TO.P,J2,5*%
%TO.N,ESP_TX*%
X183779160Y-109872780D03*
%TO.P,J2,4*%
%TO.N,ESP_RX*%
X183779160Y-112412780D03*
%TO.P,J2,3*%
%TO.N,Net-(J2-Pad3)*%
X183779160Y-114952780D03*
%TO.P,J2,2*%
%TO.N,Net-(J2-Pad2)*%
X183779160Y-117492780D03*
D12*
%TO.P,J2,1*%
%TO.N,GND*%
X183779160Y-120032780D03*
%TD*%
%TO.P,C1,1*%
%TO.N,ESP_IO0*%
%TA.AperFunction,SMDPad,CuDef*%
G36*
G01*
X193098440Y-111795220D02*
X192148440Y-111795220D01*
G75*
G02*
X191898440Y-111545220I0J250000D01*
G01*
X191898440Y-111045220D01*
G75*
G02*
X192148440Y-110795220I250000J0D01*
G01*
X193098440Y-110795220D01*
G75*
G02*
X193348440Y-111045220I0J-250000D01*
G01*
X193348440Y-111545220D01*
G75*
G02*
X193098440Y-111795220I-250000J0D01*
G01*
G37*
%TD.AperFunction*%
%TO.P,C1,2*%
%TO.N,GND*%
%TA.AperFunction,SMDPad,CuDef*%
G36*
G01*
X193098440Y-109895220D02*
X192148440Y-109895220D01*
G75*
G02*
X191898440Y-109645220I0J250000D01*
G01*
X191898440Y-109145220D01*
G75*
G02*
X192148440Y-108895220I250000J0D01*
G01*
X193098440Y-108895220D01*
G75*
G02*
X193348440Y-109145220I0J-250000D01*
G01*
X193348440Y-109645220D01*
G75*
G02*
X193098440Y-109895220I-250000J0D01*
G01*
G37*
%TD.AperFunction*%
%TD*%
%TO.P,C2,2*%
%TO.N,GND*%
%TA.AperFunction,SMDPad,CuDef*%
G36*
G01*
X190469500Y-124366440D02*
X191419500Y-124366440D01*
G75*
G02*
X191669500Y-124616440I0J-250000D01*
G01*
X191669500Y-125116440D01*
G75*
G02*
X191419500Y-125366440I-250000J0D01*
G01*
X190469500Y-125366440D01*
G75*
G02*
X190219500Y-125116440I0J250000D01*
G01*
X190219500Y-124616440D01*
G75*
G02*
X190469500Y-124366440I250000J0D01*
G01*
G37*
%TD.AperFunction*%
%TO.P,C2,1*%
%TO.N,ESP_EN*%
%TA.AperFunction,SMDPad,CuDef*%
G36*
G01*
X190469500Y-122466440D02*
X191419500Y-122466440D01*
G75*
G02*
X191669500Y-122716440I0J-250000D01*
G01*
X191669500Y-123216440D01*
G75*
G02*
X191419500Y-123466440I-250000J0D01*
G01*
X190469500Y-123466440D01*
G75*
G02*
X190219500Y-123216440I0J250000D01*
G01*
X190219500Y-122716440D01*
G75*
G02*
X190469500Y-122466440I250000J0D01*
G01*
G37*
%TD.AperFunction*%
%TD*%
%TO.P,C3,2*%
%TO.N,GND2*%
%TA.AperFunction,SMDPad,CuDef*%
G36*
G01*
X184091560Y-156342540D02*
X185041560Y-156342540D01*
G75*
G02*
X185291560Y-156592540I0J-250000D01*
G01*
X185291560Y-157092540D01*
G75*
G02*
X185041560Y-157342540I-250000J0D01*
G01*
X184091560Y-157342540D01*
G75*
G02*
X183841560Y-157092540I0J250000D01*
G01*
X183841560Y-156592540D01*
G75*
G02*
X184091560Y-156342540I250000J0D01*
G01*
G37*
%TD.AperFunction*%
%TO.P,C3,1*%
%TO.N,Net-(C3-Pad1)*%
%TA.AperFunction,SMDPad,CuDef*%
G36*
G01*
X184091560Y-154442540D02*
X185041560Y-154442540D01*
G75*
G02*
X185291560Y-154692540I0J-250000D01*
G01*
X185291560Y-155192540D01*
G75*
G02*
X185041560Y-155442540I-250000J0D01*
G01*
X184091560Y-155442540D01*
G75*
G02*
X183841560Y-155192540I0J250000D01*
G01*
X183841560Y-154692540D01*
G75*
G02*
X184091560Y-154442540I250000J0D01*
G01*
G37*
%TD.AperFunction*%
%TD*%
%TO.P,C4,1*%
%TO.N,Net-(C4-Pad1)*%
%TA.AperFunction,SMDPad,CuDef*%
G36*
G01*
X181846200Y-154518700D02*
X182796200Y-154518700D01*
G75*
G02*
X183046200Y-154768700I0J-250000D01*
G01*
X183046200Y-155268700D01*
G75*
G02*
X182796200Y-155518700I-250000J0D01*
G01*
X181846200Y-155518700D01*
G75*
G02*
X181596200Y-155268700I0J250000D01*
G01*
X181596200Y-154768700D01*
G75*
G02*
X181846200Y-154518700I250000J0D01*
G01*
G37*
%TD.AperFunction*%
%TO.P,C4,2*%
%TO.N,GND2*%
%TA.AperFunction,SMDPad,CuDef*%
G36*
G01*
X181846200Y-156418700D02*
X182796200Y-156418700D01*
G75*
G02*
X183046200Y-156668700I0J-250000D01*
G01*
X183046200Y-157168700D01*
G75*
G02*
X182796200Y-157418700I-250000J0D01*
G01*
X181846200Y-157418700D01*
G75*
G02*
X181596200Y-157168700I0J250000D01*
G01*
X181596200Y-156668700D01*
G75*
G02*
X181846200Y-156418700I250000J0D01*
G01*
G37*
%TD.AperFunction*%
%TD*%
%TO.P,C5,1*%
%TO.N,Net-(C13-Pad1)*%
%TA.AperFunction,SMDPad,CuDef*%
G36*
G01*
X152829280Y-113469080D02*
X151879280Y-113469080D01*
G75*
G02*
X151629280Y-113219080I0J250000D01*
G01*
X151629280Y-112719080D01*
G75*
G02*
X151879280Y-112469080I250000J0D01*
G01*
X152829280Y-112469080D01*
G75*
G02*
X153079280Y-112719080I0J-250000D01*
G01*
X153079280Y-113219080D01*
G75*
G02*
X152829280Y-113469080I-250000J0D01*
G01*
G37*
%TD.AperFunction*%
%TO.P,C5,2*%
%TO.N,GND3*%
%TA.AperFunction,SMDPad,CuDef*%
G36*
G01*
X152829280Y-111569080D02*
X151879280Y-111569080D01*
G75*
G02*
X151629280Y-111319080I0J250000D01*
G01*
X151629280Y-110819080D01*
G75*
G02*
X151879280Y-110569080I250000J0D01*
G01*
X152829280Y-110569080D01*
G75*
G02*
X153079280Y-110819080I0J-250000D01*
G01*
X153079280Y-111319080D01*
G75*
G02*
X152829280Y-111569080I-250000J0D01*
G01*
G37*
%TD.AperFunction*%
%TD*%
%TO.P,C6,1*%
%TO.N,Net-(C14-Pad1)*%
%TA.AperFunction,SMDPad,CuDef*%
G36*
G01*
X196700160Y-146092880D02*
X195750160Y-146092880D01*
G75*
G02*
X195500160Y-145842880I0J250000D01*
G01*
X195500160Y-145342880D01*
G75*
G02*
X195750160Y-145092880I250000J0D01*
G01*
X196700160Y-145092880D01*
G75*
G02*
X196950160Y-145342880I0J-250000D01*
G01*
X196950160Y-145842880D01*
G75*
G02*
X196700160Y-146092880I-250000J0D01*
G01*
G37*
%TD.AperFunction*%
%TO.P,C6,2*%
%TO.N,GND2*%
%TA.AperFunction,SMDPad,CuDef*%
G36*
G01*
X196700160Y-144192880D02*
X195750160Y-144192880D01*
G75*
G02*
X195500160Y-143942880I0J250000D01*
G01*
X195500160Y-143442880D01*
G75*
G02*
X195750160Y-143192880I250000J0D01*
G01*
X196700160Y-143192880D01*
G75*
G02*
X196950160Y-143442880I0J-250000D01*
G01*
X196950160Y-143942880D01*
G75*
G02*
X196700160Y-144192880I-250000J0D01*
G01*
G37*
%TD.AperFunction*%
%TD*%
%TO.P,C7,1*%
%TO.N,Net-(C7-Pad1)*%
%TA.AperFunction,SMDPad,CuDef*%
G36*
G01*
X148945580Y-119227980D02*
X149895580Y-119227980D01*
G75*
G02*
X150145580Y-119477980I0J-250000D01*
G01*
X150145580Y-119977980D01*
G75*
G02*
X149895580Y-120227980I-250000J0D01*
G01*
X148945580Y-120227980D01*
G75*
G02*
X148695580Y-119977980I0J250000D01*
G01*
X148695580Y-119477980D01*
G75*
G02*
X148945580Y-119227980I250000J0D01*
G01*
G37*
%TD.AperFunction*%
%TO.P,C7,2*%
%TO.N,GND3*%
%TA.AperFunction,SMDPad,CuDef*%
G36*
G01*
X148945580Y-121127980D02*
X149895580Y-121127980D01*
G75*
G02*
X150145580Y-121377980I0J-250000D01*
G01*
X150145580Y-121877980D01*
G75*
G02*
X149895580Y-122127980I-250000J0D01*
G01*
X148945580Y-122127980D01*
G75*
G02*
X148695580Y-121877980I0J250000D01*
G01*
X148695580Y-121377980D01*
G75*
G02*
X148945580Y-121127980I250000J0D01*
G01*
G37*
%TD.AperFunction*%
%TD*%
%TO.P,C8,1*%
%TO.N,Net-(C8-Pad1)*%
%TA.AperFunction,SMDPad,CuDef*%
G36*
G01*
X180738800Y-166654140D02*
X179788800Y-166654140D01*
G75*
G02*
X179538800Y-166404140I0J250000D01*
G01*
X179538800Y-165904140D01*
G75*
G02*
X179788800Y-165654140I250000J0D01*
G01*
X180738800Y-165654140D01*
G75*
G02*
X180988800Y-165904140I0J-250000D01*
G01*
X180988800Y-166404140D01*
G75*
G02*
X180738800Y-166654140I-250000J0D01*
G01*
G37*
%TD.AperFunction*%
%TO.P,C8,2*%
%TO.N,GND2*%
%TA.AperFunction,SMDPad,CuDef*%
G36*
G01*
X180738800Y-164754140D02*
X179788800Y-164754140D01*
G75*
G02*
X179538800Y-164504140I0J250000D01*
G01*
X179538800Y-164004140D01*
G75*
G02*
X179788800Y-163754140I250000J0D01*
G01*
X180738800Y-163754140D01*
G75*
G02*
X180988800Y-164004140I0J-250000D01*
G01*
X180988800Y-164504140D01*
G75*
G02*
X180738800Y-164754140I-250000J0D01*
G01*
G37*
%TD.AperFunction*%
%TD*%
%TO.P,C9,1*%
%TO.N,Net-(C9-Pad1)*%
%TA.AperFunction,SMDPad,CuDef*%
G36*
G01*
X151155380Y-119230480D02*
X152105380Y-119230480D01*
G75*
G02*
X152355380Y-119480480I0J-250000D01*
G01*
X152355380Y-119980480D01*
G75*
G02*
X152105380Y-120230480I-250000J0D01*
G01*
X151155380Y-120230480D01*
G75*
G02*
X150905380Y-119980480I0J250000D01*
G01*
X150905380Y-119480480D01*
G75*
G02*
X151155380Y-119230480I250000J0D01*
G01*
G37*
%TD.AperFunction*%
%TO.P,C9,2*%
%TO.N,GND3*%
%TA.AperFunction,SMDPad,CuDef*%
G36*
G01*
X151155380Y-121130480D02*
X152105380Y-121130480D01*
G75*
G02*
X152355380Y-121380480I0J-250000D01*
G01*
X152355380Y-121880480D01*
G75*
G02*
X152105380Y-122130480I-250000J0D01*
G01*
X151155380Y-122130480D01*
G75*
G02*
X150905380Y-121880480I0J250000D01*
G01*
X150905380Y-121380480D01*
G75*
G02*
X151155380Y-121130480I250000J0D01*
G01*
G37*
%TD.AperFunction*%
%TD*%
%TO.P,C10,2*%
%TO.N,GND2*%
%TA.AperFunction,SMDPad,CuDef*%
G36*
G01*
X204896740Y-164733860D02*
X203946740Y-164733860D01*
G75*
G02*
X203696740Y-164483860I0J250000D01*
G01*
X203696740Y-163983860D01*
G75*
G02*
X203946740Y-163733860I250000J0D01*
G01*
X204896740Y-163733860D01*
G75*
G02*
X205146740Y-163983860I0J-250000D01*
G01*
X205146740Y-164483860D01*
G75*
G02*
X204896740Y-164733860I-250000J0D01*
G01*
G37*
%TD.AperFunction*%
%TO.P,C10,1*%
%TO.N,Net-(C10-Pad1)*%
%TA.AperFunction,SMDPad,CuDef*%
G36*
G01*
X204896740Y-166633860D02*
X203946740Y-166633860D01*
G75*
G02*
X203696740Y-166383860I0J250000D01*
G01*
X203696740Y-165883860D01*
G75*
G02*
X203946740Y-165633860I250000J0D01*
G01*
X204896740Y-165633860D01*
G75*
G02*
X205146740Y-165883860I0J-250000D01*
G01*
X205146740Y-166383860D01*
G75*
G02*
X204896740Y-166633860I-250000J0D01*
G01*
G37*
%TD.AperFunction*%
%TD*%
%TO.P,C11,2*%
%TO.N,GND2*%
%TA.AperFunction,SMDPad,CuDef*%
G36*
G01*
X200263780Y-149496400D02*
X199313780Y-149496400D01*
G75*
G02*
X199063780Y-149246400I0J250000D01*
G01*
X199063780Y-148746400D01*
G75*
G02*
X199313780Y-148496400I250000J0D01*
G01*
X200263780Y-148496400D01*
G75*
G02*
X200513780Y-148746400I0J-250000D01*
G01*
X200513780Y-149246400D01*
G75*
G02*
X200263780Y-149496400I-250000J0D01*
G01*
G37*
%TD.AperFunction*%
%TO.P,C11,1*%
%TO.N,Net-(C11-Pad1)*%
%TA.AperFunction,SMDPad,CuDef*%
G36*
G01*
X200263780Y-151396400D02*
X199313780Y-151396400D01*
G75*
G02*
X199063780Y-151146400I0J250000D01*
G01*
X199063780Y-150646400D01*
G75*
G02*
X199313780Y-150396400I250000J0D01*
G01*
X200263780Y-150396400D01*
G75*
G02*
X200513780Y-150646400I0J-250000D01*
G01*
X200513780Y-151146400D01*
G75*
G02*
X200263780Y-151396400I-250000J0D01*
G01*
G37*
%TD.AperFunction*%
%TD*%
D13*
%TO.P,D1,1*%
%TO.N,Net-(D1-Pad1)*%
X150835400Y-137283200D03*
%TO.P,D1,2*%
%TO.N,GND1*%
X149885400Y-137283200D03*
%TO.P,D1,3*%
%TO.N,Net-(D1-Pad3)*%
X148935400Y-137283200D03*
%TO.P,D1,4*%
%TO.N,Net-(D1-Pad4)*%
X148935400Y-139983200D03*
%TO.P,D1,6*%
%TO.N,Net-(D1-Pad6)*%
X150835400Y-139983200D03*
%TO.P,D1,5*%
%TO.N,GND1*%
X149885400Y-139983200D03*
%TD*%
%TO.P,D2,1*%
%TO.N,Net-(D2-Pad1)*%
%TA.AperFunction,SMDPad,CuDef*%
G36*
G01*
X198170980Y-158291850D02*
X198170980Y-157379350D01*
G75*
G02*
X198414730Y-157135600I243750J0D01*
G01*
X198902230Y-157135600D01*
G75*
G02*
X199145980Y-157379350I0J-243750D01*
G01*
X199145980Y-158291850D01*
G75*
G02*
X198902230Y-158535600I-243750J0D01*
G01*
X198414730Y-158535600D01*
G75*
G02*
X198170980Y-158291850I0J243750D01*
G01*
G37*
%TD.AperFunction*%
%TO.P,D2,2*%
%TO.N,Net-(D2-Pad2)*%
%TA.AperFunction,SMDPad,CuDef*%
G36*
G01*
X200045980Y-158291850D02*
X200045980Y-157379350D01*
G75*
G02*
X200289730Y-157135600I243750J0D01*
G01*
X200777230Y-157135600D01*
G75*
G02*
X201020980Y-157379350I0J-243750D01*
G01*
X201020980Y-158291850D01*
G75*
G02*
X200777230Y-158535600I-243750J0D01*
G01*
X200289730Y-158535600D01*
G75*
G02*
X200045980Y-158291850I0J243750D01*
G01*
G37*
%TD.AperFunction*%
%TD*%
%TO.P,D3,1*%
%TO.N,GND2*%
%TA.AperFunction,SMDPad,CuDef*%
G36*
G01*
X187571320Y-160438150D02*
X187571320Y-159525650D01*
G75*
G02*
X187815070Y-159281900I243750J0D01*
G01*
X188302570Y-159281900D01*
G75*
G02*
X188546320Y-159525650I0J-243750D01*
G01*
X188546320Y-160438150D01*
G75*
G02*
X188302570Y-160681900I-243750J0D01*
G01*
X187815070Y-160681900D01*
G75*
G02*
X187571320Y-160438150I0J243750D01*
G01*
G37*
%TD.AperFunction*%
%TO.P,D3,2*%
%TO.N,Net-(D3-Pad2)*%
%TA.AperFunction,SMDPad,CuDef*%
G36*
G01*
X189446320Y-160438150D02*
X189446320Y-159525650D01*
G75*
G02*
X189690070Y-159281900I243750J0D01*
G01*
X190177570Y-159281900D01*
G75*
G02*
X190421320Y-159525650I0J-243750D01*
G01*
X190421320Y-160438150D01*
G75*
G02*
X190177570Y-160681900I-243750J0D01*
G01*
X189690070Y-160681900D01*
G75*
G02*
X189446320Y-160438150I0J243750D01*
G01*
G37*
%TD.AperFunction*%
%TD*%
%TO.P,D4,2*%
%TO.N,Net-(D4-Pad2)*%
%TA.AperFunction,SMDPad,CuDef*%
G36*
G01*
X153094080Y-105978010D02*
X153094080Y-105065510D01*
G75*
G02*
X153337830Y-104821760I243750J0D01*
G01*
X153825330Y-104821760D01*
G75*
G02*
X154069080Y-105065510I0J-243750D01*
G01*
X154069080Y-105978010D01*
G75*
G02*
X153825330Y-106221760I-243750J0D01*
G01*
X153337830Y-106221760D01*
G75*
G02*
X153094080Y-105978010I0J243750D01*
G01*
G37*
%TD.AperFunction*%
%TO.P,D4,1*%
%TO.N,GND3*%
%TA.AperFunction,SMDPad,CuDef*%
G36*
G01*
X151219080Y-105978010D02*
X151219080Y-105065510D01*
G75*
G02*
X151462830Y-104821760I243750J0D01*
G01*
X151950330Y-104821760D01*
G75*
G02*
X152194080Y-105065510I0J-243750D01*
G01*
X152194080Y-105978010D01*
G75*
G02*
X151950330Y-106221760I-243750J0D01*
G01*
X151462830Y-106221760D01*
G75*
G02*
X151219080Y-105978010I0J243750D01*
G01*
G37*
%TD.AperFunction*%
%TD*%
%TO.P,FB1,2*%
%TO.N,Net-(D1-Pad3)*%
%TA.AperFunction,SMDPad,CuDef*%
G36*
G01*
X153447800Y-135770199D02*
X153447800Y-136670201D01*
G75*
G02*
X153197801Y-136920200I-249999J0D01*
G01*
X152672799Y-136920200D01*
G75*
G02*
X152422800Y-136670201I0J249999D01*
G01*
X152422800Y-135770199D01*
G75*
G02*
X152672799Y-135520200I249999J0D01*
G01*
X153197801Y-135520200D01*
G75*
G02*
X153447800Y-135770199I0J-249999D01*
G01*
G37*
%TD.AperFunction*%
%TO.P,FB1,1*%
%TO.N,Net-(FB1-Pad1)*%
%TA.AperFunction,SMDPad,CuDef*%
G36*
G01*
X155272800Y-135770199D02*
X155272800Y-136670201D01*
G75*
G02*
X155022801Y-136920200I-249999J0D01*
G01*
X154497799Y-136920200D01*
G75*
G02*
X154247800Y-136670201I0J249999D01*
G01*
X154247800Y-135770199D01*
G75*
G02*
X154497799Y-135520200I249999J0D01*
G01*
X155022801Y-135520200D01*
G75*
G02*
X155272800Y-135770199I0J-249999D01*
G01*
G37*
%TD.AperFunction*%
%TD*%
%TO.P,FB2,1*%
%TO.N,Net-(FB2-Pad1)*%
%TA.AperFunction,SMDPad,CuDef*%
G36*
G01*
X155222000Y-138284799D02*
X155222000Y-139184801D01*
G75*
G02*
X154972001Y-139434800I-249999J0D01*
G01*
X154446999Y-139434800D01*
G75*
G02*
X154197000Y-139184801I0J249999D01*
G01*
X154197000Y-138284799D01*
G75*
G02*
X154446999Y-138034800I249999J0D01*
G01*
X154972001Y-138034800D01*
G75*
G02*
X155222000Y-138284799I0J-249999D01*
G01*
G37*
%TD.AperFunction*%
%TO.P,FB2,2*%
%TO.N,Net-(D1-Pad1)*%
%TA.AperFunction,SMDPad,CuDef*%
G36*
G01*
X153397000Y-138284799D02*
X153397000Y-139184801D01*
G75*
G02*
X153147001Y-139434800I-249999J0D01*
G01*
X152621999Y-139434800D01*
G75*
G02*
X152372000Y-139184801I0J249999D01*
G01*
X152372000Y-138284799D01*
G75*
G02*
X152621999Y-138034800I249999J0D01*
G01*
X153147001Y-138034800D01*
G75*
G02*
X153397000Y-138284799I0J-249999D01*
G01*
G37*
%TD.AperFunction*%
%TD*%
D12*
%TO.P,J1,1*%
%TO.N,GND*%
X201340720Y-99728020D03*
D11*
%TO.P,J1,2*%
%TO.N,+3V3*%
X201340720Y-102268020D03*
%TO.P,J1,3*%
%TO.N,ESP_EN*%
X201340720Y-104808020D03*
%TO.P,J1,4*%
%TO.N,SENSOR_VP*%
X201340720Y-107348020D03*
%TO.P,J1,5*%
%TO.N,SENSOR_VN*%
X201340720Y-109888020D03*
%TO.P,J1,6*%
%TO.N,ESP_IO34*%
X201340720Y-112428020D03*
%TO.P,J1,7*%
%TO.N,ESP_IO35*%
X201340720Y-114968020D03*
%TO.P,J1,8*%
%TO.N,ESP_IO32*%
X201340720Y-117508020D03*
%TO.P,J1,9*%
%TO.N,ESP_IO33*%
X201340720Y-120048020D03*
%TO.P,J1,10*%
%TO.N,ESP_IO25*%
X201340720Y-122588020D03*
%TO.P,J1,11*%
%TO.N,ESP_IO26*%
X201340720Y-125128020D03*
%TO.P,J1,12*%
%TO.N,ESP_IO27*%
X201340720Y-127668020D03*
%TO.P,J1,13*%
%TO.N,ESP_IO14*%
X201340720Y-130208020D03*
%TO.P,J1,14*%
%TO.N,ESP_IO12*%
X201340720Y-132748020D03*
%TD*%
D14*
%TO.P,J3,S4*%
%TO.N,GND1*%
X145630200Y-141533000D03*
D15*
%TO.P,J3,S3*%
X140030200Y-141533000D03*
%TO.P,J3,S2*%
X140030200Y-132533000D03*
D14*
%TO.P,J3,S1*%
X145630200Y-132533000D03*
D16*
%TO.P,J3,B12*%
X144830200Y-133983000D03*
%TO.P,J3,B11*%
%TO.N,Net-(J3-PadB11)*%
X144130200Y-134633000D03*
%TO.P,J3,B10*%
%TO.N,Net-(J3-PadB10)*%
X144130200Y-135433000D03*
%TO.P,J3,B9*%
%TO.N,Net-(D1-Pad4)*%
X144830200Y-135833000D03*
%TO.P,J3,B8*%
%TO.N,Net-(J3-PadB8)*%
X144130200Y-136233000D03*
%TO.P,J3,B7*%
%TO.N,Net-(D1-Pad3)*%
X144830200Y-136633000D03*
%TO.P,J3,B6*%
%TO.N,Net-(D1-Pad1)*%
X144830200Y-137433000D03*
%TO.P,J3,B5*%
%TO.N,Net-(J3-PadB5)*%
X144130200Y-137833000D03*
%TO.P,J3,B4*%
%TO.N,Net-(D1-Pad4)*%
X144830200Y-138233000D03*
%TO.P,J3,B3*%
%TO.N,Net-(J3-PadB3)*%
X144130200Y-138633000D03*
%TO.P,J3,B2*%
%TO.N,Net-(J3-PadB2)*%
X144130200Y-139433000D03*
%TO.P,J3,B1*%
%TO.N,GND1*%
X144830200Y-140083000D03*
D17*
%TO.P,J3,A12*%
X145980200Y-139783000D03*
%TO.P,J3,A11*%
%TO.N,Net-(J3-PadA11)*%
X145980200Y-139283000D03*
%TO.P,J3,A10*%
%TO.N,Net-(J3-PadA10)*%
X145980200Y-138783000D03*
%TO.P,J3,A9*%
%TO.N,Net-(D1-Pad4)*%
X145980200Y-138283000D03*
%TO.P,J3,A8*%
%TO.N,Net-(J3-PadA8)*%
X145980200Y-137783000D03*
%TO.P,J3,A7*%
%TO.N,Net-(D1-Pad3)*%
X145980200Y-137283000D03*
%TO.P,J3,A6*%
%TO.N,Net-(D1-Pad1)*%
X145980200Y-136783000D03*
%TO.P,J3,A5*%
%TO.N,Net-(J3-PadA5)*%
X145980200Y-136283000D03*
%TO.P,J3,A4*%
%TO.N,Net-(D1-Pad4)*%
X145980200Y-135783000D03*
%TO.P,J3,A3*%
%TO.N,Net-(J3-PadA3)*%
X145980200Y-135283000D03*
%TO.P,J3,A2*%
%TO.N,Net-(J3-PadA2)*%
X145980200Y-134783000D03*
%TO.P,J3,A1*%
%TO.N,GND1*%
X145980200Y-134283000D03*
%TD*%
D11*
%TO.P,J4,14*%
%TO.N,ESP_IO0*%
X233210100Y-132633720D03*
%TO.P,J4,13*%
%TO.N,ESP_IO4*%
X233210100Y-130093720D03*
%TO.P,J4,12*%
%TO.N,ESP_IO16*%
X233210100Y-127553720D03*
%TO.P,J4,11*%
%TO.N,ESP_IO17*%
X233210100Y-125013720D03*
%TO.P,J4,10*%
%TO.N,ESP_IO5*%
X233210100Y-122473720D03*
%TO.P,J4,9*%
%TO.N,ESP_IO18*%
X233210100Y-119933720D03*
%TO.P,J4,8*%
%TO.N,ESP_IO19*%
X233210100Y-117393720D03*
%TO.P,J4,7*%
%TO.N,Net-(J4-Pad7)*%
X233210100Y-114853720D03*
%TO.P,J4,6*%
%TO.N,ESP_IO21*%
X233210100Y-112313720D03*
%TO.P,J4,5*%
%TO.N,ESP_RX*%
X233210100Y-109773720D03*
%TO.P,J4,4*%
%TO.N,ESP_TX*%
X233210100Y-107233720D03*
%TO.P,J4,3*%
%TO.N,ESP_IO22*%
X233210100Y-104693720D03*
%TO.P,J4,2*%
%TO.N,ESP_IO23*%
X233210100Y-102153720D03*
D12*
%TO.P,J4,1*%
%TO.N,GND*%
X233210100Y-99613720D03*
%TD*%
%TO.P,J5,1*%
%TO.N,ESP_IO2*%
X228909880Y-132727700D03*
D11*
%TO.P,J5,2*%
%TO.N,ESP_IO15*%
X226369880Y-132727700D03*
%TO.P,J5,3*%
%TO.N,SD1*%
X223829880Y-132727700D03*
%TO.P,J5,4*%
%TO.N,SD0*%
X221289880Y-132727700D03*
%TO.P,J5,5*%
%TO.N,CLK*%
X218749880Y-132727700D03*
%TO.P,J5,6*%
%TO.N,CMD*%
X216209880Y-132727700D03*
%TO.P,J5,7*%
%TO.N,SD3*%
X213669880Y-132727700D03*
%TO.P,J5,8*%
%TO.N,SD2*%
X211129880Y-132727700D03*
%TO.P,J5,9*%
%TO.N,ESP_IO13*%
X208589880Y-132727700D03*
%TO.P,J5,10*%
%TO.N,GND*%
X206049880Y-132727700D03*
%TD*%
D12*
%TO.P,J6,1*%
%TO.N,GNDA*%
X218033600Y-163441380D03*
D11*
%TO.P,J6,2*%
%TO.N,Net-(J6-Pad2)*%
X218033600Y-160901380D03*
%TO.P,J6,3*%
%TO.N,Net-(J6-Pad3)*%
X218033600Y-158361380D03*
%TO.P,J6,4*%
%TO.N,Net-(J6-Pad4)*%
X218033600Y-155821380D03*
%TO.P,J6,5*%
%TO.N,Net-(J6-Pad5)*%
X218033600Y-153281380D03*
%TO.P,J6,6*%
%TO.N,Net-(J6-Pad6)*%
X218033600Y-150741380D03*
%TO.P,J6,7*%
%TO.N,Net-(J6-Pad7)*%
X218033600Y-148201380D03*
%TO.P,J6,8*%
%TO.N,Net-(J6-Pad8)*%
X218033600Y-145661380D03*
%TD*%
%TO.P,J7,4*%
%TO.N,Net-(D1-Pad4)*%
X157734000Y-132892800D03*
%TO.P,J7,3*%
%TO.N,Net-(FB1-Pad1)*%
X157734000Y-135432800D03*
%TO.P,J7,2*%
%TO.N,Net-(FB2-Pad1)*%
X157734000Y-137972800D03*
D12*
%TO.P,J7,1*%
%TO.N,GND1*%
X157734000Y-140512800D03*
%TD*%
D11*
%TO.P,J8,5*%
%TO.N,Net-(J8-Pad5)*%
X228828600Y-150207980D03*
%TO.P,J8,4*%
%TO.N,Net-(J8-Pad4)*%
X228828600Y-152747980D03*
%TO.P,J8,3*%
%TO.N,Net-(J8-Pad3)*%
X228828600Y-155287980D03*
%TO.P,J8,2*%
%TO.N,Net-(J8-Pad2)*%
X228828600Y-157827980D03*
D12*
%TO.P,J8,1*%
%TO.N,GNDA*%
X228828600Y-160367980D03*
%TD*%
%TO.P,J9,1*%
%TO.N,GND2*%
X179270660Y-157530800D03*
D11*
%TO.P,J9,2*%
%TO.N,Net-(C3-Pad1)*%
X179270660Y-154990800D03*
%TO.P,J9,3*%
%TO.N,Net-(C4-Pad1)*%
X179270660Y-152450800D03*
%TO.P,J9,4*%
%TO.N,Net-(C12-Pad1)*%
X179270660Y-149910800D03*
%TD*%
D12*
%TO.P,J10,1*%
%TO.N,GND3*%
X145191480Y-120667780D03*
D11*
%TO.P,J10,2*%
%TO.N,Net-(C7-Pad1)*%
X145191480Y-118127780D03*
%TO.P,J10,3*%
%TO.N,Net-(C9-Pad1)*%
X145191480Y-115587780D03*
%TO.P,J10,4*%
%TO.N,Net-(C13-Pad1)*%
X145191480Y-113047780D03*
%TD*%
D12*
%TO.P,J12,1*%
%TO.N,GND3*%
X168526460Y-126674880D03*
D11*
%TO.P,J12,2*%
%TO.N,Net-(J12-Pad2)*%
X168526460Y-124134880D03*
%TO.P,J12,3*%
%TO.N,Net-(J12-Pad3)*%
X168526460Y-121594880D03*
%TO.P,J12,4*%
%TO.N,Net-(J12-Pad4)*%
X168526460Y-119054880D03*
%TO.P,J12,5*%
%TO.N,Net-(J12-Pad5)*%
X168526460Y-116514880D03*
%TD*%
D18*
%TO.P,Q1,3*%
%TO.N,ESP_IO0*%
X192726820Y-115788440D03*
%TO.P,Q1,2*%
%TO.N,Net-(J2-Pad2)*%
X190726820Y-116738440D03*
%TO.P,Q1,1*%
%TO.N,Net-(Q1-Pad1)*%
X190726820Y-114838440D03*
%TD*%
%TO.P,Q2,1*%
%TO.N,Net-(Q2-Pad1)*%
X190726820Y-118635740D03*
%TO.P,Q2,2*%
%TO.N,Net-(J2-Pad3)*%
X190726820Y-120535740D03*
%TO.P,Q2,3*%
%TO.N,ESP_EN*%
X192726820Y-119585740D03*
%TD*%
%TO.P,R1,2*%
%TO.N,Net-(J2-Pad3)*%
%TA.AperFunction,SMDPad,CuDef*%
G36*
G01*
X187389820Y-114487539D02*
X187389820Y-115387541D01*
G75*
G02*
X187139821Y-115637540I-249999J0D01*
G01*
X186614819Y-115637540D01*
G75*
G02*
X186364820Y-115387541I0J249999D01*
G01*
X186364820Y-114487539D01*
G75*
G02*
X186614819Y-114237540I249999J0D01*
G01*
X187139821Y-114237540D01*
G75*
G02*
X187389820Y-114487539I0J-249999D01*
G01*
G37*
%TD.AperFunction*%
%TO.P,R1,1*%
%TO.N,Net-(Q1-Pad1)*%
%TA.AperFunction,SMDPad,CuDef*%
G36*
G01*
X189214820Y-114487539D02*
X189214820Y-115387541D01*
G75*
G02*
X188964821Y-115637540I-249999J0D01*
G01*
X188439819Y-115637540D01*
G75*
G02*
X188189820Y-115387541I0J249999D01*
G01*
X188189820Y-114487539D01*
G75*
G02*
X188439819Y-114237540I249999J0D01*
G01*
X188964821Y-114237540D01*
G75*
G02*
X189214820Y-114487539I0J-249999D01*
G01*
G37*
%TD.AperFunction*%
%TD*%
%TO.P,R2,1*%
%TO.N,Net-(Q2-Pad1)*%
%TA.AperFunction,SMDPad,CuDef*%
G36*
G01*
X189230060Y-118218799D02*
X189230060Y-119118801D01*
G75*
G02*
X188980061Y-119368800I-249999J0D01*
G01*
X188455059Y-119368800D01*
G75*
G02*
X188205060Y-119118801I0J249999D01*
G01*
X188205060Y-118218799D01*
G75*
G02*
X188455059Y-117968800I249999J0D01*
G01*
X188980061Y-117968800D01*
G75*
G02*
X189230060Y-118218799I0J-249999D01*
G01*
G37*
%TD.AperFunction*%
%TO.P,R2,2*%
%TO.N,Net-(J2-Pad2)*%
%TA.AperFunction,SMDPad,CuDef*%
G36*
G01*
X187405060Y-118218799D02*
X187405060Y-119118801D01*
G75*
G02*
X187155061Y-119368800I-249999J0D01*
G01*
X186630059Y-119368800D01*
G75*
G02*
X186380060Y-119118801I0J249999D01*
G01*
X186380060Y-118218799D01*
G75*
G02*
X186630059Y-117968800I249999J0D01*
G01*
X187155061Y-117968800D01*
G75*
G02*
X187405060Y-118218799I0J-249999D01*
G01*
G37*
%TD.AperFunction*%
%TD*%
%TO.P,R3,1*%
%TO.N,Net-(J3-PadB5)*%
%TA.AperFunction,SMDPad,CuDef*%
G36*
G01*
X152651400Y-143045601D02*
X152651400Y-142145599D01*
G75*
G02*
X152901399Y-141895600I249999J0D01*
G01*
X153426401Y-141895600D01*
G75*
G02*
X153676400Y-142145599I0J-249999D01*
G01*
X153676400Y-143045601D01*
G75*
G02*
X153426401Y-143295600I-249999J0D01*
G01*
X152901399Y-143295600D01*
G75*
G02*
X152651400Y-143045601I0J249999D01*
G01*
G37*
%TD.AperFunction*%
%TO.P,R3,2*%
%TO.N,GND1*%
%TA.AperFunction,SMDPad,CuDef*%
G36*
G01*
X154476400Y-143045601D02*
X154476400Y-142145599D01*
G75*
G02*
X154726399Y-141895600I249999J0D01*
G01*
X155251401Y-141895600D01*
G75*
G02*
X155501400Y-142145599I0J-249999D01*
G01*
X155501400Y-143045601D01*
G75*
G02*
X155251401Y-143295600I-249999J0D01*
G01*
X154726399Y-143295600D01*
G75*
G02*
X154476400Y-143045601I0J249999D01*
G01*
G37*
%TD.AperFunction*%
%TD*%
%TO.P,R4,2*%
%TO.N,GND1*%
%TA.AperFunction,SMDPad,CuDef*%
G36*
G01*
X149573401Y-131807000D02*
X148673399Y-131807000D01*
G75*
G02*
X148423400Y-131557001I0J249999D01*
G01*
X148423400Y-131031999D01*
G75*
G02*
X148673399Y-130782000I249999J0D01*
G01*
X149573401Y-130782000D01*
G75*
G02*
X149823400Y-131031999I0J-249999D01*
G01*
X149823400Y-131557001D01*
G75*
G02*
X149573401Y-131807000I-249999J0D01*
G01*
G37*
%TD.AperFunction*%
%TO.P,R4,1*%
%TO.N,Net-(J3-PadA5)*%
%TA.AperFunction,SMDPad,CuDef*%
G36*
G01*
X149573401Y-133632000D02*
X148673399Y-133632000D01*
G75*
G02*
X148423400Y-133382001I0J249999D01*
G01*
X148423400Y-132856999D01*
G75*
G02*
X148673399Y-132607000I249999J0D01*
G01*
X149573401Y-132607000D01*
G75*
G02*
X149823400Y-132856999I0J-249999D01*
G01*
X149823400Y-133382001D01*
G75*
G02*
X149573401Y-133632000I-249999J0D01*
G01*
G37*
%TD.AperFunction*%
%TD*%
%TO.P,R5,2*%
%TO.N,ESP_IO0*%
%TA.AperFunction,SMDPad,CuDef*%
G36*
G01*
X190042379Y-110785860D02*
X190942381Y-110785860D01*
G75*
G02*
X191192380Y-111035859I0J-249999D01*
G01*
X191192380Y-111560861D01*
G75*
G02*
X190942381Y-111810860I-249999J0D01*
G01*
X190042379Y-111810860D01*
G75*
G02*
X189792380Y-111560861I0J249999D01*
G01*
X189792380Y-111035859D01*
G75*
G02*
X190042379Y-110785860I249999J0D01*
G01*
G37*
%TD.AperFunction*%
%TO.P,R5,1*%
%TO.N,+3V3*%
%TA.AperFunction,SMDPad,CuDef*%
G36*
G01*
X190042379Y-108960860D02*
X190942381Y-108960860D01*
G75*
G02*
X191192380Y-109210859I0J-249999D01*
G01*
X191192380Y-109735861D01*
G75*
G02*
X190942381Y-109985860I-249999J0D01*
G01*
X190042379Y-109985860D01*
G75*
G02*
X189792380Y-109735861I0J249999D01*
G01*
X189792380Y-109210859D01*
G75*
G02*
X190042379Y-108960860I249999J0D01*
G01*
G37*
%TD.AperFunction*%
%TD*%
%TO.P,R6,1*%
%TO.N,+3V3*%
%TA.AperFunction,SMDPad,CuDef*%
G36*
G01*
X188864661Y-125323020D02*
X187964659Y-125323020D01*
G75*
G02*
X187714660Y-125073021I0J249999D01*
G01*
X187714660Y-124548019D01*
G75*
G02*
X187964659Y-124298020I249999J0D01*
G01*
X188864661Y-124298020D01*
G75*
G02*
X189114660Y-124548019I0J-249999D01*
G01*
X189114660Y-125073021D01*
G75*
G02*
X188864661Y-125323020I-249999J0D01*
G01*
G37*
%TD.AperFunction*%
%TO.P,R6,2*%
%TO.N,ESP_EN*%
%TA.AperFunction,SMDPad,CuDef*%
G36*
G01*
X188864661Y-123498020D02*
X187964659Y-123498020D01*
G75*
G02*
X187714660Y-123248021I0J249999D01*
G01*
X187714660Y-122723019D01*
G75*
G02*
X187964659Y-122473020I249999J0D01*
G01*
X188864661Y-122473020D01*
G75*
G02*
X189114660Y-122723019I0J-249999D01*
G01*
X189114660Y-123248021D01*
G75*
G02*
X188864661Y-123498020I-249999J0D01*
G01*
G37*
%TD.AperFunction*%
%TD*%
%TO.P,R7,2*%
%TO.N,Net-(C4-Pad1)*%
%TA.AperFunction,SMDPad,CuDef*%
G36*
G01*
X183475040Y-152137959D02*
X183475040Y-153037961D01*
G75*
G02*
X183225041Y-153287960I-249999J0D01*
G01*
X182700039Y-153287960D01*
G75*
G02*
X182450040Y-153037961I0J249999D01*
G01*
X182450040Y-152137959D01*
G75*
G02*
X182700039Y-151887960I249999J0D01*
G01*
X183225041Y-151887960D01*
G75*
G02*
X183475040Y-152137959I0J-249999D01*
G01*
G37*
%TD.AperFunction*%
%TO.P,R7,1*%
%TO.N,Net-(R7-Pad1)*%
%TA.AperFunction,SMDPad,CuDef*%
G36*
G01*
X185300040Y-152137959D02*
X185300040Y-153037961D01*
G75*
G02*
X185050041Y-153287960I-249999J0D01*
G01*
X184525039Y-153287960D01*
G75*
G02*
X184275040Y-153037961I0J249999D01*
G01*
X184275040Y-152137959D01*
G75*
G02*
X184525039Y-151887960I249999J0D01*
G01*
X185050041Y-151887960D01*
G75*
G02*
X185300040Y-152137959I0J-249999D01*
G01*
G37*
%TD.AperFunction*%
%TD*%
%TO.P,R8,1*%
%TO.N,Net-(R8-Pad1)*%
%TA.AperFunction,SMDPad,CuDef*%
G36*
G01*
X187009460Y-150093259D02*
X187009460Y-150993261D01*
G75*
G02*
X186759461Y-151243260I-249999J0D01*
G01*
X186234459Y-151243260D01*
G75*
G02*
X185984460Y-150993261I0J249999D01*
G01*
X185984460Y-150093259D01*
G75*
G02*
X186234459Y-149843260I249999J0D01*
G01*
X186759461Y-149843260D01*
G75*
G02*
X187009460Y-150093259I0J-249999D01*
G01*
G37*
%TD.AperFunction*%
%TO.P,R8,2*%
%TO.N,Net-(C3-Pad1)*%
%TA.AperFunction,SMDPad,CuDef*%
G36*
G01*
X185184460Y-150093259D02*
X185184460Y-150993261D01*
G75*
G02*
X184934461Y-151243260I-249999J0D01*
G01*
X184409459Y-151243260D01*
G75*
G02*
X184159460Y-150993261I0J249999D01*
G01*
X184159460Y-150093259D01*
G75*
G02*
X184409459Y-149843260I249999J0D01*
G01*
X184934461Y-149843260D01*
G75*
G02*
X185184460Y-150093259I0J-249999D01*
G01*
G37*
%TD.AperFunction*%
%TD*%
%TO.P,R9,1*%
%TO.N,Net-(R9-Pad1)*%
%TA.AperFunction,SMDPad,CuDef*%
G36*
G01*
X153004580Y-114959979D02*
X153004580Y-115859981D01*
G75*
G02*
X152754581Y-116109980I-249999J0D01*
G01*
X152229579Y-116109980D01*
G75*
G02*
X151979580Y-115859981I0J249999D01*
G01*
X151979580Y-114959979D01*
G75*
G02*
X152229579Y-114709980I249999J0D01*
G01*
X152754581Y-114709980D01*
G75*
G02*
X153004580Y-114959979I0J-249999D01*
G01*
G37*
%TD.AperFunction*%
%TO.P,R9,2*%
%TO.N,Net-(C9-Pad1)*%
%TA.AperFunction,SMDPad,CuDef*%
G36*
G01*
X151179580Y-114959979D02*
X151179580Y-115859981D01*
G75*
G02*
X150929581Y-116109980I-249999J0D01*
G01*
X150404579Y-116109980D01*
G75*
G02*
X150154580Y-115859981I0J249999D01*
G01*
X150154580Y-114959979D01*
G75*
G02*
X150404579Y-114709980I249999J0D01*
G01*
X150929581Y-114709980D01*
G75*
G02*
X151179580Y-114959979I0J-249999D01*
G01*
G37*
%TD.AperFunction*%
%TD*%
%TO.P,R10,2*%
%TO.N,Net-(C7-Pad1)*%
%TA.AperFunction,SMDPad,CuDef*%
G36*
G01*
X151130680Y-117360279D02*
X151130680Y-118260281D01*
G75*
G02*
X150880681Y-118510280I-249999J0D01*
G01*
X150355679Y-118510280D01*
G75*
G02*
X150105680Y-118260281I0J249999D01*
G01*
X150105680Y-117360279D01*
G75*
G02*
X150355679Y-117110280I249999J0D01*
G01*
X150880681Y-117110280D01*
G75*
G02*
X151130680Y-117360279I0J-249999D01*
G01*
G37*
%TD.AperFunction*%
%TO.P,R10,1*%
%TO.N,Net-(R10-Pad1)*%
%TA.AperFunction,SMDPad,CuDef*%
G36*
G01*
X152955680Y-117360279D02*
X152955680Y-118260281D01*
G75*
G02*
X152705681Y-118510280I-249999J0D01*
G01*
X152180679Y-118510280D01*
G75*
G02*
X151930680Y-118260281I0J249999D01*
G01*
X151930680Y-117360279D01*
G75*
G02*
X152180679Y-117110280I249999J0D01*
G01*
X152705681Y-117110280D01*
G75*
G02*
X152955680Y-117360279I0J-249999D01*
G01*
G37*
%TD.AperFunction*%
%TD*%
%TO.P,R11,2*%
%TO.N,Net-(D2-Pad2)*%
%TA.AperFunction,SMDPad,CuDef*%
G36*
G01*
X200842200Y-155372221D02*
X200842200Y-154472219D01*
G75*
G02*
X201092199Y-154222220I249999J0D01*
G01*
X201617201Y-154222220D01*
G75*
G02*
X201867200Y-154472219I0J-249999D01*
G01*
X201867200Y-155372221D01*
G75*
G02*
X201617201Y-155622220I-249999J0D01*
G01*
X201092199Y-155622220D01*
G75*
G02*
X200842200Y-155372221I0J249999D01*
G01*
G37*
%TD.AperFunction*%
%TO.P,R11,1*%
%TO.N,Net-(C14-Pad1)*%
%TA.AperFunction,SMDPad,CuDef*%
G36*
G01*
X199017200Y-155372221D02*
X199017200Y-154472219D01*
G75*
G02*
X199267199Y-154222220I249999J0D01*
G01*
X199792201Y-154222220D01*
G75*
G02*
X200042200Y-154472219I0J-249999D01*
G01*
X200042200Y-155372221D01*
G75*
G02*
X199792201Y-155622220I-249999J0D01*
G01*
X199267199Y-155622220D01*
G75*
G02*
X199017200Y-155372221I0J249999D01*
G01*
G37*
%TD.AperFunction*%
%TD*%
%TO.P,R12,1*%
%TO.N,Net-(R12-Pad1)*%
%TA.AperFunction,SMDPad,CuDef*%
G36*
G01*
X194050980Y-159498879D02*
X194050980Y-160398881D01*
G75*
G02*
X193800981Y-160648880I-249999J0D01*
G01*
X193275979Y-160648880D01*
G75*
G02*
X193025980Y-160398881I0J249999D01*
G01*
X193025980Y-159498879D01*
G75*
G02*
X193275979Y-159248880I249999J0D01*
G01*
X193800981Y-159248880D01*
G75*
G02*
X194050980Y-159498879I0J-249999D01*
G01*
G37*
%TD.AperFunction*%
%TO.P,R12,2*%
%TO.N,Net-(D3-Pad2)*%
%TA.AperFunction,SMDPad,CuDef*%
G36*
G01*
X192225980Y-159498879D02*
X192225980Y-160398881D01*
G75*
G02*
X191975981Y-160648880I-249999J0D01*
G01*
X191450979Y-160648880D01*
G75*
G02*
X191200980Y-160398881I0J249999D01*
G01*
X191200980Y-159498879D01*
G75*
G02*
X191450979Y-159248880I249999J0D01*
G01*
X191975981Y-159248880D01*
G75*
G02*
X192225980Y-159498879I0J-249999D01*
G01*
G37*
%TD.AperFunction*%
%TD*%
%TO.P,R13,1*%
%TO.N,Net-(R13-Pad1)*%
%TA.AperFunction,SMDPad,CuDef*%
G36*
G01*
X157614680Y-105046359D02*
X157614680Y-105946361D01*
G75*
G02*
X157364681Y-106196360I-249999J0D01*
G01*
X156839679Y-106196360D01*
G75*
G02*
X156589680Y-105946361I0J249999D01*
G01*
X156589680Y-105046359D01*
G75*
G02*
X156839679Y-104796360I249999J0D01*
G01*
X157364681Y-104796360D01*
G75*
G02*
X157614680Y-105046359I0J-249999D01*
G01*
G37*
%TD.AperFunction*%
%TO.P,R13,2*%
%TO.N,Net-(D4-Pad2)*%
%TA.AperFunction,SMDPad,CuDef*%
G36*
G01*
X155789680Y-105046359D02*
X155789680Y-105946361D01*
G75*
G02*
X155539681Y-106196360I-249999J0D01*
G01*
X155014679Y-106196360D01*
G75*
G02*
X154764680Y-105946361I0J249999D01*
G01*
X154764680Y-105046359D01*
G75*
G02*
X155014679Y-104796360I249999J0D01*
G01*
X155539681Y-104796360D01*
G75*
G02*
X155789680Y-105046359I0J-249999D01*
G01*
G37*
%TD.AperFunction*%
%TD*%
D19*
%TO.P,U1,8*%
%TO.N,Net-(J6-Pad8)*%
X225527200Y-151540780D03*
%TO.P,U1,7*%
%TO.N,Net-(J8-Pad5)*%
X225527200Y-152040780D03*
%TO.P,U1,6*%
%TO.N,Net-(J8-Pad4)*%
X225527200Y-152540780D03*
%TO.P,U1,5*%
%TO.N,Net-(J6-Pad6)*%
X225527200Y-153040780D03*
%TO.P,U1,4*%
%TO.N,GNDA*%
X222427200Y-153040780D03*
%TO.P,U1,3*%
X222427200Y-152540780D03*
%TO.P,U1,2*%
%TO.N,Net-(J6-Pad5)*%
X222427200Y-152040780D03*
%TO.P,U1,1*%
%TO.N,Net-(J6-Pad7)*%
X222427200Y-151540780D03*
%TD*%
%TO.P,U2,1*%
%TO.N,Net-(J6-Pad4)*%
X222478000Y-154791980D03*
%TO.P,U2,2*%
%TO.N,Net-(J6-Pad2)*%
X222478000Y-155291980D03*
%TO.P,U2,3*%
%TO.N,GNDA*%
X222478000Y-155791980D03*
%TO.P,U2,4*%
X222478000Y-156291980D03*
%TO.P,U2,5*%
%TO.N,Net-(J6-Pad3)*%
X225578000Y-156291980D03*
%TO.P,U2,6*%
%TO.N,Net-(J8-Pad2)*%
X225578000Y-155791980D03*
%TO.P,U2,7*%
%TO.N,Net-(J8-Pad3)*%
X225578000Y-155291980D03*
%TO.P,U2,8*%
%TO.N,Net-(J6-Pad8)*%
X225578000Y-154791980D03*
%TD*%
D20*
%TO.P,U3,39*%
%TO.N,GND*%
X216774000Y-113366460D03*
D21*
%TO.P,U3,38*%
X226274000Y-105866460D03*
%TO.P,U3,37*%
%TO.N,ESP_IO23*%
X226274000Y-107136460D03*
%TO.P,U3,36*%
%TO.N,ESP_IO22*%
X226274000Y-108406460D03*
%TO.P,U3,35*%
%TO.N,ESP_TX*%
X226274000Y-109676460D03*
%TO.P,U3,34*%
%TO.N,ESP_RX*%
X226274000Y-110946460D03*
%TO.P,U3,33*%
%TO.N,ESP_IO21*%
X226274000Y-112216460D03*
%TO.P,U3,32*%
%TO.N,Net-(U3-Pad32)*%
X226274000Y-113486460D03*
%TO.P,U3,31*%
%TO.N,ESP_IO19*%
X226274000Y-114756460D03*
%TO.P,U3,30*%
%TO.N,ESP_IO18*%
X226274000Y-116026460D03*
%TO.P,U3,29*%
%TO.N,ESP_IO5*%
X226274000Y-117296460D03*
%TO.P,U3,28*%
%TO.N,ESP_IO17*%
X226274000Y-118566460D03*
%TO.P,U3,27*%
%TO.N,ESP_IO16*%
X226274000Y-119836460D03*
%TO.P,U3,26*%
%TO.N,ESP_IO4*%
X226274000Y-121106460D03*
%TO.P,U3,25*%
%TO.N,ESP_IO0*%
X226274000Y-122376460D03*
D22*
%TO.P,U3,24*%
%TO.N,ESP_IO2*%
X223489000Y-123376460D03*
%TO.P,U3,23*%
%TO.N,ESP_IO15*%
X222219000Y-123376460D03*
%TO.P,U3,22*%
%TO.N,SD1*%
X220949000Y-123376460D03*
%TO.P,U3,21*%
%TO.N,SD0*%
X219679000Y-123376460D03*
%TO.P,U3,20*%
%TO.N,CLK*%
X218409000Y-123376460D03*
%TO.P,U3,19*%
%TO.N,CMD*%
X217139000Y-123376460D03*
%TO.P,U3,18*%
%TO.N,SD3*%
X215869000Y-123376460D03*
%TO.P,U3,17*%
%TO.N,SD2*%
X214599000Y-123376460D03*
%TO.P,U3,16*%
%TO.N,ESP_IO13*%
X213329000Y-123376460D03*
%TO.P,U3,15*%
%TO.N,GND*%
X212059000Y-123376460D03*
D21*
%TO.P,U3,14*%
%TO.N,ESP_IO12*%
X209274000Y-122376460D03*
%TO.P,U3,13*%
%TO.N,ESP_IO14*%
X209274000Y-121106460D03*
%TO.P,U3,12*%
%TO.N,ESP_IO27*%
X209274000Y-119836460D03*
%TO.P,U3,11*%
%TO.N,ESP_IO26*%
X209274000Y-118566460D03*
%TO.P,U3,10*%
%TO.N,ESP_IO25*%
X209274000Y-117296460D03*
%TO.P,U3,9*%
%TO.N,ESP_IO33*%
X209274000Y-116026460D03*
%TO.P,U3,8*%
%TO.N,ESP_IO32*%
X209274000Y-114756460D03*
%TO.P,U3,7*%
%TO.N,ESP_IO35*%
X209274000Y-113486460D03*
%TO.P,U3,6*%
%TO.N,ESP_IO34*%
X209274000Y-112216460D03*
%TO.P,U3,5*%
%TO.N,SENSOR_VN*%
X209274000Y-110946460D03*
%TO.P,U3,4*%
%TO.N,SENSOR_VP*%
X209274000Y-109676460D03*
%TO.P,U3,3*%
%TO.N,ESP_EN*%
X209274000Y-108406460D03*
%TO.P,U3,2*%
%TO.N,+3V3*%
X209274000Y-107136460D03*
%TO.P,U3,1*%
%TO.N,GND*%
X209274000Y-105866460D03*
%TD*%
%TO.P,C12,2*%
%TO.N,GND2*%
%TA.AperFunction,SMDPad,CuDef*%
G36*
G01*
X184251620Y-144137000D02*
X183301620Y-144137000D01*
G75*
G02*
X183051620Y-143887000I0J250000D01*
G01*
X183051620Y-143387000D01*
G75*
G02*
X183301620Y-143137000I250000J0D01*
G01*
X184251620Y-143137000D01*
G75*
G02*
X184501620Y-143387000I0J-250000D01*
G01*
X184501620Y-143887000D01*
G75*
G02*
X184251620Y-144137000I-250000J0D01*
G01*
G37*
%TD.AperFunction*%
%TO.P,C12,1*%
%TO.N,Net-(C12-Pad1)*%
%TA.AperFunction,SMDPad,CuDef*%
G36*
G01*
X184251620Y-146037000D02*
X183301620Y-146037000D01*
G75*
G02*
X183051620Y-145787000I0J250000D01*
G01*
X183051620Y-145287000D01*
G75*
G02*
X183301620Y-145037000I250000J0D01*
G01*
X184251620Y-145037000D01*
G75*
G02*
X184501620Y-145287000I0J-250000D01*
G01*
X184501620Y-145787000D01*
G75*
G02*
X184251620Y-146037000I-250000J0D01*
G01*
G37*
%TD.AperFunction*%
%TD*%
%TO.P,U5,1*%
%TO.N,Net-(C14-Pad1)*%
%TA.AperFunction,SMDPad,CuDef*%
G36*
G01*
X192189780Y-145389460D02*
X192189780Y-145689460D01*
G75*
G02*
X192039780Y-145839460I-150000J0D01*
G01*
X190389780Y-145839460D01*
G75*
G02*
X190239780Y-145689460I0J150000D01*
G01*
X190239780Y-145389460D01*
G75*
G02*
X190389780Y-145239460I150000J0D01*
G01*
X192039780Y-145239460D01*
G75*
G02*
X192189780Y-145389460I0J-150000D01*
G01*
G37*
%TD.AperFunction*%
%TO.P,U5,2*%
%TO.N,Net-(U5-Pad2)*%
%TA.AperFunction,SMDPad,CuDef*%
G36*
G01*
X192189780Y-144119460D02*
X192189780Y-144419460D01*
G75*
G02*
X192039780Y-144569460I-150000J0D01*
G01*
X190389780Y-144569460D01*
G75*
G02*
X190239780Y-144419460I0J150000D01*
G01*
X190239780Y-144119460D01*
G75*
G02*
X190389780Y-143969460I150000J0D01*
G01*
X192039780Y-143969460D01*
G75*
G02*
X192189780Y-144119460I0J-150000D01*
G01*
G37*
%TD.AperFunction*%
%TO.P,U5,3*%
%TO.N,Net-(U5-Pad3)*%
%TA.AperFunction,SMDPad,CuDef*%
G36*
G01*
X192189780Y-142849460D02*
X192189780Y-143149460D01*
G75*
G02*
X192039780Y-143299460I-150000J0D01*
G01*
X190389780Y-143299460D01*
G75*
G02*
X190239780Y-143149460I0J150000D01*
G01*
X190239780Y-142849460D01*
G75*
G02*
X190389780Y-142699460I150000J0D01*
G01*
X192039780Y-142699460D01*
G75*
G02*
X192189780Y-142849460I0J-150000D01*
G01*
G37*
%TD.AperFunction*%
%TO.P,U5,4*%
%TO.N,Net-(U5-Pad4)*%
%TA.AperFunction,SMDPad,CuDef*%
G36*
G01*
X192189780Y-141579460D02*
X192189780Y-141879460D01*
G75*
G02*
X192039780Y-142029460I-150000J0D01*
G01*
X190389780Y-142029460D01*
G75*
G02*
X190239780Y-141879460I0J150000D01*
G01*
X190239780Y-141579460D01*
G75*
G02*
X190389780Y-141429460I150000J0D01*
G01*
X192039780Y-141429460D01*
G75*
G02*
X192189780Y-141579460I0J-150000D01*
G01*
G37*
%TD.AperFunction*%
%TO.P,U5,5*%
%TO.N,Net-(C12-Pad1)*%
%TA.AperFunction,SMDPad,CuDef*%
G36*
G01*
X187239780Y-141579460D02*
X187239780Y-141879460D01*
G75*
G02*
X187089780Y-142029460I-150000J0D01*
G01*
X185439780Y-142029460D01*
G75*
G02*
X185289780Y-141879460I0J150000D01*
G01*
X185289780Y-141579460D01*
G75*
G02*
X185439780Y-141429460I150000J0D01*
G01*
X187089780Y-141429460D01*
G75*
G02*
X187239780Y-141579460I0J-150000D01*
G01*
G37*
%TD.AperFunction*%
%TO.P,U5,6*%
%TO.N,GND2*%
%TA.AperFunction,SMDPad,CuDef*%
G36*
G01*
X187239780Y-142849460D02*
X187239780Y-143149460D01*
G75*
G02*
X187089780Y-143299460I-150000J0D01*
G01*
X185439780Y-143299460D01*
G75*
G02*
X185289780Y-143149460I0J150000D01*
G01*
X185289780Y-142849460D01*
G75*
G02*
X185439780Y-142699460I150000J0D01*
G01*
X187089780Y-142699460D01*
G75*
G02*
X187239780Y-142849460I0J-150000D01*
G01*
G37*
%TD.AperFunction*%
%TO.P,U5,7*%
%TA.AperFunction,SMDPad,CuDef*%
G36*
G01*
X187239780Y-144119460D02*
X187239780Y-144419460D01*
G75*
G02*
X187089780Y-144569460I-150000J0D01*
G01*
X185439780Y-144569460D01*
G75*
G02*
X185289780Y-144419460I0J150000D01*
G01*
X185289780Y-144119460D01*
G75*
G02*
X185439780Y-143969460I150000J0D01*
G01*
X187089780Y-143969460D01*
G75*
G02*
X187239780Y-144119460I0J-150000D01*
G01*
G37*
%TD.AperFunction*%
%TO.P,U5,8*%
%TO.N,Net-(C12-Pad1)*%
%TA.AperFunction,SMDPad,CuDef*%
G36*
G01*
X187239780Y-145389460D02*
X187239780Y-145689460D01*
G75*
G02*
X187089780Y-145839460I-150000J0D01*
G01*
X185439780Y-145839460D01*
G75*
G02*
X185289780Y-145689460I0J150000D01*
G01*
X185289780Y-145389460D01*
G75*
G02*
X185439780Y-145239460I150000J0D01*
G01*
X187089780Y-145239460D01*
G75*
G02*
X187239780Y-145389460I0J-150000D01*
G01*
G37*
%TD.AperFunction*%
%TD*%
%TO.P,C13,2*%
%TO.N,GND3*%
%TA.AperFunction,SMDPad,CuDef*%
G36*
G01*
X150517880Y-111584280D02*
X149567880Y-111584280D01*
G75*
G02*
X149317880Y-111334280I0J250000D01*
G01*
X149317880Y-110834280D01*
G75*
G02*
X149567880Y-110584280I250000J0D01*
G01*
X150517880Y-110584280D01*
G75*
G02*
X150767880Y-110834280I0J-250000D01*
G01*
X150767880Y-111334280D01*
G75*
G02*
X150517880Y-111584280I-250000J0D01*
G01*
G37*
%TD.AperFunction*%
%TO.P,C13,1*%
%TO.N,Net-(C13-Pad1)*%
%TA.AperFunction,SMDPad,CuDef*%
G36*
G01*
X150517880Y-113484280D02*
X149567880Y-113484280D01*
G75*
G02*
X149317880Y-113234280I0J250000D01*
G01*
X149317880Y-112734280D01*
G75*
G02*
X149567880Y-112484280I250000J0D01*
G01*
X150517880Y-112484280D01*
G75*
G02*
X150767880Y-112734280I0J-250000D01*
G01*
X150767880Y-113234280D01*
G75*
G02*
X150517880Y-113484280I-250000J0D01*
G01*
G37*
%TD.AperFunction*%
%TD*%
%TO.P,C14,2*%
%TO.N,GND2*%
%TA.AperFunction,SMDPad,CuDef*%
G36*
G01*
X194243980Y-144236060D02*
X193293980Y-144236060D01*
G75*
G02*
X193043980Y-143986060I0J250000D01*
G01*
X193043980Y-143486060D01*
G75*
G02*
X193293980Y-143236060I250000J0D01*
G01*
X194243980Y-143236060D01*
G75*
G02*
X194493980Y-143486060I0J-250000D01*
G01*
X194493980Y-143986060D01*
G75*
G02*
X194243980Y-144236060I-250000J0D01*
G01*
G37*
%TD.AperFunction*%
%TO.P,C14,1*%
%TO.N,Net-(C14-Pad1)*%
%TA.AperFunction,SMDPad,CuDef*%
G36*
G01*
X194243980Y-146136060D02*
X193293980Y-146136060D01*
G75*
G02*
X193043980Y-145886060I0J250000D01*
G01*
X193043980Y-145386060D01*
G75*
G02*
X193293980Y-145136060I250000J0D01*
G01*
X194243980Y-145136060D01*
G75*
G02*
X194493980Y-145386060I0J-250000D01*
G01*
X194493980Y-145886060D01*
G75*
G02*
X194243980Y-146136060I-250000J0D01*
G01*
G37*
%TD.AperFunction*%
%TD*%
%TO.P,U8,1*%
%TO.N,Net-(U8-Pad1)*%
%TA.AperFunction,SMDPad,CuDef*%
G36*
G01*
X161961380Y-120677980D02*
X161961380Y-120877980D01*
G75*
G02*
X161861380Y-120977980I-100000J0D01*
G01*
X160586380Y-120977980D01*
G75*
G02*
X160486380Y-120877980I0J100000D01*
G01*
X160486380Y-120677980D01*
G75*
G02*
X160586380Y-120577980I100000J0D01*
G01*
X161861380Y-120577980D01*
G75*
G02*
X161961380Y-120677980I0J-100000D01*
G01*
G37*
%TD.AperFunction*%
%TO.P,U8,2*%
%TO.N,Net-(C13-Pad1)*%
%TA.AperFunction,SMDPad,CuDef*%
G36*
G01*
X161961380Y-120027980D02*
X161961380Y-120227980D01*
G75*
G02*
X161861380Y-120327980I-100000J0D01*
G01*
X160586380Y-120327980D01*
G75*
G02*
X160486380Y-120227980I0J100000D01*
G01*
X160486380Y-120027980D01*
G75*
G02*
X160586380Y-119927980I100000J0D01*
G01*
X161861380Y-119927980D01*
G75*
G02*
X161961380Y-120027980I0J-100000D01*
G01*
G37*
%TD.AperFunction*%
%TO.P,U8,3*%
%TO.N,Net-(U8-Pad3)*%
%TA.AperFunction,SMDPad,CuDef*%
G36*
G01*
X161961380Y-119377980D02*
X161961380Y-119577980D01*
G75*
G02*
X161861380Y-119677980I-100000J0D01*
G01*
X160586380Y-119677980D01*
G75*
G02*
X160486380Y-119577980I0J100000D01*
G01*
X160486380Y-119377980D01*
G75*
G02*
X160586380Y-119277980I100000J0D01*
G01*
X161861380Y-119277980D01*
G75*
G02*
X161961380Y-119377980I0J-100000D01*
G01*
G37*
%TD.AperFunction*%
%TO.P,U8,4*%
%TO.N,Net-(J12-Pad2)*%
%TA.AperFunction,SMDPad,CuDef*%
G36*
G01*
X161961380Y-118727980D02*
X161961380Y-118927980D01*
G75*
G02*
X161861380Y-119027980I-100000J0D01*
G01*
X160586380Y-119027980D01*
G75*
G02*
X160486380Y-118927980I0J100000D01*
G01*
X160486380Y-118727980D01*
G75*
G02*
X160586380Y-118627980I100000J0D01*
G01*
X161861380Y-118627980D01*
G75*
G02*
X161961380Y-118727980I0J-100000D01*
G01*
G37*
%TD.AperFunction*%
%TO.P,U8,5*%
%TO.N,3V3_FT260*%
%TA.AperFunction,SMDPad,CuDef*%
G36*
G01*
X161961380Y-118077980D02*
X161961380Y-118277980D01*
G75*
G02*
X161861380Y-118377980I-100000J0D01*
G01*
X160586380Y-118377980D01*
G75*
G02*
X160486380Y-118277980I0J100000D01*
G01*
X160486380Y-118077980D01*
G75*
G02*
X160586380Y-117977980I100000J0D01*
G01*
X161861380Y-117977980D01*
G75*
G02*
X161961380Y-118077980I0J-100000D01*
G01*
G37*
%TD.AperFunction*%
%TO.P,U8,6*%
%TA.AperFunction,SMDPad,CuDef*%
G36*
G01*
X161961380Y-117427980D02*
X161961380Y-117627980D01*
G75*
G02*
X161861380Y-117727980I-100000J0D01*
G01*
X160586380Y-117727980D01*
G75*
G02*
X160486380Y-117627980I0J100000D01*
G01*
X160486380Y-117427980D01*
G75*
G02*
X160586380Y-117327980I100000J0D01*
G01*
X161861380Y-117327980D01*
G75*
G02*
X161961380Y-117427980I0J-100000D01*
G01*
G37*
%TD.AperFunction*%
%TO.P,U8,7*%
%TA.AperFunction,SMDPad,CuDef*%
G36*
G01*
X161961380Y-116777980D02*
X161961380Y-116977980D01*
G75*
G02*
X161861380Y-117077980I-100000J0D01*
G01*
X160586380Y-117077980D01*
G75*
G02*
X160486380Y-116977980I0J100000D01*
G01*
X160486380Y-116777980D01*
G75*
G02*
X160586380Y-116677980I100000J0D01*
G01*
X161861380Y-116677980D01*
G75*
G02*
X161961380Y-116777980I0J-100000D01*
G01*
G37*
%TD.AperFunction*%
%TO.P,U8,8*%
%TO.N,GND3*%
%TA.AperFunction,SMDPad,CuDef*%
G36*
G01*
X161961380Y-116127980D02*
X161961380Y-116327980D01*
G75*
G02*
X161861380Y-116427980I-100000J0D01*
G01*
X160586380Y-116427980D01*
G75*
G02*
X160486380Y-116327980I0J100000D01*
G01*
X160486380Y-116127980D01*
G75*
G02*
X160586380Y-116027980I100000J0D01*
G01*
X161861380Y-116027980D01*
G75*
G02*
X161961380Y-116127980I0J-100000D01*
G01*
G37*
%TD.AperFunction*%
%TO.P,U8,9*%
%TO.N,3V3_FT260*%
%TA.AperFunction,SMDPad,CuDef*%
G36*
G01*
X161961380Y-115477980D02*
X161961380Y-115677980D01*
G75*
G02*
X161861380Y-115777980I-100000J0D01*
G01*
X160586380Y-115777980D01*
G75*
G02*
X160486380Y-115677980I0J100000D01*
G01*
X160486380Y-115477980D01*
G75*
G02*
X160586380Y-115377980I100000J0D01*
G01*
X161861380Y-115377980D01*
G75*
G02*
X161961380Y-115477980I0J-100000D01*
G01*
G37*
%TD.AperFunction*%
%TO.P,U8,10*%
%TA.AperFunction,SMDPad,CuDef*%
G36*
G01*
X161961380Y-114827980D02*
X161961380Y-115027980D01*
G75*
G02*
X161861380Y-115127980I-100000J0D01*
G01*
X160586380Y-115127980D01*
G75*
G02*
X160486380Y-115027980I0J100000D01*
G01*
X160486380Y-114827980D01*
G75*
G02*
X160586380Y-114727980I100000J0D01*
G01*
X161861380Y-114727980D01*
G75*
G02*
X161961380Y-114827980I0J-100000D01*
G01*
G37*
%TD.AperFunction*%
%TO.P,U8,11*%
%TO.N,Net-(R13-Pad1)*%
%TA.AperFunction,SMDPad,CuDef*%
G36*
G01*
X161961380Y-114177980D02*
X161961380Y-114377980D01*
G75*
G02*
X161861380Y-114477980I-100000J0D01*
G01*
X160586380Y-114477980D01*
G75*
G02*
X160486380Y-114377980I0J100000D01*
G01*
X160486380Y-114177980D01*
G75*
G02*
X160586380Y-114077980I100000J0D01*
G01*
X161861380Y-114077980D01*
G75*
G02*
X161961380Y-114177980I0J-100000D01*
G01*
G37*
%TD.AperFunction*%
%TO.P,U8,12*%
%TO.N,Net-(J11-Pad3)*%
%TA.AperFunction,SMDPad,CuDef*%
G36*
G01*
X161961380Y-113527980D02*
X161961380Y-113727980D01*
G75*
G02*
X161861380Y-113827980I-100000J0D01*
G01*
X160586380Y-113827980D01*
G75*
G02*
X160486380Y-113727980I0J100000D01*
G01*
X160486380Y-113527980D01*
G75*
G02*
X160586380Y-113427980I100000J0D01*
G01*
X161861380Y-113427980D01*
G75*
G02*
X161961380Y-113527980I0J-100000D01*
G01*
G37*
%TD.AperFunction*%
%TO.P,U8,13*%
%TO.N,Net-(J11-Pad2)*%
%TA.AperFunction,SMDPad,CuDef*%
G36*
G01*
X161961380Y-112877980D02*
X161961380Y-113077980D01*
G75*
G02*
X161861380Y-113177980I-100000J0D01*
G01*
X160586380Y-113177980D01*
G75*
G02*
X160486380Y-113077980I0J100000D01*
G01*
X160486380Y-112877980D01*
G75*
G02*
X160586380Y-112777980I100000J0D01*
G01*
X161861380Y-112777980D01*
G75*
G02*
X161961380Y-112877980I0J-100000D01*
G01*
G37*
%TD.AperFunction*%
%TO.P,U8,14*%
%TO.N,Net-(J11-Pad4)*%
%TA.AperFunction,SMDPad,CuDef*%
G36*
G01*
X161961380Y-112227980D02*
X161961380Y-112427980D01*
G75*
G02*
X161861380Y-112527980I-100000J0D01*
G01*
X160586380Y-112527980D01*
G75*
G02*
X160486380Y-112427980I0J100000D01*
G01*
X160486380Y-112227980D01*
G75*
G02*
X160586380Y-112127980I100000J0D01*
G01*
X161861380Y-112127980D01*
G75*
G02*
X161961380Y-112227980I0J-100000D01*
G01*
G37*
%TD.AperFunction*%
%TO.P,U8,15*%
%TO.N,Net-(J11-Pad5)*%
%TA.AperFunction,SMDPad,CuDef*%
G36*
G01*
X156236380Y-112227980D02*
X156236380Y-112427980D01*
G75*
G02*
X156136380Y-112527980I-100000J0D01*
G01*
X154861380Y-112527980D01*
G75*
G02*
X154761380Y-112427980I0J100000D01*
G01*
X154761380Y-112227980D01*
G75*
G02*
X154861380Y-112127980I100000J0D01*
G01*
X156136380Y-112127980D01*
G75*
G02*
X156236380Y-112227980I0J-100000D01*
G01*
G37*
%TD.AperFunction*%
%TO.P,U8,16*%
%TO.N,Net-(U8-Pad16)*%
%TA.AperFunction,SMDPad,CuDef*%
G36*
G01*
X156236380Y-112877980D02*
X156236380Y-113077980D01*
G75*
G02*
X156136380Y-113177980I-100000J0D01*
G01*
X154861380Y-113177980D01*
G75*
G02*
X154761380Y-113077980I0J100000D01*
G01*
X154761380Y-112877980D01*
G75*
G02*
X154861380Y-112777980I100000J0D01*
G01*
X156136380Y-112777980D01*
G75*
G02*
X156236380Y-112877980I0J-100000D01*
G01*
G37*
%TD.AperFunction*%
%TO.P,U8,17*%
%TO.N,Net-(U8-Pad17)*%
%TA.AperFunction,SMDPad,CuDef*%
G36*
G01*
X156236380Y-113527980D02*
X156236380Y-113727980D01*
G75*
G02*
X156136380Y-113827980I-100000J0D01*
G01*
X154861380Y-113827980D01*
G75*
G02*
X154761380Y-113727980I0J100000D01*
G01*
X154761380Y-113527980D01*
G75*
G02*
X154861380Y-113427980I100000J0D01*
G01*
X156136380Y-113427980D01*
G75*
G02*
X156236380Y-113527980I0J-100000D01*
G01*
G37*
%TD.AperFunction*%
%TO.P,U8,18*%
%TO.N,Net-(U8-Pad18)*%
%TA.AperFunction,SMDPad,CuDef*%
G36*
G01*
X156236380Y-114177980D02*
X156236380Y-114377980D01*
G75*
G02*
X156136380Y-114477980I-100000J0D01*
G01*
X154861380Y-114477980D01*
G75*
G02*
X154761380Y-114377980I0J100000D01*
G01*
X154761380Y-114177980D01*
G75*
G02*
X154861380Y-114077980I100000J0D01*
G01*
X156136380Y-114077980D01*
G75*
G02*
X156236380Y-114177980I0J-100000D01*
G01*
G37*
%TD.AperFunction*%
%TO.P,U8,19*%
%TO.N,Net-(U8-Pad19)*%
%TA.AperFunction,SMDPad,CuDef*%
G36*
G01*
X156236380Y-114827980D02*
X156236380Y-115027980D01*
G75*
G02*
X156136380Y-115127980I-100000J0D01*
G01*
X154861380Y-115127980D01*
G75*
G02*
X154761380Y-115027980I0J100000D01*
G01*
X154761380Y-114827980D01*
G75*
G02*
X154861380Y-114727980I100000J0D01*
G01*
X156136380Y-114727980D01*
G75*
G02*
X156236380Y-114827980I0J-100000D01*
G01*
G37*
%TD.AperFunction*%
%TO.P,U8,20*%
%TO.N,Net-(J12-Pad5)*%
%TA.AperFunction,SMDPad,CuDef*%
G36*
G01*
X156236380Y-115477980D02*
X156236380Y-115677980D01*
G75*
G02*
X156136380Y-115777980I-100000J0D01*
G01*
X154861380Y-115777980D01*
G75*
G02*
X154761380Y-115677980I0J100000D01*
G01*
X154761380Y-115477980D01*
G75*
G02*
X154861380Y-115377980I100000J0D01*
G01*
X156136380Y-115377980D01*
G75*
G02*
X156236380Y-115477980I0J-100000D01*
G01*
G37*
%TD.AperFunction*%
%TO.P,U8,21*%
%TO.N,Net-(J12-Pad4)*%
%TA.AperFunction,SMDPad,CuDef*%
G36*
G01*
X156236380Y-116127980D02*
X156236380Y-116327980D01*
G75*
G02*
X156136380Y-116427980I-100000J0D01*
G01*
X154861380Y-116427980D01*
G75*
G02*
X154761380Y-116327980I0J100000D01*
G01*
X154761380Y-116127980D01*
G75*
G02*
X154861380Y-116027980I100000J0D01*
G01*
X156136380Y-116027980D01*
G75*
G02*
X156236380Y-116127980I0J-100000D01*
G01*
G37*
%TD.AperFunction*%
%TO.P,U8,22*%
%TO.N,Net-(J12-Pad3)*%
%TA.AperFunction,SMDPad,CuDef*%
G36*
G01*
X156236380Y-116777980D02*
X156236380Y-116977980D01*
G75*
G02*
X156136380Y-117077980I-100000J0D01*
G01*
X154861380Y-117077980D01*
G75*
G02*
X154761380Y-116977980I0J100000D01*
G01*
X154761380Y-116777980D01*
G75*
G02*
X154861380Y-116677980I100000J0D01*
G01*
X156136380Y-116677980D01*
G75*
G02*
X156236380Y-116777980I0J-100000D01*
G01*
G37*
%TD.AperFunction*%
%TO.P,U8,23*%
%TO.N,GND3*%
%TA.AperFunction,SMDPad,CuDef*%
G36*
G01*
X156236380Y-117427980D02*
X156236380Y-117627980D01*
G75*
G02*
X156136380Y-117727980I-100000J0D01*
G01*
X154861380Y-117727980D01*
G75*
G02*
X154761380Y-117627980I0J100000D01*
G01*
X154761380Y-117427980D01*
G75*
G02*
X154861380Y-117327980I100000J0D01*
G01*
X156136380Y-117327980D01*
G75*
G02*
X156236380Y-117427980I0J-100000D01*
G01*
G37*
%TD.AperFunction*%
%TO.P,U8,24*%
%TO.N,Net-(R9-Pad1)*%
%TA.AperFunction,SMDPad,CuDef*%
G36*
G01*
X156236380Y-118077980D02*
X156236380Y-118277980D01*
G75*
G02*
X156136380Y-118377980I-100000J0D01*
G01*
X154861380Y-118377980D01*
G75*
G02*
X154761380Y-118277980I0J100000D01*
G01*
X154761380Y-118077980D01*
G75*
G02*
X154861380Y-117977980I100000J0D01*
G01*
X156136380Y-117977980D01*
G75*
G02*
X156236380Y-118077980I0J-100000D01*
G01*
G37*
%TD.AperFunction*%
%TO.P,U8,25*%
%TO.N,Net-(R10-Pad1)*%
%TA.AperFunction,SMDPad,CuDef*%
G36*
G01*
X156236380Y-118727980D02*
X156236380Y-118927980D01*
G75*
G02*
X156136380Y-119027980I-100000J0D01*
G01*
X154861380Y-119027980D01*
G75*
G02*
X154761380Y-118927980I0J100000D01*
G01*
X154761380Y-118727980D01*
G75*
G02*
X154861380Y-118627980I100000J0D01*
G01*
X156136380Y-118627980D01*
G75*
G02*
X156236380Y-118727980I0J-100000D01*
G01*
G37*
%TD.AperFunction*%
%TO.P,U8,26*%
%TO.N,3V3_FT260*%
%TA.AperFunction,SMDPad,CuDef*%
G36*
G01*
X156236380Y-119377980D02*
X156236380Y-119577980D01*
G75*
G02*
X156136380Y-119677980I-100000J0D01*
G01*
X154861380Y-119677980D01*
G75*
G02*
X154761380Y-119577980I0J100000D01*
G01*
X154761380Y-119377980D01*
G75*
G02*
X154861380Y-119277980I100000J0D01*
G01*
X156136380Y-119277980D01*
G75*
G02*
X156236380Y-119377980I0J-100000D01*
G01*
G37*
%TD.AperFunction*%
%TO.P,U8,27*%
%TO.N,Net-(C13-Pad1)*%
%TA.AperFunction,SMDPad,CuDef*%
G36*
G01*
X156236380Y-120027980D02*
X156236380Y-120227980D01*
G75*
G02*
X156136380Y-120327980I-100000J0D01*
G01*
X154861380Y-120327980D01*
G75*
G02*
X154761380Y-120227980I0J100000D01*
G01*
X154761380Y-120027980D01*
G75*
G02*
X154861380Y-119927980I100000J0D01*
G01*
X156136380Y-119927980D01*
G75*
G02*
X156236380Y-120027980I0J-100000D01*
G01*
G37*
%TD.AperFunction*%
%TO.P,U8,28*%
%TO.N,GND3*%
%TA.AperFunction,SMDPad,CuDef*%
G36*
G01*
X156236380Y-120677980D02*
X156236380Y-120877980D01*
G75*
G02*
X156136380Y-120977980I-100000J0D01*
G01*
X154861380Y-120977980D01*
G75*
G02*
X154761380Y-120877980I0J100000D01*
G01*
X154761380Y-120677980D01*
G75*
G02*
X154861380Y-120577980I100000J0D01*
G01*
X156136380Y-120577980D01*
G75*
G02*
X156236380Y-120677980I0J-100000D01*
G01*
G37*
%TD.AperFunction*%
%TD*%
%TO.P,U9,1*%
%TO.N,GND2*%
%TA.AperFunction,SMDPad,CuDef*%
G36*
G01*
X198042980Y-155632580D02*
X198042980Y-155882580D01*
G75*
G02*
X197917980Y-156007580I-125000J0D01*
G01*
X196667980Y-156007580D01*
G75*
G02*
X196542980Y-155882580I0J125000D01*
G01*
X196542980Y-155632580D01*
G75*
G02*
X196667980Y-155507580I125000J0D01*
G01*
X197917980Y-155507580D01*
G75*
G02*
X198042980Y-155632580I0J-125000D01*
G01*
G37*
%TD.AperFunction*%
%TO.P,U9,2*%
%TO.N,Net-(C14-Pad1)*%
%TA.AperFunction,SMDPad,CuDef*%
G36*
G01*
X198042980Y-154832580D02*
X198042980Y-155082580D01*
G75*
G02*
X197917980Y-155207580I-125000J0D01*
G01*
X196667980Y-155207580D01*
G75*
G02*
X196542980Y-155082580I0J125000D01*
G01*
X196542980Y-154832580D01*
G75*
G02*
X196667980Y-154707580I125000J0D01*
G01*
X197917980Y-154707580D01*
G75*
G02*
X198042980Y-154832580I0J-125000D01*
G01*
G37*
%TD.AperFunction*%
%TO.P,U9,3*%
%TO.N,Net-(C11-Pad1)*%
%TA.AperFunction,SMDPad,CuDef*%
G36*
G01*
X198042980Y-154032580D02*
X198042980Y-154282580D01*
G75*
G02*
X197917980Y-154407580I-125000J0D01*
G01*
X196667980Y-154407580D01*
G75*
G02*
X196542980Y-154282580I0J125000D01*
G01*
X196542980Y-154032580D01*
G75*
G02*
X196667980Y-153907580I125000J0D01*
G01*
X197917980Y-153907580D01*
G75*
G02*
X198042980Y-154032580I0J-125000D01*
G01*
G37*
%TD.AperFunction*%
%TO.P,U9,4*%
%TO.N,Net-(C8-Pad1)*%
%TA.AperFunction,SMDPad,CuDef*%
G36*
G01*
X198042980Y-153232580D02*
X198042980Y-153482580D01*
G75*
G02*
X197917980Y-153607580I-125000J0D01*
G01*
X196667980Y-153607580D01*
G75*
G02*
X196542980Y-153482580I0J125000D01*
G01*
X196542980Y-153232580D01*
G75*
G02*
X196667980Y-153107580I125000J0D01*
G01*
X197917980Y-153107580D01*
G75*
G02*
X198042980Y-153232580I0J-125000D01*
G01*
G37*
%TD.AperFunction*%
%TO.P,U9,5*%
%TO.N,Net-(C10-Pad1)*%
%TA.AperFunction,SMDPad,CuDef*%
G36*
G01*
X198042980Y-152432580D02*
X198042980Y-152682580D01*
G75*
G02*
X197917980Y-152807580I-125000J0D01*
G01*
X196667980Y-152807580D01*
G75*
G02*
X196542980Y-152682580I0J125000D01*
G01*
X196542980Y-152432580D01*
G75*
G02*
X196667980Y-152307580I125000J0D01*
G01*
X197917980Y-152307580D01*
G75*
G02*
X198042980Y-152432580I0J-125000D01*
G01*
G37*
%TD.AperFunction*%
%TO.P,U9,6*%
%TO.N,GND2*%
%TA.AperFunction,SMDPad,CuDef*%
G36*
G01*
X198042980Y-151632580D02*
X198042980Y-151882580D01*
G75*
G02*
X197917980Y-152007580I-125000J0D01*
G01*
X196667980Y-152007580D01*
G75*
G02*
X196542980Y-151882580I0J125000D01*
G01*
X196542980Y-151632580D01*
G75*
G02*
X196667980Y-151507580I125000J0D01*
G01*
X197917980Y-151507580D01*
G75*
G02*
X198042980Y-151632580I0J-125000D01*
G01*
G37*
%TD.AperFunction*%
%TO.P,U9,7*%
%TO.N,Net-(C11-Pad1)*%
%TA.AperFunction,SMDPad,CuDef*%
G36*
G01*
X198042980Y-150832580D02*
X198042980Y-151082580D01*
G75*
G02*
X197917980Y-151207580I-125000J0D01*
G01*
X196667980Y-151207580D01*
G75*
G02*
X196542980Y-151082580I0J125000D01*
G01*
X196542980Y-150832580D01*
G75*
G02*
X196667980Y-150707580I125000J0D01*
G01*
X197917980Y-150707580D01*
G75*
G02*
X198042980Y-150832580I0J-125000D01*
G01*
G37*
%TD.AperFunction*%
%TO.P,U9,8*%
%TO.N,GND2*%
%TA.AperFunction,SMDPad,CuDef*%
G36*
G01*
X198042980Y-150032580D02*
X198042980Y-150282580D01*
G75*
G02*
X197917980Y-150407580I-125000J0D01*
G01*
X196667980Y-150407580D01*
G75*
G02*
X196542980Y-150282580I0J125000D01*
G01*
X196542980Y-150032580D01*
G75*
G02*
X196667980Y-149907580I125000J0D01*
G01*
X197917980Y-149907580D01*
G75*
G02*
X198042980Y-150032580I0J-125000D01*
G01*
G37*
%TD.AperFunction*%
%TO.P,U9,9*%
%TO.N,Net-(C14-Pad1)*%
%TA.AperFunction,SMDPad,CuDef*%
G36*
G01*
X196167980Y-148157580D02*
X196167980Y-149407580D01*
G75*
G02*
X196042980Y-149532580I-125000J0D01*
G01*
X195792980Y-149532580D01*
G75*
G02*
X195667980Y-149407580I0J125000D01*
G01*
X195667980Y-148157580D01*
G75*
G02*
X195792980Y-148032580I125000J0D01*
G01*
X196042980Y-148032580D01*
G75*
G02*
X196167980Y-148157580I0J-125000D01*
G01*
G37*
%TD.AperFunction*%
%TO.P,U9,10*%
%TA.AperFunction,SMDPad,CuDef*%
G36*
G01*
X195367980Y-148157580D02*
X195367980Y-149407580D01*
G75*
G02*
X195242980Y-149532580I-125000J0D01*
G01*
X194992980Y-149532580D01*
G75*
G02*
X194867980Y-149407580I0J125000D01*
G01*
X194867980Y-148157580D01*
G75*
G02*
X194992980Y-148032580I125000J0D01*
G01*
X195242980Y-148032580D01*
G75*
G02*
X195367980Y-148157580I0J-125000D01*
G01*
G37*
%TD.AperFunction*%
%TO.P,U9,11*%
%TO.N,Net-(U9-Pad11)*%
%TA.AperFunction,SMDPad,CuDef*%
G36*
G01*
X194567980Y-148157580D02*
X194567980Y-149407580D01*
G75*
G02*
X194442980Y-149532580I-125000J0D01*
G01*
X194192980Y-149532580D01*
G75*
G02*
X194067980Y-149407580I0J125000D01*
G01*
X194067980Y-148157580D01*
G75*
G02*
X194192980Y-148032580I125000J0D01*
G01*
X194442980Y-148032580D01*
G75*
G02*
X194567980Y-148157580I0J-125000D01*
G01*
G37*
%TD.AperFunction*%
%TO.P,U9,12*%
%TO.N,Net-(U9-Pad12)*%
%TA.AperFunction,SMDPad,CuDef*%
G36*
G01*
X193767980Y-148157580D02*
X193767980Y-149407580D01*
G75*
G02*
X193642980Y-149532580I-125000J0D01*
G01*
X193392980Y-149532580D01*
G75*
G02*
X193267980Y-149407580I0J125000D01*
G01*
X193267980Y-148157580D01*
G75*
G02*
X193392980Y-148032580I125000J0D01*
G01*
X193642980Y-148032580D01*
G75*
G02*
X193767980Y-148157580I0J-125000D01*
G01*
G37*
%TD.AperFunction*%
%TO.P,U9,13*%
%TO.N,Net-(C14-Pad1)*%
%TA.AperFunction,SMDPad,CuDef*%
G36*
G01*
X192967980Y-148157580D02*
X192967980Y-149407580D01*
G75*
G02*
X192842980Y-149532580I-125000J0D01*
G01*
X192592980Y-149532580D01*
G75*
G02*
X192467980Y-149407580I0J125000D01*
G01*
X192467980Y-148157580D01*
G75*
G02*
X192592980Y-148032580I125000J0D01*
G01*
X192842980Y-148032580D01*
G75*
G02*
X192967980Y-148157580I0J-125000D01*
G01*
G37*
%TD.AperFunction*%
%TO.P,U9,14*%
%TO.N,GND2*%
%TA.AperFunction,SMDPad,CuDef*%
G36*
G01*
X192167980Y-148157580D02*
X192167980Y-149407580D01*
G75*
G02*
X192042980Y-149532580I-125000J0D01*
G01*
X191792980Y-149532580D01*
G75*
G02*
X191667980Y-149407580I0J125000D01*
G01*
X191667980Y-148157580D01*
G75*
G02*
X191792980Y-148032580I125000J0D01*
G01*
X192042980Y-148032580D01*
G75*
G02*
X192167980Y-148157580I0J-125000D01*
G01*
G37*
%TD.AperFunction*%
%TO.P,U9,15*%
%TA.AperFunction,SMDPad,CuDef*%
G36*
G01*
X191367980Y-148157580D02*
X191367980Y-149407580D01*
G75*
G02*
X191242980Y-149532580I-125000J0D01*
G01*
X190992980Y-149532580D01*
G75*
G02*
X190867980Y-149407580I0J125000D01*
G01*
X190867980Y-148157580D01*
G75*
G02*
X190992980Y-148032580I125000J0D01*
G01*
X191242980Y-148032580D01*
G75*
G02*
X191367980Y-148157580I0J-125000D01*
G01*
G37*
%TD.AperFunction*%
%TO.P,U9,16*%
%TA.AperFunction,SMDPad,CuDef*%
G36*
G01*
X190567980Y-148157580D02*
X190567980Y-149407580D01*
G75*
G02*
X190442980Y-149532580I-125000J0D01*
G01*
X190192980Y-149532580D01*
G75*
G02*
X190067980Y-149407580I0J125000D01*
G01*
X190067980Y-148157580D01*
G75*
G02*
X190192980Y-148032580I125000J0D01*
G01*
X190442980Y-148032580D01*
G75*
G02*
X190567980Y-148157580I0J-125000D01*
G01*
G37*
%TD.AperFunction*%
%TO.P,U9,17*%
%TO.N,Net-(R8-Pad1)*%
%TA.AperFunction,SMDPad,CuDef*%
G36*
G01*
X189692980Y-150032580D02*
X189692980Y-150282580D01*
G75*
G02*
X189567980Y-150407580I-125000J0D01*
G01*
X188317980Y-150407580D01*
G75*
G02*
X188192980Y-150282580I0J125000D01*
G01*
X188192980Y-150032580D01*
G75*
G02*
X188317980Y-149907580I125000J0D01*
G01*
X189567980Y-149907580D01*
G75*
G02*
X189692980Y-150032580I0J-125000D01*
G01*
G37*
%TD.AperFunction*%
%TO.P,U9,18*%
%TO.N,Net-(R7-Pad1)*%
%TA.AperFunction,SMDPad,CuDef*%
G36*
G01*
X189692980Y-150832580D02*
X189692980Y-151082580D01*
G75*
G02*
X189567980Y-151207580I-125000J0D01*
G01*
X188317980Y-151207580D01*
G75*
G02*
X188192980Y-151082580I0J125000D01*
G01*
X188192980Y-150832580D01*
G75*
G02*
X188317980Y-150707580I125000J0D01*
G01*
X189567980Y-150707580D01*
G75*
G02*
X189692980Y-150832580I0J-125000D01*
G01*
G37*
%TD.AperFunction*%
%TO.P,U9,19*%
%TO.N,GND2*%
%TA.AperFunction,SMDPad,CuDef*%
G36*
G01*
X189692980Y-151632580D02*
X189692980Y-151882580D01*
G75*
G02*
X189567980Y-152007580I-125000J0D01*
G01*
X188317980Y-152007580D01*
G75*
G02*
X188192980Y-151882580I0J125000D01*
G01*
X188192980Y-151632580D01*
G75*
G02*
X188317980Y-151507580I125000J0D01*
G01*
X189567980Y-151507580D01*
G75*
G02*
X189692980Y-151632580I0J-125000D01*
G01*
G37*
%TD.AperFunction*%
%TO.P,U9,20*%
%TO.N,Net-(U9-Pad20)*%
%TA.AperFunction,SMDPad,CuDef*%
G36*
G01*
X189692980Y-152432580D02*
X189692980Y-152682580D01*
G75*
G02*
X189567980Y-152807580I-125000J0D01*
G01*
X188317980Y-152807580D01*
G75*
G02*
X188192980Y-152682580I0J125000D01*
G01*
X188192980Y-152432580D01*
G75*
G02*
X188317980Y-152307580I125000J0D01*
G01*
X189567980Y-152307580D01*
G75*
G02*
X189692980Y-152432580I0J-125000D01*
G01*
G37*
%TD.AperFunction*%
%TO.P,U9,21*%
%TO.N,Net-(U9-Pad21)*%
%TA.AperFunction,SMDPad,CuDef*%
G36*
G01*
X189692980Y-153232580D02*
X189692980Y-153482580D01*
G75*
G02*
X189567980Y-153607580I-125000J0D01*
G01*
X188317980Y-153607580D01*
G75*
G02*
X188192980Y-153482580I0J125000D01*
G01*
X188192980Y-153232580D01*
G75*
G02*
X188317980Y-153107580I125000J0D01*
G01*
X189567980Y-153107580D01*
G75*
G02*
X189692980Y-153232580I0J-125000D01*
G01*
G37*
%TD.AperFunction*%
%TO.P,U9,22*%
%TO.N,Net-(C14-Pad1)*%
%TA.AperFunction,SMDPad,CuDef*%
G36*
G01*
X189692980Y-154032580D02*
X189692980Y-154282580D01*
G75*
G02*
X189567980Y-154407580I-125000J0D01*
G01*
X188317980Y-154407580D01*
G75*
G02*
X188192980Y-154282580I0J125000D01*
G01*
X188192980Y-154032580D01*
G75*
G02*
X188317980Y-153907580I125000J0D01*
G01*
X189567980Y-153907580D01*
G75*
G02*
X189692980Y-154032580I0J-125000D01*
G01*
G37*
%TD.AperFunction*%
%TO.P,U9,23*%
%TO.N,Net-(J13-Pad5)*%
%TA.AperFunction,SMDPad,CuDef*%
G36*
G01*
X189692980Y-154832580D02*
X189692980Y-155082580D01*
G75*
G02*
X189567980Y-155207580I-125000J0D01*
G01*
X188317980Y-155207580D01*
G75*
G02*
X188192980Y-155082580I0J125000D01*
G01*
X188192980Y-154832580D01*
G75*
G02*
X188317980Y-154707580I125000J0D01*
G01*
X189567980Y-154707580D01*
G75*
G02*
X189692980Y-154832580I0J-125000D01*
G01*
G37*
%TD.AperFunction*%
%TO.P,U9,24*%
%TO.N,Net-(J13-Pad4)*%
%TA.AperFunction,SMDPad,CuDef*%
G36*
G01*
X189692980Y-155632580D02*
X189692980Y-155882580D01*
G75*
G02*
X189567980Y-156007580I-125000J0D01*
G01*
X188317980Y-156007580D01*
G75*
G02*
X188192980Y-155882580I0J125000D01*
G01*
X188192980Y-155632580D01*
G75*
G02*
X188317980Y-155507580I125000J0D01*
G01*
X189567980Y-155507580D01*
G75*
G02*
X189692980Y-155632580I0J-125000D01*
G01*
G37*
%TD.AperFunction*%
%TO.P,U9,25*%
%TO.N,Net-(J13-Pad3)*%
%TA.AperFunction,SMDPad,CuDef*%
G36*
G01*
X190567980Y-156507580D02*
X190567980Y-157757580D01*
G75*
G02*
X190442980Y-157882580I-125000J0D01*
G01*
X190192980Y-157882580D01*
G75*
G02*
X190067980Y-157757580I0J125000D01*
G01*
X190067980Y-156507580D01*
G75*
G02*
X190192980Y-156382580I125000J0D01*
G01*
X190442980Y-156382580D01*
G75*
G02*
X190567980Y-156507580I0J-125000D01*
G01*
G37*
%TD.AperFunction*%
%TO.P,U9,26*%
%TO.N,Net-(J13-Pad2)*%
%TA.AperFunction,SMDPad,CuDef*%
G36*
G01*
X191367980Y-156507580D02*
X191367980Y-157757580D01*
G75*
G02*
X191242980Y-157882580I-125000J0D01*
G01*
X190992980Y-157882580D01*
G75*
G02*
X190867980Y-157757580I0J125000D01*
G01*
X190867980Y-156507580D01*
G75*
G02*
X190992980Y-156382580I125000J0D01*
G01*
X191242980Y-156382580D01*
G75*
G02*
X191367980Y-156507580I0J-125000D01*
G01*
G37*
%TD.AperFunction*%
%TO.P,U9,27*%
%TO.N,GND2*%
%TA.AperFunction,SMDPad,CuDef*%
G36*
G01*
X192167980Y-156507580D02*
X192167980Y-157757580D01*
G75*
G02*
X192042980Y-157882580I-125000J0D01*
G01*
X191792980Y-157882580D01*
G75*
G02*
X191667980Y-157757580I0J125000D01*
G01*
X191667980Y-156507580D01*
G75*
G02*
X191792980Y-156382580I125000J0D01*
G01*
X192042980Y-156382580D01*
G75*
G02*
X192167980Y-156507580I0J-125000D01*
G01*
G37*
%TD.AperFunction*%
%TO.P,U9,28*%
%TO.N,Net-(C14-Pad1)*%
%TA.AperFunction,SMDPad,CuDef*%
G36*
G01*
X192967980Y-156507580D02*
X192967980Y-157757580D01*
G75*
G02*
X192842980Y-157882580I-125000J0D01*
G01*
X192592980Y-157882580D01*
G75*
G02*
X192467980Y-157757580I0J125000D01*
G01*
X192467980Y-156507580D01*
G75*
G02*
X192592980Y-156382580I125000J0D01*
G01*
X192842980Y-156382580D01*
G75*
G02*
X192967980Y-156507580I0J-125000D01*
G01*
G37*
%TD.AperFunction*%
%TO.P,U9,29*%
%TO.N,Net-(R12-Pad1)*%
%TA.AperFunction,SMDPad,CuDef*%
G36*
G01*
X193767980Y-156507580D02*
X193767980Y-157757580D01*
G75*
G02*
X193642980Y-157882580I-125000J0D01*
G01*
X193392980Y-157882580D01*
G75*
G02*
X193267980Y-157757580I0J125000D01*
G01*
X193267980Y-156507580D01*
G75*
G02*
X193392980Y-156382580I125000J0D01*
G01*
X193642980Y-156382580D01*
G75*
G02*
X193767980Y-156507580I0J-125000D01*
G01*
G37*
%TD.AperFunction*%
%TO.P,U9,30*%
%TO.N,Net-(U9-Pad30)*%
%TA.AperFunction,SMDPad,CuDef*%
G36*
G01*
X194567980Y-156507580D02*
X194567980Y-157757580D01*
G75*
G02*
X194442980Y-157882580I-125000J0D01*
G01*
X194192980Y-157882580D01*
G75*
G02*
X194067980Y-157757580I0J125000D01*
G01*
X194067980Y-156507580D01*
G75*
G02*
X194192980Y-156382580I125000J0D01*
G01*
X194442980Y-156382580D01*
G75*
G02*
X194567980Y-156507580I0J-125000D01*
G01*
G37*
%TD.AperFunction*%
%TO.P,U9,31*%
%TO.N,Net-(U9-Pad31)*%
%TA.AperFunction,SMDPad,CuDef*%
G36*
G01*
X195367980Y-156507580D02*
X195367980Y-157757580D01*
G75*
G02*
X195242980Y-157882580I-125000J0D01*
G01*
X194992980Y-157882580D01*
G75*
G02*
X194867980Y-157757580I0J125000D01*
G01*
X194867980Y-156507580D01*
G75*
G02*
X194992980Y-156382580I125000J0D01*
G01*
X195242980Y-156382580D01*
G75*
G02*
X195367980Y-156507580I0J-125000D01*
G01*
G37*
%TD.AperFunction*%
%TO.P,U9,32*%
%TO.N,Net-(D2-Pad1)*%
%TA.AperFunction,SMDPad,CuDef*%
G36*
G01*
X196167980Y-156507580D02*
X196167980Y-157757580D01*
G75*
G02*
X196042980Y-157882580I-125000J0D01*
G01*
X195792980Y-157882580D01*
G75*
G02*
X195667980Y-157757580I0J125000D01*
G01*
X195667980Y-156507580D01*
G75*
G02*
X195792980Y-156382580I125000J0D01*
G01*
X196042980Y-156382580D01*
G75*
G02*
X196167980Y-156507580I0J-125000D01*
G01*
G37*
%TD.AperFunction*%
%TD*%
D23*
%TO.P,XTAL1,1*%
%TO.N,Net-(C8-Pad1)*%
X186031640Y-166202360D03*
%TO.P,XTAL1,2*%
%TO.N,Net-(C10-Pad1)*%
X197906640Y-166202360D03*
%TD*%
D24*
%TO.N,ESP_IO0*%
X188777880Y-111315500D03*
%TO.N,ESP_EN*%
X186799220Y-122991880D03*
%TO.N,GND2*%
X193771520Y-154907580D03*
X193743580Y-153182320D03*
%TO.N,GND3*%
X156870400Y-118394480D03*
X156888180Y-120228360D03*
%TO.N,Net-(C8-Pad1)*%
X203017120Y-150266400D03*
X177500280Y-166217600D03*
%TO.N,Net-(C10-Pad1)*%
X201836020Y-152214250D03*
X206552800Y-166044880D03*
%TO.N,Net-(C11-Pad1)*%
X204071220Y-153588720D03*
X195737480Y-153588720D03*
%TO.N,Net-(D1-Pad1)*%
X148497410Y-135195190D03*
%TO.N,Net-(D1-Pad3)*%
X147527200Y-137283000D03*
%TO.N,Net-(D1-Pad4)*%
X148945600Y-138663202D03*
%TO.N,Net-(J12-Pad3)*%
X156954220Y-117129560D03*
%TO.N,Net-(J12-Pad4)*%
X157838140Y-116332700D03*
%TO.N,Net-(J12-Pad5)*%
X156989780Y-115582700D03*
%TO.N,Net-(J13-Pad2)*%
X189250320Y-158295340D03*
%TO.N,Net-(J13-Pad3)*%
X189207140Y-157147260D03*
%TO.N,Net-(J13-Pad4)*%
X187337700Y-155803600D03*
%TO.N,Net-(J13-Pad5)*%
X186801760Y-154955240D03*
%TO.N,Net-(C13-Pad1)*%
X153819860Y-113413540D03*
X153819860Y-119684800D03*
%TD*%
D25*
%TO.N,ESP_IO0*%
X192726820Y-111398600D02*
X192623440Y-111295220D01*
X192726820Y-115788440D02*
X192726820Y-111398600D01*
X190495520Y-111295220D02*
X190492380Y-111298360D01*
X192623440Y-111295220D02*
X190495520Y-111295220D01*
X188795020Y-111298360D02*
X188777880Y-111315500D01*
X190492380Y-111298360D02*
X188795020Y-111298360D01*
X227789000Y-122376460D02*
X226274000Y-122376460D01*
X228328220Y-122915680D02*
X227789000Y-122376460D01*
X228658420Y-127502920D02*
X228328220Y-127172720D01*
X230030020Y-127502920D02*
X228658420Y-127502920D01*
X228328220Y-127172720D02*
X228328220Y-122915680D01*
X230535480Y-128008380D02*
X230030020Y-127502920D01*
X230535480Y-132232400D02*
X230535480Y-128008380D01*
X230936800Y-132633720D02*
X230535480Y-132232400D01*
X233210100Y-132633720D02*
X230936800Y-132633720D01*
%TO.N,GND*%
X190944500Y-125887480D02*
X190944500Y-124866440D01*
X190736220Y-126095760D02*
X190944500Y-125887480D01*
X192623440Y-109395220D02*
X192623440Y-105844340D01*
X192623440Y-105844340D02*
X192229740Y-105450640D01*
X192229740Y-105450640D02*
X181373780Y-105450640D01*
X181373780Y-105450640D02*
X180670200Y-106154220D01*
X180670200Y-106154220D02*
X180670200Y-119286020D01*
X181416960Y-120032780D02*
X183779160Y-120032780D01*
X180670200Y-119286020D02*
X181416960Y-120032780D01*
X212059000Y-123376460D02*
X212059000Y-128125740D01*
X212059000Y-128125740D02*
X211485480Y-128699260D01*
X211485480Y-128699260D02*
X206849980Y-128699260D01*
X206049880Y-129499360D02*
X206049880Y-132727700D01*
X206849980Y-128699260D02*
X206049880Y-129499360D01*
X212059000Y-123376460D02*
X212059000Y-114292900D01*
X212059000Y-114292900D02*
X212534500Y-113817400D01*
X212534500Y-113817400D02*
X212534500Y-113781840D01*
X212949880Y-113366460D02*
X216774000Y-113366460D01*
X212534500Y-113781840D02*
X212949880Y-113366460D01*
X209274000Y-105866460D02*
X207039740Y-105866460D01*
X207039740Y-105866460D02*
X206720440Y-105547160D01*
X206720440Y-105547160D02*
X206720440Y-100319840D01*
X206128620Y-99728020D02*
X201340720Y-99728020D01*
X206720440Y-100319840D02*
X206128620Y-99728020D01*
X226274000Y-105866460D02*
X228158780Y-105866460D01*
X228158780Y-105866460D02*
X228615240Y-105410000D01*
X228615240Y-105410000D02*
X228615240Y-100236020D01*
X229237540Y-99613720D02*
X233210100Y-99613720D01*
X228615240Y-100236020D02*
X229237540Y-99613720D01*
X226274000Y-105866460D02*
X223988100Y-105866460D01*
X223988100Y-105866460D02*
X223319340Y-106535220D01*
X223319340Y-106535220D02*
X223319340Y-112560100D01*
X222512980Y-113366460D02*
X216774000Y-113366460D01*
X223319340Y-112560100D02*
X222512980Y-113366460D01*
X209274000Y-105866460D02*
X216325980Y-105866460D01*
X216774000Y-106314480D02*
X216774000Y-113366460D01*
X216325980Y-105866460D02*
X216774000Y-106314480D01*
D26*
X206049880Y-132727700D02*
X206049880Y-134701280D01*
X206049880Y-134701280D02*
X185039000Y-134701280D01*
X185039000Y-134701280D02*
X183779160Y-133441440D01*
D25*
X183794400Y-126095760D02*
X183779160Y-126080520D01*
X190736220Y-126095760D02*
X183794400Y-126095760D01*
D26*
X183779160Y-126080520D02*
X183779160Y-120032780D01*
X183779160Y-133441440D02*
X183779160Y-126080520D01*
D25*
%TO.N,ESP_EN*%
X192726820Y-121065780D02*
X192722500Y-121070100D01*
X192726820Y-119585740D02*
X192726820Y-121065780D01*
X192722500Y-121070100D02*
X192722500Y-122666760D01*
X192422820Y-122966440D02*
X190944500Y-122966440D01*
X192722500Y-122666760D02*
X192422820Y-122966440D01*
X188433740Y-122966440D02*
X188414660Y-122985520D01*
X190944500Y-122966440D02*
X188433740Y-122966440D01*
X186805580Y-122985520D02*
X186799220Y-122991880D01*
X188414660Y-122985520D02*
X186805580Y-122985520D01*
X209274000Y-108406460D02*
X205668140Y-108406460D01*
X205668140Y-108406460D02*
X205285340Y-108023660D01*
X205285340Y-108023660D02*
X205285340Y-105100120D01*
X204993240Y-104808020D02*
X201340720Y-104808020D01*
X205285340Y-105100120D02*
X204993240Y-104808020D01*
%TO.N,GND2*%
X179270660Y-157530800D02*
X180362860Y-157530800D01*
X180974960Y-156918700D02*
X182321200Y-156918700D01*
X180362860Y-157530800D02*
X180974960Y-156918700D01*
X182397360Y-156842540D02*
X182321200Y-156918700D01*
X184566560Y-156842540D02*
X182397360Y-156842540D01*
X186184540Y-143637000D02*
X186264780Y-143556760D01*
X183776620Y-143637000D02*
X186184540Y-143637000D01*
X186264780Y-143556760D02*
X186264780Y-144269460D01*
X186264780Y-142999460D02*
X186264780Y-143556760D01*
X193812160Y-143692880D02*
X193768980Y-143736060D01*
X196225160Y-143692880D02*
X193812160Y-143692880D01*
X177589180Y-156946600D02*
X178173380Y-157530800D01*
X177954940Y-140850620D02*
X177589180Y-141216380D01*
X193768980Y-141239240D02*
X193380360Y-140850620D01*
X178173380Y-157530800D02*
X179270660Y-157530800D01*
X193768980Y-143736060D02*
X193768980Y-141239240D01*
X177639980Y-143637000D02*
X177589180Y-143687800D01*
X183776620Y-143637000D02*
X177639980Y-143637000D01*
X177589180Y-143687800D02*
X177589180Y-156946600D01*
X177589180Y-141216380D02*
X177589180Y-143687800D01*
X188932820Y-140850620D02*
X177954940Y-140850620D01*
X193380360Y-140850620D02*
X188932820Y-140850620D01*
X197292980Y-150157580D02*
X198325340Y-150157580D01*
X198325340Y-150157580D02*
X198493380Y-149989540D01*
X198493380Y-149989540D02*
X198493380Y-149110700D01*
X198607680Y-148996400D02*
X199788780Y-148996400D01*
X198493380Y-149110700D02*
X198607680Y-148996400D01*
X179270660Y-159557720D02*
X179270660Y-157530800D01*
X179694840Y-159981900D02*
X179270660Y-159557720D01*
X204965300Y-161457640D02*
X207751680Y-161457640D01*
X180263800Y-159994600D02*
X180251100Y-159981900D01*
X180251100Y-159981900D02*
X179694840Y-159981900D01*
X187124340Y-161043620D02*
X187124340Y-159981900D01*
X192675970Y-158853330D02*
X192675970Y-160948830D01*
X187317380Y-161236660D02*
X187124340Y-161043620D01*
X192537080Y-158714440D02*
X192675970Y-158853330D01*
X192021460Y-158714440D02*
X192537080Y-158714440D01*
X191917980Y-158610960D02*
X192021460Y-158714440D01*
X191917980Y-157132580D02*
X191917980Y-158610960D01*
X192388140Y-161236660D02*
X187317380Y-161236660D01*
X192675970Y-160948830D02*
X192388140Y-161236660D01*
X187124340Y-159981900D02*
X180251100Y-159981900D01*
X188058820Y-159981900D02*
X187124340Y-159981900D01*
X197292980Y-150157580D02*
X196090140Y-150157580D01*
X195823640Y-150424080D02*
X195823640Y-151757580D01*
X196090140Y-150157580D02*
X195823640Y-150424080D01*
X195823640Y-151757580D02*
X197292980Y-151757580D01*
X190317980Y-148782580D02*
X190317980Y-151755700D01*
X190317980Y-151755700D02*
X190319860Y-151757580D01*
X188942980Y-151757580D02*
X190319860Y-151757580D01*
X191117980Y-151692500D02*
X191183060Y-151757580D01*
X191117980Y-148782580D02*
X191117980Y-151692500D01*
X190319860Y-151757580D02*
X191183060Y-151757580D01*
X191917980Y-151662740D02*
X191823140Y-151757580D01*
X191917980Y-148782580D02*
X191917980Y-151662740D01*
X191183060Y-151757580D02*
X191823140Y-151757580D01*
X188932820Y-146837400D02*
X188932820Y-140850620D01*
X189466220Y-147370800D02*
X188932820Y-146837400D01*
X191917980Y-147615300D02*
X191673480Y-147370800D01*
X191917980Y-148782580D02*
X191917980Y-147615300D01*
X190317980Y-147379280D02*
X190309500Y-147370800D01*
X190317980Y-148782580D02*
X190317980Y-147379280D01*
X190309500Y-147370800D02*
X189466220Y-147370800D01*
X191117980Y-147412200D02*
X191076580Y-147370800D01*
X191117980Y-148782580D02*
X191117980Y-147412200D01*
X191076580Y-147370800D02*
X190309500Y-147370800D01*
X191673480Y-147370800D02*
X191076580Y-147370800D01*
X197292980Y-155757580D02*
X194114120Y-155757580D01*
X193771520Y-155414980D02*
X193771520Y-154907580D01*
X194114120Y-155757580D02*
X193771520Y-155414980D01*
X193743580Y-151935180D02*
X193921180Y-151757580D01*
X193743580Y-153182320D02*
X193743580Y-151935180D01*
X193921180Y-151757580D02*
X195823640Y-151757580D01*
X191823140Y-151757580D02*
X193921180Y-151757580D01*
X204421740Y-162001200D02*
X204965300Y-161457640D01*
X204421740Y-164233860D02*
X204421740Y-162237420D01*
X204421740Y-162237420D02*
X204421740Y-162001200D01*
X179270660Y-161475420D02*
X179270660Y-159557720D01*
X180032660Y-162237420D02*
X179270660Y-161475420D01*
X180263800Y-162252660D02*
X180248560Y-162237420D01*
X180263800Y-164254140D02*
X180263800Y-162252660D01*
X180248560Y-162237420D02*
X180032660Y-162237420D01*
X204421740Y-162237420D02*
X180248560Y-162237420D01*
%TO.N,Net-(C3-Pad1)*%
X184671960Y-150543260D02*
X184233820Y-150543260D01*
X183925030Y-150852050D02*
X183925030Y-153742210D01*
X184233820Y-150543260D02*
X183925030Y-150852050D01*
X183925030Y-153742210D02*
X184048400Y-153865580D01*
X184048400Y-153865580D02*
X184325260Y-153865580D01*
X184566560Y-154106880D02*
X184566560Y-154942540D01*
X184325260Y-153865580D02*
X184566560Y-154106880D01*
X184566560Y-154942540D02*
X184566560Y-155659790D01*
X184233820Y-155992530D02*
X180841350Y-155992530D01*
X184566560Y-155659790D02*
X184233820Y-155992530D01*
X180841350Y-155992530D02*
X180654960Y-155806140D01*
X180654960Y-155806140D02*
X180654960Y-155183840D01*
X180461920Y-154990800D02*
X179270660Y-154990800D01*
X180654960Y-155183840D02*
X180461920Y-154990800D01*
%TO.N,Net-(C4-Pad1)*%
X182962540Y-152587960D02*
X182962540Y-153638260D01*
X182321200Y-154279600D02*
X182321200Y-155018700D01*
X182962540Y-153638260D02*
X182321200Y-154279600D01*
X182321200Y-155018700D02*
X181343260Y-155018700D01*
X181343260Y-155018700D02*
X181000400Y-154675840D01*
X181000400Y-154675840D02*
X181000400Y-152781000D01*
X180670200Y-152450800D02*
X179270660Y-152450800D01*
X181000400Y-152781000D02*
X180670200Y-152450800D01*
%TO.N,GND3*%
X156870400Y-118162000D02*
X156870400Y-118394480D01*
X156236380Y-117527980D02*
X156870400Y-118162000D01*
X155498880Y-117527980D02*
X156236380Y-117527980D01*
X155498880Y-120777980D02*
X156747500Y-120777980D01*
X156888180Y-120637300D02*
X156888180Y-120228360D01*
X156747500Y-120777980D02*
X156888180Y-120637300D01*
X161223880Y-116227980D02*
X166263440Y-116227980D01*
X166263440Y-116227980D02*
X166486840Y-116451380D01*
X166486840Y-116451380D02*
X166486840Y-122458480D01*
X166823241Y-122794881D02*
X169482621Y-122794881D01*
X166486840Y-122458480D02*
X166823241Y-122794881D01*
X169482621Y-122794881D02*
X169900600Y-123212860D01*
X169900600Y-123212860D02*
X169900600Y-126362460D01*
X169588180Y-126674880D02*
X168526460Y-126674880D01*
X169900600Y-126362460D02*
X169588180Y-126674880D01*
X150058080Y-111069080D02*
X150042880Y-111084280D01*
X152354280Y-111069080D02*
X150058080Y-111069080D01*
X151706580Y-108529120D02*
X151706580Y-105521760D01*
X151053800Y-109181900D02*
X151706580Y-108529120D01*
X143697960Y-109181900D02*
X151053800Y-109181900D01*
X142986760Y-109893100D02*
X143697960Y-109181900D01*
X143362680Y-126674880D02*
X142986760Y-126298960D01*
X168526460Y-126674880D02*
X143362680Y-126674880D01*
X143080660Y-111084280D02*
X142986760Y-110990380D01*
X150042880Y-111084280D02*
X143080660Y-111084280D01*
X142986760Y-110990380D02*
X142986760Y-109893100D01*
X149423080Y-121630480D02*
X149420580Y-121627980D01*
X151630380Y-121630480D02*
X149423080Y-121630480D01*
X149420580Y-121627980D02*
X147782360Y-121627980D01*
X147782360Y-121627980D02*
X147563840Y-121409460D01*
X147563840Y-121409460D02*
X147563840Y-121010680D01*
X147220940Y-120667780D02*
X145191480Y-120667780D01*
X147563840Y-121010680D02*
X147220940Y-120667780D01*
X145191480Y-120667780D02*
X143167100Y-120667780D01*
X143073120Y-120573800D02*
X142986760Y-120573800D01*
X143167100Y-120667780D02*
X143073120Y-120573800D01*
X142986760Y-120573800D02*
X142986760Y-110990380D01*
X142986760Y-126298960D02*
X142986760Y-120573800D01*
%TO.N,Net-(C7-Pad1)*%
X145191480Y-118127780D02*
X146649440Y-118127780D01*
X146649440Y-118127780D02*
X147035520Y-118513860D01*
X147035520Y-118513860D02*
X147035520Y-119481600D01*
X147281900Y-119727980D02*
X149420580Y-119727980D01*
X147035520Y-119481600D02*
X147281900Y-119727980D01*
X149420580Y-119727980D02*
X149420580Y-118125240D01*
X149735540Y-117810280D02*
X150618180Y-117810280D01*
X149420580Y-118125240D02*
X149735540Y-117810280D01*
%TO.N,Net-(C8-Pad1)*%
X185983420Y-166154140D02*
X186031640Y-166202360D01*
X180263800Y-166154140D02*
X185983420Y-166154140D01*
X197292980Y-153357580D02*
X198144400Y-153357580D01*
X198144400Y-153357580D02*
X198537730Y-152964250D01*
X198537730Y-152964250D02*
X202684010Y-152964250D01*
X202684010Y-152964250D02*
X203029820Y-152618440D01*
X203029820Y-152618440D02*
X203029820Y-150202900D01*
X203029820Y-150253700D02*
X203017120Y-150266400D01*
X203029820Y-150202900D02*
X203029820Y-150253700D01*
X180200340Y-166217600D02*
X180263800Y-166154140D01*
X177500280Y-166217600D02*
X180200340Y-166217600D01*
%TO.N,Net-(C9-Pad1)*%
X150489280Y-115587780D02*
X150667080Y-115409980D01*
X145191480Y-115587780D02*
X150489280Y-115587780D01*
X151630380Y-118534180D02*
X151498300Y-118402100D01*
X151630380Y-119730480D02*
X151630380Y-118534180D01*
X151498300Y-118402100D02*
X151498300Y-116961920D01*
X151498300Y-116961920D02*
X151229060Y-116692680D01*
X150667080Y-115409980D02*
X150667080Y-116587900D01*
X150771860Y-116692680D02*
X151229060Y-116692680D01*
X150667080Y-116587900D02*
X150771860Y-116692680D01*
%TO.N,Net-(C10-Pad1)*%
X197975140Y-166133860D02*
X197906640Y-166202360D01*
X204421740Y-166133860D02*
X197975140Y-166133860D01*
X197292980Y-152557580D02*
X198042980Y-152557580D01*
X198042980Y-152557580D02*
X198218340Y-152382220D01*
X198218340Y-152382220D02*
X201886820Y-152382220D01*
X201886820Y-152265050D02*
X201836020Y-152214250D01*
X201886820Y-152382220D02*
X201886820Y-152265050D01*
X204510720Y-166044880D02*
X204421740Y-166133860D01*
X206552800Y-166044880D02*
X204510720Y-166044880D01*
%TO.N,Net-(C11-Pad1)*%
X199727600Y-150957580D02*
X199788780Y-150896400D01*
X197292980Y-150957580D02*
X199727600Y-150957580D01*
X199788780Y-150896400D02*
X200992660Y-150896400D01*
X200992660Y-150896400D02*
X201361040Y-150528020D01*
X201361040Y-150528020D02*
X201361040Y-149509480D01*
X201361040Y-149509480D02*
X201538840Y-149331680D01*
X201538840Y-149331680D02*
X203603860Y-149331680D01*
X203603860Y-149331680D02*
X203748640Y-149331680D01*
X204071220Y-149654260D02*
X204071220Y-153588720D01*
X203748640Y-149331680D02*
X204071220Y-149654260D01*
X195737480Y-153588720D02*
X195737480Y-153997660D01*
X195897400Y-154157580D02*
X197292980Y-154157580D01*
X195737480Y-153997660D02*
X195897400Y-154157580D01*
D27*
%TO.N,Net-(D1-Pad1)*%
X153397990Y-137283200D02*
X153401790Y-137287000D01*
X150835400Y-137283200D02*
X153397990Y-137283200D01*
X153401790Y-137287000D02*
X153568400Y-137287000D01*
X153922790Y-136932610D02*
X153922790Y-135456990D01*
X153568400Y-137287000D02*
X153922790Y-136932610D01*
X153660990Y-135195190D02*
X148497410Y-135195190D01*
X153922790Y-135456990D02*
X153660990Y-135195190D01*
X148065610Y-135195190D02*
X147802600Y-135458200D01*
X147802600Y-135458200D02*
X147802600Y-136499600D01*
X146936410Y-136783000D02*
X145980200Y-136783000D01*
X147169010Y-136550400D02*
X146936410Y-136783000D01*
X147751800Y-136550400D02*
X147169010Y-136550400D01*
X147802600Y-136499600D02*
X147751800Y-136550400D01*
X150835400Y-137283200D02*
X150835400Y-138364000D01*
X151206200Y-138734800D02*
X152884500Y-138734800D01*
X150835400Y-138364000D02*
X151206200Y-138734800D01*
X148497410Y-135195190D02*
X148065610Y-135195190D01*
%TO.N,GND1*%
X149885400Y-139983200D02*
X149885400Y-137283200D01*
X145130200Y-134283000D02*
X144830200Y-133983000D01*
X145630200Y-134276400D02*
X145636800Y-134283000D01*
X145630200Y-132533000D02*
X145630200Y-134276400D01*
X145636800Y-134283000D02*
X145130200Y-134283000D01*
X145980200Y-134283000D02*
X145636800Y-134283000D01*
X145980200Y-139783000D02*
X145980200Y-139871400D01*
X145980200Y-139871400D02*
X145768600Y-140083000D01*
X145630200Y-141533000D02*
X145630200Y-140169200D01*
X145544000Y-140083000D02*
X144830200Y-140083000D01*
X145630200Y-140169200D02*
X145544000Y-140083000D01*
X145768600Y-140083000D02*
X145544000Y-140083000D01*
X145630200Y-141533000D02*
X149601800Y-141533000D01*
X149885400Y-141249400D02*
X149885400Y-139983200D01*
X149601800Y-141533000D02*
X149885400Y-141249400D01*
%TO.N,Net-(D1-Pad3)*%
X148935200Y-137283000D02*
X148935400Y-137283200D01*
X145980200Y-137283000D02*
X147527200Y-137283000D01*
X148935400Y-137283200D02*
X148935400Y-136357400D01*
X152893299Y-136178199D02*
X152935300Y-136220200D01*
X149114601Y-136178199D02*
X152893299Y-136178199D01*
X148935400Y-136357400D02*
X149114601Y-136178199D01*
X147527200Y-137283000D02*
X148935200Y-137283000D01*
%TO.N,Net-(D1-Pad4)*%
X144880200Y-138283000D02*
X145980200Y-138283000D01*
X144830200Y-138233000D02*
X144880200Y-138283000D01*
X144880200Y-135783000D02*
X145980200Y-135783000D01*
X144830200Y-135833000D02*
X144880200Y-135783000D01*
X145980200Y-138283000D02*
X147223800Y-138283000D01*
X147223800Y-138283000D02*
X147447000Y-138506200D01*
X147447000Y-138506200D02*
X147447000Y-139750800D01*
X147679400Y-139983200D02*
X148935400Y-139983200D01*
X147447000Y-139750800D02*
X147679400Y-139983200D01*
X148935400Y-139405400D02*
X148945600Y-139395200D01*
X148935400Y-139983200D02*
X148935400Y-139405400D01*
X148945600Y-139395200D02*
X148945600Y-138663202D01*
D25*
%TO.N,Net-(D2-Pad1)*%
X195917980Y-157132580D02*
X195917980Y-157990700D01*
X198658480Y-157835600D02*
X197810120Y-157835600D01*
X197810120Y-157835600D02*
X197810120Y-157861000D01*
X197810120Y-157861000D02*
X197655180Y-158015940D01*
X197655180Y-158015940D02*
X197655180Y-158249620D01*
X197655180Y-158249620D02*
X197502780Y-158402020D01*
X197502780Y-158402020D02*
X196029580Y-158402020D01*
X195917980Y-158290420D02*
X195917980Y-157990700D01*
X196029580Y-158402020D02*
X195917980Y-158290420D01*
%TO.N,Net-(D2-Pad2)*%
X200533480Y-157835600D02*
X201950320Y-157835600D01*
X201950320Y-157835600D02*
X202483720Y-157302200D01*
X202483720Y-157302200D02*
X202483720Y-155102560D01*
X202303380Y-154922220D02*
X201354700Y-154922220D01*
X202483720Y-155102560D02*
X202303380Y-154922220D01*
%TO.N,Net-(D3-Pad2)*%
X189966840Y-159948880D02*
X189933820Y-159981900D01*
X191713480Y-159948880D02*
X189966840Y-159948880D01*
%TO.N,Net-(D4-Pad2)*%
X153606980Y-105496360D02*
X153581580Y-105521760D01*
X155277180Y-105496360D02*
X153606980Y-105496360D01*
D27*
%TO.N,Net-(FB1-Pad1)*%
X157734000Y-135432800D02*
X156464000Y-135432800D01*
X156464000Y-135432800D02*
X156260800Y-135636000D01*
X156260800Y-135636000D02*
X156260800Y-135966200D01*
X156006800Y-136220200D02*
X154760300Y-136220200D01*
X156260800Y-135966200D02*
X156006800Y-136220200D01*
%TO.N,Net-(FB2-Pad1)*%
X157734000Y-137972800D02*
X156489400Y-137972800D01*
X156489400Y-137972800D02*
X156362400Y-138099800D01*
X156362400Y-138099800D02*
X156362400Y-138455400D01*
X156083000Y-138734800D02*
X154709500Y-138734800D01*
X156362400Y-138455400D02*
X156083000Y-138734800D01*
D25*
%TO.N,+3V3*%
X190492380Y-109473360D02*
X190492380Y-107774740D01*
X190050420Y-107332780D02*
X183779160Y-107332780D01*
X190492380Y-107774740D02*
X190050420Y-107332780D01*
X188414660Y-124810520D02*
X186184540Y-124810520D01*
X186184540Y-124810520D02*
X185633360Y-124259340D01*
X185633360Y-124259340D02*
X185633360Y-118978680D01*
X185347461Y-118692781D02*
X182538221Y-118692781D01*
X185633360Y-118978680D02*
X185347461Y-118692781D01*
X182538221Y-118692781D02*
X181914800Y-118069360D01*
X181914800Y-118069360D02*
X181914800Y-107802680D01*
X182384700Y-107332780D02*
X183779160Y-107332780D01*
X181914800Y-107802680D02*
X182384700Y-107332780D01*
X209274000Y-107136460D02*
X206404740Y-107136460D01*
X206404740Y-107136460D02*
X206105760Y-106837480D01*
X206105760Y-106837480D02*
X206105760Y-102748080D01*
X205625700Y-102268020D02*
X201340720Y-102268020D01*
X206105760Y-102748080D02*
X205625700Y-102268020D01*
%TO.N,SENSOR_VP*%
X209274000Y-109676460D02*
X204969640Y-109676460D01*
X204969640Y-109676460D02*
X204576680Y-109283500D01*
X204576680Y-109283500D02*
X204576680Y-107716320D01*
X204208380Y-107348020D02*
X201340720Y-107348020D01*
X204576680Y-107716320D02*
X204208380Y-107348020D01*
%TO.N,SENSOR_VN*%
X209274000Y-110946460D02*
X204177160Y-110946460D01*
X204177160Y-110946460D02*
X203908660Y-110677960D01*
X203908660Y-110677960D02*
X203908660Y-110218220D01*
X203578460Y-109888020D02*
X201340720Y-109888020D01*
X203908660Y-110218220D02*
X203578460Y-109888020D01*
%TO.N,ESP_IO34*%
X201552280Y-112216460D02*
X201340720Y-112428020D01*
X209274000Y-112216460D02*
X201552280Y-112216460D01*
%TO.N,ESP_IO35*%
X209274000Y-113486460D02*
X204531700Y-113486460D01*
X204231240Y-113786920D02*
X204231240Y-114467640D01*
X204531700Y-113486460D02*
X204231240Y-113786920D01*
X203730860Y-114968020D02*
X201340720Y-114968020D01*
X204231240Y-114467640D02*
X203730860Y-114968020D01*
%TO.N,ESP_IO32*%
X209274000Y-114756460D02*
X205143840Y-114756460D01*
X205143840Y-114756460D02*
X204617320Y-115282980D01*
X204617320Y-115282980D02*
X204617320Y-116982240D01*
X204091540Y-117508020D02*
X201340720Y-117508020D01*
X204617320Y-116982240D02*
X204091540Y-117508020D01*
%TO.N,ESP_IO33*%
X209274000Y-116026460D02*
X205799160Y-116026460D01*
X205799160Y-116026460D02*
X205138020Y-116687600D01*
X205138020Y-116687600D02*
X205138020Y-119659400D01*
X204749400Y-120048020D02*
X201340720Y-120048020D01*
X205138020Y-119659400D02*
X204749400Y-120048020D01*
%TO.N,ESP_IO25*%
X209274000Y-117296460D02*
X206365580Y-117296460D01*
X206365580Y-117296460D02*
X205818740Y-117843300D01*
X205818740Y-117843300D02*
X205818740Y-122171460D01*
X205402180Y-122588020D02*
X201340720Y-122588020D01*
X205818740Y-122171460D02*
X205402180Y-122588020D01*
%TO.N,ESP_IO26*%
X209274000Y-118566460D02*
X206736420Y-118566460D01*
X206736420Y-118566460D02*
X206428710Y-118874170D01*
X206428710Y-118874170D02*
X206428710Y-124464710D01*
X205765400Y-125128020D02*
X201340720Y-125128020D01*
X206428710Y-124464710D02*
X205765400Y-125128020D01*
%TO.N,ESP_IO27*%
X209274000Y-119836460D02*
X207620340Y-119836460D01*
X207620340Y-119836460D02*
X207609440Y-119847360D01*
X207609440Y-119847360D02*
X207314800Y-119847360D01*
X207314800Y-119847360D02*
X206928720Y-120233440D01*
X206928720Y-120233440D02*
X206928720Y-125539500D01*
X206928720Y-125539500D02*
X206545180Y-125923040D01*
X206545180Y-125923040D02*
X203756260Y-125923040D01*
X203756260Y-125923040D02*
X203438760Y-126240540D01*
X203438760Y-126240540D02*
X203438760Y-127304800D01*
X203075540Y-127668020D02*
X201340720Y-127668020D01*
X203438760Y-127304800D02*
X203075540Y-127668020D01*
%TO.N,ESP_IO14*%
X203685140Y-130208020D02*
X201340720Y-130208020D01*
X204028040Y-127276860D02*
X204028040Y-129865120D01*
X204028040Y-129865120D02*
X203685140Y-130208020D01*
X204685900Y-126619000D02*
X204028040Y-127276860D01*
X207563720Y-126189740D02*
X207134460Y-126619000D01*
X207563720Y-121541540D02*
X207563720Y-126189740D01*
X207134460Y-126619000D02*
X204685900Y-126619000D01*
X207998800Y-121106460D02*
X207563720Y-121541540D01*
X209274000Y-121106460D02*
X207998800Y-121106460D01*
%TO.N,ESP_IO12*%
X201340720Y-132748020D02*
X203997560Y-132748020D01*
X203997560Y-132748020D02*
X204594460Y-132151120D01*
X204594460Y-132151120D02*
X204594460Y-128635760D01*
X204594460Y-128635760D02*
X205590140Y-127640080D01*
X205590140Y-127640080D02*
X208673700Y-127640080D01*
X209274000Y-127039780D02*
X209274000Y-122376460D01*
X208673700Y-127640080D02*
X209274000Y-127039780D01*
%TO.N,Net-(J2-Pad2)*%
X186892560Y-118668800D02*
X186892560Y-121294520D01*
X186892560Y-121294520D02*
X187246260Y-121648220D01*
X187246260Y-121648220D02*
X191437260Y-121648220D01*
X191437260Y-121648220D02*
X191772540Y-121312940D01*
X191772540Y-121312940D02*
X191772540Y-117007640D01*
X191503340Y-116738440D02*
X190726820Y-116738440D01*
X191772540Y-117007640D02*
X191503340Y-116738440D01*
X186892560Y-117804560D02*
X186892560Y-118668800D01*
X186580780Y-117492780D02*
X186892560Y-117804560D01*
X183779160Y-117492780D02*
X186580780Y-117492780D01*
%TO.N,Net-(J2-Pad3)*%
X186862080Y-114952780D02*
X186877320Y-114937540D01*
X183779160Y-114952780D02*
X186862080Y-114952780D01*
X186877320Y-116483760D02*
X186877320Y-114937540D01*
X187124340Y-116730780D02*
X186877320Y-116483760D01*
X187551060Y-116730780D02*
X187124340Y-116730780D01*
X187755070Y-116934790D02*
X187551060Y-116730780D01*
X187755070Y-120117410D02*
X187755070Y-116934790D01*
X188173400Y-120535740D02*
X187755070Y-120117410D01*
X190726820Y-120535740D02*
X188173400Y-120535740D01*
%TO.N,ESP_RX*%
X226274000Y-110946460D02*
X231333780Y-110946460D01*
X231333780Y-110946460D02*
X231640380Y-110639860D01*
X231640380Y-110639860D02*
X231640380Y-110144560D01*
X232011220Y-109773720D02*
X233210100Y-109773720D01*
X231640380Y-110144560D02*
X232011220Y-109773720D01*
%TO.N,ESP_TX*%
X226274000Y-109676460D02*
X230592100Y-109676460D01*
X230592100Y-109676460D02*
X231117140Y-109151420D01*
X231117140Y-109151420D02*
X231117140Y-107833160D01*
X231716580Y-107233720D02*
X233210100Y-107233720D01*
X231117140Y-107833160D02*
X231716580Y-107233720D01*
D27*
%TO.N,Net-(J3-PadB5)*%
X144130200Y-137833000D02*
X143040200Y-137833000D01*
X143040200Y-137833000D02*
X142697200Y-138176000D01*
X142697200Y-138176000D02*
X142697200Y-142671800D01*
X142697200Y-142671800D02*
X143154400Y-143129000D01*
X152630500Y-143129000D02*
X153163900Y-142595600D01*
X143154400Y-143129000D02*
X152630500Y-143129000D01*
%TO.N,Net-(J3-PadA5)*%
X145980200Y-136283000D02*
X146800000Y-136283000D01*
X146800000Y-136283000D02*
X147066000Y-136017000D01*
X147066000Y-136017000D02*
X147066000Y-134848600D01*
X147066000Y-134848600D02*
X147447000Y-134467600D01*
X147447000Y-134467600D02*
X148869400Y-134467600D01*
X149123400Y-134213600D02*
X149123400Y-133119500D01*
X148869400Y-134467600D02*
X149123400Y-134213600D01*
D25*
%TO.N,ESP_IO4*%
X233210100Y-130093720D02*
X231696260Y-130093720D01*
X231696260Y-130093720D02*
X231228900Y-129626360D01*
X231228900Y-129626360D02*
X231228900Y-127447040D01*
X231228900Y-127447040D02*
X230502460Y-126720600D01*
X230502460Y-126720600D02*
X229478840Y-126720600D01*
X229478840Y-126720600D02*
X229115620Y-126357380D01*
X229115620Y-126357380D02*
X229115620Y-121635520D01*
X228586560Y-121106460D02*
X226274000Y-121106460D01*
X229115620Y-121635520D02*
X228586560Y-121106460D01*
%TO.N,ESP_IO16*%
X233210100Y-127553720D02*
X232089960Y-127553720D01*
X232089960Y-127553720D02*
X231559100Y-127022860D01*
X231559100Y-127022860D02*
X231559100Y-126461520D01*
X231559100Y-126461520D02*
X231228900Y-126131320D01*
X231228900Y-126131320D02*
X230337360Y-126131320D01*
X230337360Y-126131320D02*
X229875080Y-125669040D01*
X229875080Y-125669040D02*
X229875080Y-120385840D01*
X229325700Y-119836460D02*
X226274000Y-119836460D01*
X229875080Y-120385840D02*
X229325700Y-119836460D01*
%TO.N,ESP_IO17*%
X233210100Y-125013720D02*
X230804720Y-125013720D01*
X230804720Y-125013720D02*
X230535480Y-124744480D01*
X230535480Y-124744480D02*
X230535480Y-119098060D01*
X230003880Y-118566460D02*
X226274000Y-118566460D01*
X230535480Y-119098060D02*
X230003880Y-118566460D01*
%TO.N,ESP_IO5*%
X233210100Y-122473720D02*
X231500680Y-122473720D01*
X231500680Y-122473720D02*
X231195880Y-122168920D01*
X231195880Y-122168920D02*
X231195880Y-118074440D01*
X230417900Y-117296460D02*
X226274000Y-117296460D01*
X231195880Y-118074440D02*
X230417900Y-117296460D01*
%TO.N,ESP_IO18*%
X233210100Y-119933720D02*
X232361740Y-119933720D01*
X231960050Y-119933720D02*
X233210100Y-119933720D01*
X231695890Y-119669560D02*
X231960050Y-119933720D01*
X231695890Y-117867330D02*
X231695890Y-119669560D01*
X229855020Y-116026460D02*
X231695890Y-117867330D01*
X226274000Y-116026460D02*
X229855020Y-116026460D01*
%TO.N,ESP_IO19*%
X233210100Y-117393720D02*
X231998520Y-117393720D01*
X231998520Y-117393720D02*
X231274620Y-116669820D01*
X231274620Y-116669820D02*
X231274620Y-115290600D01*
X230740480Y-114756460D02*
X226274000Y-114756460D01*
X231274620Y-115290600D02*
X230740480Y-114756460D01*
%TO.N,ESP_IO21*%
X226371260Y-112313720D02*
X226274000Y-112216460D01*
X233210100Y-112313720D02*
X226371260Y-112313720D01*
%TO.N,ESP_IO22*%
X226274000Y-108406460D02*
X230046000Y-108406460D01*
X230046000Y-108406460D02*
X230238300Y-108214160D01*
X230238300Y-108214160D02*
X230238300Y-105216960D01*
X230761540Y-104693720D02*
X233210100Y-104693720D01*
X230238300Y-105216960D02*
X230761540Y-104693720D01*
%TO.N,ESP_IO23*%
X226274000Y-107136460D02*
X229200180Y-107136460D01*
X229200180Y-107136460D02*
X229549960Y-106786680D01*
X229549960Y-106786680D02*
X229549960Y-102740460D01*
X230136700Y-102153720D02*
X233210100Y-102153720D01*
X229549960Y-102740460D02*
X230136700Y-102153720D01*
%TO.N,ESP_IO2*%
X223489000Y-123376460D02*
X223489000Y-128005320D01*
X223489000Y-128005320D02*
X223888300Y-128404620D01*
X223888300Y-128404620D02*
X228424740Y-128404620D01*
X228909880Y-128889760D02*
X228909880Y-132727700D01*
X228424740Y-128404620D02*
X228909880Y-128889760D01*
%TO.N,ESP_IO15*%
X222219000Y-123376460D02*
X222219000Y-129023860D01*
X222219000Y-129023860D02*
X222547180Y-129352040D01*
X222547180Y-129352040D02*
X225844100Y-129352040D01*
X226369880Y-129877820D02*
X226369880Y-132727700D01*
X225844100Y-129352040D02*
X226369880Y-129877820D01*
%TO.N,SD1*%
X220949000Y-123376460D02*
X220949000Y-129775700D01*
X220949000Y-129775700D02*
X221244160Y-130070860D01*
X221244160Y-130070860D02*
X223398080Y-130070860D01*
X223829880Y-130502660D02*
X223829880Y-132727700D01*
X223398080Y-130070860D02*
X223829880Y-130502660D01*
%TO.N,SD0*%
X219679000Y-123376460D02*
X219679000Y-130334500D01*
X219679000Y-130334500D02*
X219938600Y-130594100D01*
X219938600Y-130594100D02*
X220786960Y-130594100D01*
X221289880Y-131097020D02*
X221289880Y-132727700D01*
X220786960Y-130594100D02*
X221289880Y-131097020D01*
%TO.N,CLK*%
X218409000Y-132386820D02*
X218749880Y-132727700D01*
X218409000Y-123376460D02*
X218409000Y-132386820D01*
%TO.N,CMD*%
X217139000Y-131798580D02*
X216209880Y-132727700D01*
X217139000Y-123376460D02*
X217139000Y-131798580D01*
%TO.N,SD3*%
X215869000Y-123376460D02*
X215869000Y-130251720D01*
X215869000Y-130251720D02*
X215597740Y-130522980D01*
X215597740Y-130522980D02*
X214193120Y-130522980D01*
X213669880Y-131046220D02*
X213669880Y-132727700D01*
X214193120Y-130522980D02*
X213669880Y-131046220D01*
%TO.N,SD2*%
X214599000Y-123376460D02*
X214599000Y-129497340D01*
X214073370Y-130022970D02*
X211866850Y-130022970D01*
X214599000Y-129497340D02*
X214073370Y-130022970D01*
X211129880Y-130759940D02*
X211129880Y-132727700D01*
X211866850Y-130022970D02*
X211129880Y-130759940D01*
%TO.N,ESP_IO13*%
X213329000Y-123376460D02*
X213329000Y-128783600D01*
X213329000Y-128783600D02*
X212661500Y-129451100D01*
X212661500Y-129451100D02*
X209067400Y-129451100D01*
X208589880Y-129928620D02*
X208589880Y-132727700D01*
X209067400Y-129451100D02*
X208589880Y-129928620D01*
%TO.N,GNDA*%
X221720600Y-152540780D02*
X221632410Y-152628970D01*
X222427200Y-152540780D02*
X221720600Y-152540780D01*
X221632410Y-152628970D02*
X221632410Y-152925780D01*
X221632410Y-152925780D02*
X221640400Y-152925780D01*
X221755400Y-153040780D02*
X222427200Y-153040780D01*
X221640400Y-152925780D02*
X221755400Y-153040780D01*
X221894400Y-154017980D02*
X223037400Y-154017980D01*
X223037400Y-154017980D02*
X223316800Y-154297380D01*
X223151000Y-156291980D02*
X222478000Y-156291980D01*
X223316800Y-156126180D02*
X223151000Y-156291980D01*
X222478000Y-155791980D02*
X223270000Y-155791980D01*
X223316800Y-155745180D02*
X223316800Y-156126180D01*
X223270000Y-155791980D02*
X223316800Y-155745180D01*
X223316800Y-154297380D02*
X223316800Y-155745180D01*
X228828600Y-160367980D02*
X220751400Y-160367980D01*
X220751400Y-160367980D02*
X220319600Y-160799780D01*
X220319600Y-160799780D02*
X220319600Y-163111180D01*
X219989400Y-163441380D02*
X218033600Y-163441380D01*
X220319600Y-163111180D02*
X219989400Y-163441380D01*
X218033600Y-163441380D02*
X216306400Y-163441380D01*
X216306400Y-163441380D02*
X215900000Y-163034980D01*
X215900000Y-163034980D02*
X215900000Y-155262580D01*
X216541201Y-154621379D02*
X218878001Y-154621379D01*
X215900000Y-155262580D02*
X216541201Y-154621379D01*
X218878001Y-154621379D02*
X219075000Y-154424380D01*
X219075000Y-154424380D02*
X219075000Y-154170380D01*
X219075000Y-154170380D02*
X219227400Y-154017980D01*
X221640400Y-153992580D02*
X221665800Y-154017980D01*
X221640400Y-152925780D02*
X221640400Y-153992580D01*
X221665800Y-154017980D02*
X221894400Y-154017980D01*
X219227400Y-154017980D02*
X221665800Y-154017980D01*
%TO.N,Net-(J6-Pad2)*%
X218033600Y-160901380D02*
X216890600Y-160901380D01*
X216890600Y-160901380D02*
X216560400Y-160571180D01*
X216560400Y-160571180D02*
X216560400Y-157497780D01*
X216896801Y-157161379D02*
X220605201Y-157161379D01*
X216560400Y-157497780D02*
X216896801Y-157161379D01*
X220605201Y-157161379D02*
X220878400Y-156888180D01*
X221179200Y-155291980D02*
X222478000Y-155291980D01*
X220878400Y-155592780D02*
X221179200Y-155291980D01*
X220878400Y-156888180D02*
X220878400Y-155592780D01*
%TO.N,Net-(J6-Pad3)*%
X218033600Y-158361380D02*
X223977200Y-158361380D01*
X223977200Y-158361380D02*
X224231200Y-158107380D01*
X224231200Y-158107380D02*
X224231200Y-156659580D01*
X224598800Y-156291980D02*
X225578000Y-156291980D01*
X224231200Y-156659580D02*
X224598800Y-156291980D01*
%TO.N,Net-(J6-Pad4)*%
X218033600Y-155821380D02*
X219379800Y-155821380D01*
X219379800Y-155821380D02*
X219659200Y-155541980D01*
X219659200Y-155541980D02*
X219659200Y-155135580D01*
X220002800Y-154791980D02*
X222478000Y-154791980D01*
X219659200Y-155135580D02*
X220002800Y-154791980D01*
%TO.N,Net-(J6-Pad5)*%
X222427200Y-152040780D02*
X221280800Y-152040780D01*
X221280800Y-152040780D02*
X221132400Y-152189180D01*
X221132400Y-152189180D02*
X221132400Y-153001980D01*
X220853000Y-153281380D02*
X218033600Y-153281380D01*
X221132400Y-153001980D02*
X220853000Y-153281380D01*
%TO.N,Net-(J6-Pad6)*%
X218033600Y-150741380D02*
X216636600Y-150741380D01*
X216636600Y-150741380D02*
X216306400Y-150411180D01*
X216306400Y-150411180D02*
X216306400Y-147388580D01*
X216693601Y-147001379D02*
X223183599Y-147001379D01*
X216306400Y-147388580D02*
X216693601Y-147001379D01*
X223527990Y-147345770D02*
X223527990Y-152755970D01*
X223183599Y-147001379D02*
X223527990Y-147345770D01*
X223812800Y-153040780D02*
X225527200Y-153040780D01*
X223527990Y-152755970D02*
X223812800Y-153040780D01*
%TO.N,Net-(J6-Pad7)*%
X220980000Y-148379180D02*
X220802200Y-148201380D01*
X220980000Y-151173180D02*
X220980000Y-148379180D01*
X220802200Y-148201380D02*
X218033600Y-148201380D01*
X221347600Y-151540780D02*
X220980000Y-151173180D01*
X222427200Y-151540780D02*
X221347600Y-151540780D01*
%TO.N,Net-(J6-Pad8)*%
X218033600Y-145661380D02*
X223723200Y-145661380D01*
X225578000Y-154791980D02*
X226987800Y-154791980D01*
X226987800Y-154791980D02*
X227279200Y-154500580D01*
X227279200Y-154500580D02*
X227279200Y-154271980D01*
X227463201Y-154087979D02*
X229952401Y-154087979D01*
X227279200Y-154271980D02*
X227463201Y-154087979D01*
X229952401Y-154087979D02*
X230632000Y-153408380D01*
X230632000Y-153408380D02*
X230632000Y-145762980D01*
X230632000Y-145762980D02*
X230530400Y-145661380D01*
X223977200Y-145661380D02*
X223723200Y-145661380D01*
X225527200Y-151540780D02*
X224878200Y-151540780D01*
X224878200Y-151540780D02*
X224612200Y-151274780D01*
X224612200Y-151274780D02*
X224612200Y-145712180D01*
X224561400Y-145661380D02*
X223977200Y-145661380D01*
X224612200Y-145712180D02*
X224561400Y-145661380D01*
X230530400Y-145661380D02*
X224561400Y-145661380D01*
%TO.N,Net-(J8-Pad5)*%
X225527200Y-152040780D02*
X226462400Y-152040780D01*
X226462400Y-152040780D02*
X226771200Y-151731980D01*
X226771200Y-151731980D02*
X226771200Y-150538180D01*
X227101400Y-150207980D02*
X228828600Y-150207980D01*
X226771200Y-150538180D02*
X227101400Y-150207980D01*
%TO.N,Net-(J8-Pad4)*%
X228621400Y-152540780D02*
X228828600Y-152747980D01*
X225527200Y-152540780D02*
X228621400Y-152540780D01*
%TO.N,Net-(J8-Pad3)*%
X228824600Y-155291980D02*
X228828600Y-155287980D01*
X225578000Y-155291980D02*
X228824600Y-155291980D01*
%TO.N,Net-(J8-Pad2)*%
X225578000Y-155791980D02*
X226411600Y-155791980D01*
X226411600Y-155791980D02*
X226745800Y-156126180D01*
X226745800Y-156126180D02*
X226745800Y-157396180D01*
X227177600Y-157827980D02*
X228828600Y-157827980D01*
X226745800Y-157396180D02*
X227177600Y-157827980D01*
%TO.N,Net-(J11-Pad5)*%
X156982160Y-100091240D02*
X160009840Y-100091240D01*
X156239670Y-100833730D02*
X156982160Y-100091240D01*
X156239670Y-107094830D02*
X156239670Y-100833730D01*
X155602940Y-107731560D02*
X156239670Y-107094830D01*
X153824940Y-108186220D02*
X154279600Y-107731560D01*
X153824940Y-111970820D02*
X153824940Y-108186220D01*
X154279600Y-107731560D02*
X155602940Y-107731560D01*
X154182100Y-112327980D02*
X153824940Y-111970820D01*
X155498880Y-112327980D02*
X154182100Y-112327980D01*
X160009840Y-100091240D02*
X168490900Y-100091240D01*
X159824420Y-100091240D02*
X160009840Y-100091240D01*
%TO.N,Net-(J11-Pad4)*%
X161223880Y-112327980D02*
X164125620Y-112327980D01*
X164125620Y-112327980D02*
X164360860Y-112092740D01*
X164360860Y-112092740D02*
X164360860Y-107403900D01*
X165253521Y-106511239D02*
X170257321Y-106511239D01*
X164360860Y-107403900D02*
X165253521Y-106511239D01*
X170257321Y-106511239D02*
X170416220Y-106352340D01*
X170416220Y-106352340D02*
X170416220Y-102984300D01*
X170063160Y-102631240D02*
X168490900Y-102631240D01*
X170416220Y-102984300D02*
X170063160Y-102631240D01*
%TO.N,Net-(J11-Pad3)*%
X161208710Y-113527990D02*
X160159850Y-113527990D01*
X161223880Y-113543160D02*
X161208710Y-113527990D01*
X161223880Y-113627980D02*
X161223880Y-113543160D01*
X160159850Y-113527990D02*
X159672020Y-113040160D01*
X159672020Y-113040160D02*
X159672020Y-111777780D01*
X159672020Y-111777780D02*
X160042860Y-111406940D01*
X160042860Y-111406940D02*
X162516820Y-111406940D01*
X162516820Y-111406940D02*
X163095940Y-110827820D01*
X163095940Y-110827820D02*
X163095940Y-106034840D01*
X163959540Y-105171240D02*
X168490900Y-105171240D01*
X163095940Y-106034840D02*
X163959540Y-105171240D01*
%TO.N,Net-(J11-Pad2)*%
X161624890Y-112877990D02*
X164942130Y-112877990D01*
X161524900Y-112977980D02*
X161624890Y-112877990D01*
X161223880Y-112977980D02*
X161524900Y-112977980D01*
X164942130Y-112877990D02*
X165359080Y-112461040D01*
X165359080Y-112461040D02*
X165359080Y-108353860D01*
X166001700Y-107711240D02*
X168490900Y-107711240D01*
X165359080Y-108353860D02*
X166001700Y-107711240D01*
%TO.N,Net-(J12-Pad2)*%
X161223880Y-118827980D02*
X165104240Y-118827980D01*
X165104240Y-118827980D02*
X165608000Y-119331740D01*
X165608000Y-119331740D02*
X165608000Y-123527820D01*
X165608000Y-123527820D02*
X165587680Y-123548140D01*
X165587680Y-123548140D02*
X165587680Y-123766580D01*
X165955980Y-124134880D02*
X168526460Y-124134880D01*
X165587680Y-123766580D02*
X165955980Y-124134880D01*
%TO.N,Net-(J12-Pad3)*%
X156702640Y-116877980D02*
X156954220Y-117129560D01*
X155498880Y-116877980D02*
X156702640Y-116877980D01*
%TO.N,Net-(J12-Pad4)*%
X156629778Y-116332700D02*
X157838140Y-116332700D01*
X156525058Y-116227980D02*
X156629778Y-116332700D01*
X155498880Y-116227980D02*
X156525058Y-116227980D01*
%TO.N,Net-(J12-Pad5)*%
X156985060Y-115577980D02*
X156989780Y-115582700D01*
X155498880Y-115577980D02*
X156985060Y-115577980D01*
%TO.N,Net-(J13-Pad2)*%
X190705220Y-158295340D02*
X189250320Y-158295340D01*
X191117980Y-157882580D02*
X190705220Y-158295340D01*
X191117980Y-157132580D02*
X191117980Y-157882580D01*
%TO.N,Net-(J13-Pad3)*%
X189221820Y-157132580D02*
X189207140Y-157147260D01*
X190317980Y-157132580D02*
X189221820Y-157132580D01*
%TO.N,Net-(J13-Pad4)*%
X187383720Y-155757580D02*
X187337700Y-155803600D01*
X188942980Y-155757580D02*
X187383720Y-155757580D01*
%TO.N,Net-(J13-Pad5)*%
X186804100Y-154957580D02*
X186801760Y-154955240D01*
X188942980Y-154957580D02*
X186804100Y-154957580D01*
%TO.N,Net-(Q1-Pad1)*%
X190627720Y-114937540D02*
X190726820Y-114838440D01*
X188702320Y-114937540D02*
X190627720Y-114937540D01*
%TO.N,Net-(Q2-Pad1)*%
X190693760Y-118668800D02*
X190726820Y-118635740D01*
X188717560Y-118668800D02*
X190693760Y-118668800D01*
%TO.N,Net-(R7-Pad1)*%
X184787540Y-152587960D02*
X187243720Y-152587960D01*
X187243720Y-152587960D02*
X187373260Y-152458420D01*
X187626960Y-150957580D02*
X188942980Y-150957580D01*
X187373260Y-151211280D02*
X187626960Y-150957580D01*
X187373260Y-152458420D02*
X187373260Y-151211280D01*
%TO.N,Net-(R8-Pad1)*%
X186496960Y-150543260D02*
X187142120Y-150543260D01*
X187527800Y-150157580D02*
X188942980Y-150157580D01*
X187142120Y-150543260D02*
X187527800Y-150157580D01*
%TO.N,Net-(R9-Pad1)*%
X154033220Y-115409980D02*
X153586180Y-115409980D01*
X154236050Y-115612810D02*
X154033220Y-115409980D01*
X154236050Y-117858170D02*
X154236050Y-115612810D01*
X153586180Y-115409980D02*
X152492080Y-115409980D01*
X154555860Y-118177980D02*
X154236050Y-117858170D01*
X155498880Y-118177980D02*
X154555860Y-118177980D01*
%TO.N,Net-(R10-Pad1)*%
X153877440Y-118827980D02*
X155498880Y-118827980D01*
X153736040Y-118686580D02*
X153877440Y-118827980D01*
X153736040Y-118046500D02*
X153736040Y-118686580D01*
X153499820Y-117810280D02*
X153736040Y-118046500D01*
X152443180Y-117810280D02*
X153499820Y-117810280D01*
%TO.N,Net-(R12-Pad1)*%
X193538480Y-157153080D02*
X193517980Y-157132580D01*
X193538480Y-159948880D02*
X193538480Y-157153080D01*
%TO.N,Net-(R13-Pad1)*%
X161223880Y-114277980D02*
X159616980Y-114277980D01*
X159172010Y-113833010D02*
X159172010Y-105964090D01*
X159616980Y-114277980D02*
X159172010Y-113833010D01*
X158704280Y-105496360D02*
X157102180Y-105496360D01*
X159172010Y-105964090D02*
X158704280Y-105496360D01*
D26*
%TO.N,Net-(C13-Pad1)*%
X149979380Y-113047780D02*
X150042880Y-112984280D01*
X145191480Y-113047780D02*
X149979380Y-113047780D01*
X152339080Y-112984280D02*
X152354280Y-112969080D01*
X150042880Y-112984280D02*
X152339080Y-112984280D01*
D25*
X153375400Y-112969080D02*
X153819860Y-113413540D01*
X152354280Y-112969080D02*
X153375400Y-112969080D01*
X161223880Y-120127980D02*
X159043420Y-120127980D01*
X159043420Y-120127980D02*
X158638240Y-120533160D01*
X158638240Y-120533160D02*
X158638240Y-122174000D01*
X158638240Y-122174000D02*
X158196280Y-122615960D01*
X158196280Y-122615960D02*
X154317700Y-122615960D01*
X154317700Y-122615960D02*
X153819860Y-122118120D01*
X155498880Y-120127980D02*
X153948180Y-120127980D01*
X153948180Y-120127980D02*
X153819860Y-120256300D01*
X153819860Y-120256300D02*
X153819860Y-119684800D01*
X153819860Y-122118120D02*
X153819860Y-120256300D01*
%TO.N,Net-(C14-Pad1)*%
X193672380Y-145539460D02*
X193768980Y-145636060D01*
X191214780Y-145539460D02*
X193672380Y-145539460D01*
X196181980Y-145636060D02*
X196225160Y-145592880D01*
X193768980Y-145636060D02*
X196181980Y-145636060D01*
X192717980Y-148782580D02*
X192717980Y-147492160D01*
X192717980Y-147492160D02*
X193093340Y-147116800D01*
X196225160Y-146888200D02*
X196225160Y-145592880D01*
X195996560Y-147116800D02*
X196225160Y-146888200D01*
X195917980Y-147195380D02*
X195996560Y-147116800D01*
X195917980Y-148782580D02*
X195917980Y-147195380D01*
X195117980Y-147159720D02*
X195160900Y-147116800D01*
X195117980Y-148782580D02*
X195117980Y-147159720D01*
X195160900Y-147116800D02*
X195996560Y-147116800D01*
X193093340Y-147116800D02*
X195160900Y-147116800D01*
X197328340Y-154922220D02*
X197292980Y-154957580D01*
X198561960Y-154922220D02*
X198561960Y-153647140D01*
X199529700Y-154922220D02*
X198561960Y-154922220D01*
X198561960Y-154922220D02*
X197328340Y-154922220D01*
X198561960Y-153647140D02*
X198744840Y-153464260D01*
X196225160Y-145592880D02*
X204929820Y-145592880D01*
X204929820Y-145592880D02*
X205287880Y-145950940D01*
X205287880Y-149420580D02*
X205287880Y-149283420D01*
X205287880Y-153085800D02*
X205287880Y-149420580D01*
X205325980Y-148757640D02*
X205287880Y-148795740D01*
X207751680Y-148757640D02*
X205325980Y-148757640D01*
X205287880Y-148795740D02*
X205287880Y-149420580D01*
X205287880Y-145950940D02*
X205287880Y-148795740D01*
X192717980Y-156382580D02*
X192704620Y-156369220D01*
X192717980Y-157132580D02*
X192717980Y-156382580D01*
X192704620Y-154157580D02*
X188942980Y-154157580D01*
X192704620Y-156369220D02*
X192704620Y-154157580D01*
X195495980Y-154957580D02*
X197292980Y-154957580D01*
X195262300Y-154957580D02*
X195495980Y-154957580D01*
X195061840Y-154757120D02*
X195262300Y-154957580D01*
X195061840Y-154264360D02*
X195061840Y-154757120D01*
X194955060Y-154157580D02*
X195061840Y-154264360D01*
X192704620Y-154157580D02*
X194955060Y-154157580D01*
X198744840Y-153464260D02*
X202463400Y-153464260D01*
X202463400Y-153464260D02*
X202983730Y-153984590D01*
X202983730Y-153984590D02*
X202983730Y-155500970D01*
X202983730Y-155500970D02*
X203286360Y-155803600D01*
X203286360Y-155803600D02*
X204886560Y-155803600D01*
X205287880Y-155402280D02*
X205287880Y-153085800D01*
X204886560Y-155803600D02*
X205287880Y-155402280D01*
%TO.N,Net-(C12-Pad1)*%
X186262320Y-145537000D02*
X186264780Y-145539460D01*
X183776620Y-145537000D02*
X186262320Y-145537000D01*
X179270660Y-149910800D02*
X179270660Y-146283680D01*
X180017340Y-145537000D02*
X183776620Y-145537000D01*
X179270660Y-146283680D02*
X180017340Y-145537000D01*
X186264780Y-141729460D02*
X187604400Y-141729460D01*
X187604400Y-141729460D02*
X187942220Y-142067280D01*
X187942220Y-142067280D02*
X187942220Y-145183860D01*
X187586620Y-145539460D02*
X186264780Y-145539460D01*
X187942220Y-145183860D02*
X187586620Y-145539460D01*
%TO.N,3V3_FT260*%
X155498880Y-119477980D02*
X159259080Y-119477980D01*
X159259080Y-119477980D02*
X159611060Y-119126000D01*
X159902560Y-114927980D02*
X161223880Y-114927980D01*
X159611060Y-115219480D02*
X159902560Y-114927980D01*
X159707220Y-115577980D02*
X159611060Y-115674140D01*
X161223880Y-115577980D02*
X159707220Y-115577980D01*
X159611060Y-115674140D02*
X159611060Y-115219480D01*
X159639120Y-116877980D02*
X159611060Y-116906040D01*
X161223880Y-116877980D02*
X159639120Y-116877980D01*
X159611060Y-116906040D02*
X159611060Y-115674140D01*
X161223880Y-117527980D02*
X159664040Y-117527980D01*
X159611060Y-117475000D02*
X159611060Y-116906040D01*
X159664040Y-117527980D02*
X159611060Y-117475000D01*
X159673960Y-118177980D02*
X159611060Y-118115080D01*
X161223880Y-118177980D02*
X159673960Y-118177980D01*
X159611060Y-118115080D02*
X159611060Y-117475000D01*
X159611060Y-119126000D02*
X159611060Y-118115080D01*
X161223880Y-114927980D02*
X169323420Y-114927980D01*
X169323420Y-114927980D02*
X169339260Y-114912140D01*
X169339260Y-114912140D02*
X170340020Y-114912140D01*
X170340020Y-114912140D02*
X170977560Y-114274600D01*
X170977560Y-114274600D02*
X170977560Y-98191320D01*
X170337480Y-97551240D02*
X168490900Y-97551240D01*
X170977560Y-98191320D02*
X170337480Y-97551240D01*
%TD*%
D28*
%TO.N,GND1*%
X164414002Y-144805937D02*
X138660000Y-144914906D01*
X138660000Y-142698719D01*
X139044086Y-142698719D01*
X139144981Y-142967466D01*
X139441840Y-143112600D01*
X139761311Y-143197032D01*
X140091114Y-143217516D01*
X140418576Y-143173264D01*
X140731113Y-143065979D01*
X140915419Y-142967466D01*
X141016314Y-142698719D01*
X140030200Y-141712605D01*
X139044086Y-142698719D01*
X138660000Y-142698719D01*
X138660000Y-142442346D01*
X138864481Y-142519114D01*
X139850595Y-141533000D01*
X140209805Y-141533000D01*
X141195919Y-142519114D01*
X141464666Y-142418219D01*
X141609800Y-142121360D01*
X141694232Y-141801889D01*
X141714716Y-141472086D01*
X141670464Y-141144624D01*
X141563179Y-140832087D01*
X141464666Y-140647781D01*
X141195919Y-140546886D01*
X140209805Y-141533000D01*
X139850595Y-141533000D01*
X138864481Y-140546886D01*
X138660000Y-140623654D01*
X138660000Y-140367281D01*
X139044086Y-140367281D01*
X140030200Y-141353395D01*
X141016314Y-140367281D01*
X140915419Y-140098534D01*
X140618560Y-139953400D01*
X140299089Y-139868968D01*
X139969286Y-139848484D01*
X139641824Y-139892736D01*
X139329287Y-140000021D01*
X139144981Y-140098534D01*
X139044086Y-140367281D01*
X138660000Y-140367281D01*
X138660000Y-138176000D01*
X141933524Y-138176000D01*
X141937200Y-138213323D01*
X141937201Y-142634468D01*
X141933524Y-142671800D01*
X141937201Y-142709133D01*
X141948198Y-142820786D01*
X141953042Y-142836754D01*
X141991654Y-142964046D01*
X142062226Y-143096076D01*
X142133401Y-143182802D01*
X142157200Y-143211801D01*
X142186198Y-143235599D01*
X142590600Y-143640002D01*
X142614399Y-143669001D01*
X142730124Y-143763974D01*
X142862153Y-143834546D01*
X143005414Y-143878003D01*
X143117067Y-143889000D01*
X143117076Y-143889000D01*
X143154399Y-143892676D01*
X143191722Y-143889000D01*
X152593178Y-143889000D01*
X152630500Y-143892676D01*
X152644655Y-143891282D01*
X152728145Y-143916608D01*
X152901399Y-143933672D01*
X153426401Y-143933672D01*
X153599655Y-143916608D01*
X153766251Y-143866072D01*
X153919787Y-143784005D01*
X154001037Y-143717324D01*
X154025215Y-143746785D01*
X154121906Y-143826137D01*
X154232220Y-143885102D01*
X154351918Y-143921412D01*
X154476400Y-143933672D01*
X154703150Y-143930600D01*
X154861900Y-143771850D01*
X154861900Y-142722600D01*
X155115900Y-142722600D01*
X155115900Y-143771850D01*
X155274650Y-143930600D01*
X155501400Y-143933672D01*
X155625882Y-143921412D01*
X155745580Y-143885102D01*
X155855894Y-143826137D01*
X155952585Y-143746785D01*
X156031937Y-143650094D01*
X156090902Y-143539780D01*
X156127212Y-143420082D01*
X156139472Y-143295600D01*
X156136400Y-142881350D01*
X155977650Y-142722600D01*
X155115900Y-142722600D01*
X154861900Y-142722600D01*
X154841900Y-142722600D01*
X154841900Y-142468600D01*
X154861900Y-142468600D01*
X154861900Y-141419350D01*
X155115900Y-141419350D01*
X155115900Y-142468600D01*
X155977650Y-142468600D01*
X156136400Y-142309850D01*
X156139472Y-141895600D01*
X156127212Y-141771118D01*
X156090902Y-141651420D01*
X156031937Y-141541106D01*
X155952585Y-141444415D01*
X155855894Y-141365063D01*
X155851661Y-141362800D01*
X156245928Y-141362800D01*
X156258188Y-141487282D01*
X156294498Y-141606980D01*
X156353463Y-141717294D01*
X156432815Y-141813985D01*
X156529506Y-141893337D01*
X156639820Y-141952302D01*
X156759518Y-141988612D01*
X156884000Y-142000872D01*
X157448250Y-141997800D01*
X157607000Y-141839050D01*
X157607000Y-140639800D01*
X157861000Y-140639800D01*
X157861000Y-141839050D01*
X158019750Y-141997800D01*
X158584000Y-142000872D01*
X158708482Y-141988612D01*
X158828180Y-141952302D01*
X158938494Y-141893337D01*
X159035185Y-141813985D01*
X159114537Y-141717294D01*
X159173502Y-141606980D01*
X159209812Y-141487282D01*
X159222072Y-141362800D01*
X159219000Y-140798550D01*
X159060250Y-140639800D01*
X157861000Y-140639800D01*
X157607000Y-140639800D01*
X156407750Y-140639800D01*
X156249000Y-140798550D01*
X156245928Y-141362800D01*
X155851661Y-141362800D01*
X155745580Y-141306098D01*
X155625882Y-141269788D01*
X155501400Y-141257528D01*
X155274650Y-141260600D01*
X155115900Y-141419350D01*
X154861900Y-141419350D01*
X154703150Y-141260600D01*
X154476400Y-141257528D01*
X154351918Y-141269788D01*
X154232220Y-141306098D01*
X154121906Y-141365063D01*
X154025215Y-141444415D01*
X154001037Y-141473876D01*
X153919787Y-141407195D01*
X153766251Y-141325128D01*
X153599655Y-141274592D01*
X153426401Y-141257528D01*
X152901399Y-141257528D01*
X152728145Y-141274592D01*
X152561549Y-141325128D01*
X152408013Y-141407195D01*
X152273438Y-141517638D01*
X152162995Y-141652213D01*
X152080928Y-141805749D01*
X152030392Y-141972345D01*
X152013328Y-142145599D01*
X152013328Y-142369000D01*
X146861858Y-142369000D01*
X146954578Y-142338236D01*
X147086225Y-142064391D01*
X147161916Y-141770124D01*
X147178745Y-141466744D01*
X147136065Y-141165911D01*
X147035514Y-140879185D01*
X146954578Y-140727764D01*
X146699633Y-140643175D01*
X146815559Y-140527249D01*
X146735487Y-140447177D01*
X146770530Y-140419785D01*
X146852159Y-140325008D01*
X146885984Y-140265192D01*
X146907000Y-140290801D01*
X146935998Y-140314599D01*
X147115596Y-140494197D01*
X147139399Y-140523201D01*
X147255124Y-140618174D01*
X147387153Y-140688746D01*
X147530414Y-140732203D01*
X147642067Y-140743200D01*
X147642076Y-140743200D01*
X147679399Y-140746876D01*
X147716722Y-140743200D01*
X147972328Y-140743200D01*
X147972328Y-140763200D01*
X147984588Y-140887682D01*
X148020898Y-141007380D01*
X148079863Y-141117694D01*
X148159215Y-141214385D01*
X148255906Y-141293737D01*
X148366220Y-141352702D01*
X148485918Y-141389012D01*
X148610400Y-141401272D01*
X149260400Y-141401272D01*
X149384882Y-141389012D01*
X149410400Y-141381271D01*
X149435918Y-141389012D01*
X149560400Y-141401272D01*
X149599650Y-141398200D01*
X149758400Y-141239450D01*
X149758400Y-141157341D01*
X149790937Y-141117694D01*
X149849902Y-141007380D01*
X149885400Y-140890359D01*
X149920898Y-141007380D01*
X149979863Y-141117694D01*
X150012400Y-141157341D01*
X150012400Y-141239450D01*
X150171150Y-141398200D01*
X150210400Y-141401272D01*
X150334882Y-141389012D01*
X150360400Y-141381271D01*
X150385918Y-141389012D01*
X150510400Y-141401272D01*
X151160400Y-141401272D01*
X151284882Y-141389012D01*
X151404580Y-141352702D01*
X151514894Y-141293737D01*
X151611585Y-141214385D01*
X151690937Y-141117694D01*
X151749902Y-141007380D01*
X151786212Y-140887682D01*
X151798472Y-140763200D01*
X151798472Y-139514577D01*
X151801528Y-139524651D01*
X151883595Y-139678187D01*
X151994038Y-139812762D01*
X152128613Y-139923205D01*
X152282149Y-140005272D01*
X152448745Y-140055808D01*
X152621999Y-140072872D01*
X153147001Y-140072872D01*
X153320255Y-140055808D01*
X153486851Y-140005272D01*
X153640387Y-139923205D01*
X153774962Y-139812762D01*
X153797000Y-139785909D01*
X153819038Y-139812762D01*
X153953613Y-139923205D01*
X154107149Y-140005272D01*
X154273745Y-140055808D01*
X154446999Y-140072872D01*
X154972001Y-140072872D01*
X155145255Y-140055808D01*
X155311851Y-140005272D01*
X155465387Y-139923205D01*
X155599962Y-139812762D01*
X155710405Y-139678187D01*
X155792472Y-139524651D01*
X155801527Y-139494800D01*
X156045678Y-139494800D01*
X156083000Y-139498476D01*
X156120322Y-139494800D01*
X156120333Y-139494800D01*
X156231986Y-139483803D01*
X156279056Y-139469525D01*
X156258188Y-139538318D01*
X156245928Y-139662800D01*
X156249000Y-140227050D01*
X156407750Y-140385800D01*
X157607000Y-140385800D01*
X157607000Y-140365800D01*
X157861000Y-140365800D01*
X157861000Y-140385800D01*
X159060250Y-140385800D01*
X159219000Y-140227050D01*
X159222072Y-139662800D01*
X159209812Y-139538318D01*
X159173502Y-139418620D01*
X159114537Y-139308306D01*
X159035185Y-139211615D01*
X158938494Y-139132263D01*
X158828180Y-139073298D01*
X158755620Y-139051287D01*
X158887475Y-138919432D01*
X159049990Y-138676211D01*
X159161932Y-138405958D01*
X159219000Y-138119060D01*
X159219000Y-137826540D01*
X159161932Y-137539642D01*
X159049990Y-137269389D01*
X158887475Y-137026168D01*
X158680632Y-136819325D01*
X158506240Y-136702800D01*
X158680632Y-136586275D01*
X158887475Y-136379432D01*
X159049990Y-136136211D01*
X159161932Y-135865958D01*
X159219000Y-135579060D01*
X159219000Y-135286540D01*
X159161932Y-134999642D01*
X159049990Y-134729389D01*
X158887475Y-134486168D01*
X158680632Y-134279325D01*
X158506240Y-134162800D01*
X158680632Y-134046275D01*
X158887475Y-133839432D01*
X159049990Y-133596211D01*
X159161932Y-133325958D01*
X159219000Y-133039060D01*
X159219000Y-132746540D01*
X159161932Y-132459642D01*
X159049990Y-132189389D01*
X158887475Y-131946168D01*
X158680632Y-131739325D01*
X158437411Y-131576810D01*
X158167158Y-131464868D01*
X157880260Y-131407800D01*
X157587740Y-131407800D01*
X157300842Y-131464868D01*
X157030589Y-131576810D01*
X156787368Y-131739325D01*
X156580525Y-131946168D01*
X156418010Y-132189389D01*
X156306068Y-132459642D01*
X156249000Y-132746540D01*
X156249000Y-133039060D01*
X156306068Y-133325958D01*
X156418010Y-133596211D01*
X156580525Y-133839432D01*
X156787368Y-134046275D01*
X156961760Y-134162800D01*
X156787368Y-134279325D01*
X156580525Y-134486168D01*
X156457875Y-134669727D01*
X156426676Y-134672800D01*
X156426667Y-134672800D01*
X156315014Y-134683797D01*
X156171753Y-134727254D01*
X156039724Y-134797826D01*
X155923999Y-134892799D01*
X155900196Y-134921803D01*
X155749803Y-135072196D01*
X155720799Y-135095999D01*
X155682852Y-135142238D01*
X155666807Y-135161789D01*
X155650762Y-135142238D01*
X155516187Y-135031795D01*
X155362651Y-134949728D01*
X155196055Y-134899192D01*
X155022801Y-134882128D01*
X154497799Y-134882128D01*
X154429460Y-134888859D01*
X154224794Y-134684193D01*
X154200991Y-134655189D01*
X154085266Y-134560216D01*
X153953237Y-134489644D01*
X153809976Y-134446187D01*
X153698323Y-134435190D01*
X153698312Y-134435190D01*
X153660990Y-134431514D01*
X153623668Y-134435190D01*
X149850379Y-134435190D01*
X149872403Y-134362586D01*
X149883400Y-134250933D01*
X149883400Y-134250924D01*
X149887076Y-134213601D01*
X149886771Y-134210505D01*
X149913251Y-134202472D01*
X150066787Y-134120405D01*
X150201362Y-134009962D01*
X150311805Y-133875387D01*
X150393872Y-133721851D01*
X150444408Y-133555255D01*
X150461472Y-133382001D01*
X150461472Y-132856999D01*
X150444408Y-132683745D01*
X150393872Y-132517149D01*
X150311805Y-132363613D01*
X150245124Y-132282363D01*
X150274585Y-132258185D01*
X150353937Y-132161494D01*
X150412902Y-132051180D01*
X150449212Y-131931482D01*
X150461472Y-131807000D01*
X150458400Y-131580250D01*
X150299650Y-131421500D01*
X149250400Y-131421500D01*
X149250400Y-131441500D01*
X148996400Y-131441500D01*
X148996400Y-131421500D01*
X147947150Y-131421500D01*
X147788400Y-131580250D01*
X147785328Y-131807000D01*
X147797588Y-131931482D01*
X147833898Y-132051180D01*
X147892863Y-132161494D01*
X147972215Y-132258185D01*
X148001676Y-132282363D01*
X147934995Y-132363613D01*
X147852928Y-132517149D01*
X147802392Y-132683745D01*
X147785328Y-132856999D01*
X147785328Y-133382001D01*
X147802392Y-133555255D01*
X147848605Y-133707600D01*
X147484322Y-133707600D01*
X147446999Y-133703924D01*
X147409676Y-133707600D01*
X147409667Y-133707600D01*
X147298014Y-133718597D01*
X147154753Y-133762054D01*
X147022724Y-133832626D01*
X146932456Y-133906707D01*
X146913729Y-133849873D01*
X146852159Y-133740992D01*
X146770530Y-133646215D01*
X146735487Y-133618823D01*
X146815559Y-133538751D01*
X146699633Y-133422825D01*
X146954578Y-133338236D01*
X147086225Y-133064391D01*
X147161916Y-132770124D01*
X147178745Y-132466744D01*
X147136065Y-132165911D01*
X147035514Y-131879185D01*
X146954578Y-131727764D01*
X146699631Y-131643174D01*
X145809805Y-132533000D01*
X145823948Y-132547143D01*
X145644343Y-132726748D01*
X145630200Y-132712605D01*
X145616058Y-132726748D01*
X145436453Y-132547143D01*
X145450595Y-132533000D01*
X144560769Y-131643174D01*
X144305822Y-131727764D01*
X144174175Y-132001609D01*
X144098484Y-132295876D01*
X144095593Y-132348000D01*
X144035648Y-132348000D01*
X143850178Y-132384892D01*
X143675469Y-132457259D01*
X143518236Y-132562319D01*
X143384519Y-132696036D01*
X143279459Y-132853269D01*
X143207092Y-133027978D01*
X143170200Y-133213448D01*
X143170200Y-133402552D01*
X143207092Y-133588022D01*
X143279459Y-133762731D01*
X143384519Y-133919964D01*
X143435055Y-133970500D01*
X143384519Y-134021036D01*
X143279459Y-134178269D01*
X143207092Y-134352978D01*
X143170200Y-134538448D01*
X143170200Y-134727552D01*
X143207092Y-134913022D01*
X143256789Y-135033000D01*
X143207092Y-135152978D01*
X143170200Y-135338448D01*
X143170200Y-135527552D01*
X143207092Y-135713022D01*
X143256789Y-135833000D01*
X143207092Y-135952978D01*
X143170200Y-136138448D01*
X143170200Y-136327552D01*
X143207092Y-136513022D01*
X143279459Y-136687731D01*
X143384519Y-136844964D01*
X143518236Y-136978681D01*
X143599530Y-137033000D01*
X143539666Y-137073000D01*
X143077522Y-137073000D01*
X143040199Y-137069324D01*
X143002876Y-137073000D01*
X143002867Y-137073000D01*
X142891214Y-137083997D01*
X142747953Y-137127454D01*
X142615924Y-137198026D01*
X142500199Y-137292999D01*
X142476396Y-137322003D01*
X142186203Y-137612196D01*
X142157199Y-137635999D01*
X142117794Y-137684015D01*
X142062226Y-137751724D01*
X142018783Y-137833000D01*
X141991654Y-137883754D01*
X141948197Y-138027015D01*
X141937200Y-138138668D01*
X141937200Y-138138678D01*
X141933524Y-138176000D01*
X138660000Y-138176000D01*
X138660000Y-133698719D01*
X139044086Y-133698719D01*
X139144981Y-133967466D01*
X139441840Y-134112600D01*
X139761311Y-134197032D01*
X140091114Y-134217516D01*
X140418576Y-134173264D01*
X140731113Y-134065979D01*
X140915419Y-133967466D01*
X141016314Y-133698719D01*
X140030200Y-132712605D01*
X139044086Y-133698719D01*
X138660000Y-133698719D01*
X138660000Y-133442346D01*
X138864481Y-133519114D01*
X139850595Y-132533000D01*
X140209805Y-132533000D01*
X141195919Y-133519114D01*
X141464666Y-133418219D01*
X141609800Y-133121360D01*
X141694232Y-132801889D01*
X141714716Y-132472086D01*
X141670464Y-132144624D01*
X141563179Y-131832087D01*
X141464666Y-131647781D01*
X141195919Y-131546886D01*
X140209805Y-132533000D01*
X139850595Y-132533000D01*
X138864481Y-131546886D01*
X138660000Y-131623654D01*
X138660000Y-131367281D01*
X139044086Y-131367281D01*
X140030200Y-132353395D01*
X140920026Y-131463569D01*
X144740374Y-131463569D01*
X145630200Y-132353395D01*
X146520026Y-131463569D01*
X146435436Y-131208622D01*
X146161591Y-131076975D01*
X145867324Y-131001284D01*
X145563944Y-130984455D01*
X145263111Y-131027135D01*
X144976385Y-131127686D01*
X144824964Y-131208622D01*
X144740374Y-131463569D01*
X140920026Y-131463569D01*
X141016314Y-131367281D01*
X140915419Y-131098534D01*
X140618560Y-130953400D01*
X140299089Y-130868968D01*
X139969286Y-130848484D01*
X139641824Y-130892736D01*
X139329287Y-131000021D01*
X139144981Y-131098534D01*
X139044086Y-131367281D01*
X138660000Y-131367281D01*
X138660000Y-130782000D01*
X147785328Y-130782000D01*
X147788400Y-131008750D01*
X147947150Y-131167500D01*
X148996400Y-131167500D01*
X148996400Y-130305750D01*
X149250400Y-130305750D01*
X149250400Y-131167500D01*
X150299650Y-131167500D01*
X150458400Y-131008750D01*
X150461472Y-130782000D01*
X150449212Y-130657518D01*
X150412902Y-130537820D01*
X150353937Y-130427506D01*
X150274585Y-130330815D01*
X150177894Y-130251463D01*
X150067580Y-130192498D01*
X149947882Y-130156188D01*
X149823400Y-130143928D01*
X149409150Y-130147000D01*
X149250400Y-130305750D01*
X148996400Y-130305750D01*
X148837650Y-130147000D01*
X148423400Y-130143928D01*
X148298918Y-130156188D01*
X148179220Y-130192498D01*
X148068906Y-130251463D01*
X147972215Y-130330815D01*
X147892863Y-130427506D01*
X147833898Y-130537820D01*
X147797588Y-130657518D01*
X147785328Y-130782000D01*
X138660000Y-130782000D01*
X138660000Y-128787955D01*
X164388998Y-128778049D01*
X164414002Y-144805937D01*
%TA.AperFunction,Conductor*%
D29*
G36*
X164414002Y-144805937D02*
G01*
X138660000Y-144914906D01*
X138660000Y-142698719D01*
X139044086Y-142698719D01*
X139144981Y-142967466D01*
X139441840Y-143112600D01*
X139761311Y-143197032D01*
X140091114Y-143217516D01*
X140418576Y-143173264D01*
X140731113Y-143065979D01*
X140915419Y-142967466D01*
X141016314Y-142698719D01*
X140030200Y-141712605D01*
X139044086Y-142698719D01*
X138660000Y-142698719D01*
X138660000Y-142442346D01*
X138864481Y-142519114D01*
X139850595Y-141533000D01*
X140209805Y-141533000D01*
X141195919Y-142519114D01*
X141464666Y-142418219D01*
X141609800Y-142121360D01*
X141694232Y-141801889D01*
X141714716Y-141472086D01*
X141670464Y-141144624D01*
X141563179Y-140832087D01*
X141464666Y-140647781D01*
X141195919Y-140546886D01*
X140209805Y-141533000D01*
X139850595Y-141533000D01*
X138864481Y-140546886D01*
X138660000Y-140623654D01*
X138660000Y-140367281D01*
X139044086Y-140367281D01*
X140030200Y-141353395D01*
X141016314Y-140367281D01*
X140915419Y-140098534D01*
X140618560Y-139953400D01*
X140299089Y-139868968D01*
X139969286Y-139848484D01*
X139641824Y-139892736D01*
X139329287Y-140000021D01*
X139144981Y-140098534D01*
X139044086Y-140367281D01*
X138660000Y-140367281D01*
X138660000Y-138176000D01*
X141933524Y-138176000D01*
X141937200Y-138213323D01*
X141937201Y-142634468D01*
X141933524Y-142671800D01*
X141937201Y-142709133D01*
X141948198Y-142820786D01*
X141953042Y-142836754D01*
X141991654Y-142964046D01*
X142062226Y-143096076D01*
X142133401Y-143182802D01*
X142157200Y-143211801D01*
X142186198Y-143235599D01*
X142590600Y-143640002D01*
X142614399Y-143669001D01*
X142730124Y-143763974D01*
X142862153Y-143834546D01*
X143005414Y-143878003D01*
X143117067Y-143889000D01*
X143117076Y-143889000D01*
X143154399Y-143892676D01*
X143191722Y-143889000D01*
X152593178Y-143889000D01*
X152630500Y-143892676D01*
X152644655Y-143891282D01*
X152728145Y-143916608D01*
X152901399Y-143933672D01*
X153426401Y-143933672D01*
X153599655Y-143916608D01*
X153766251Y-143866072D01*
X153919787Y-143784005D01*
X154001037Y-143717324D01*
X154025215Y-143746785D01*
X154121906Y-143826137D01*
X154232220Y-143885102D01*
X154351918Y-143921412D01*
X154476400Y-143933672D01*
X154703150Y-143930600D01*
X154861900Y-143771850D01*
X154861900Y-142722600D01*
X155115900Y-142722600D01*
X155115900Y-143771850D01*
X155274650Y-143930600D01*
X155501400Y-143933672D01*
X155625882Y-143921412D01*
X155745580Y-143885102D01*
X155855894Y-143826137D01*
X155952585Y-143746785D01*
X156031937Y-143650094D01*
X156090902Y-143539780D01*
X156127212Y-143420082D01*
X156139472Y-143295600D01*
X156136400Y-142881350D01*
X155977650Y-142722600D01*
X155115900Y-142722600D01*
X154861900Y-142722600D01*
X154841900Y-142722600D01*
X154841900Y-142468600D01*
X154861900Y-142468600D01*
X154861900Y-141419350D01*
X155115900Y-141419350D01*
X155115900Y-142468600D01*
X155977650Y-142468600D01*
X156136400Y-142309850D01*
X156139472Y-141895600D01*
X156127212Y-141771118D01*
X156090902Y-141651420D01*
X156031937Y-141541106D01*
X155952585Y-141444415D01*
X155855894Y-141365063D01*
X155851661Y-141362800D01*
X156245928Y-141362800D01*
X156258188Y-141487282D01*
X156294498Y-141606980D01*
X156353463Y-141717294D01*
X156432815Y-141813985D01*
X156529506Y-141893337D01*
X156639820Y-141952302D01*
X156759518Y-141988612D01*
X156884000Y-142000872D01*
X157448250Y-141997800D01*
X157607000Y-141839050D01*
X157607000Y-140639800D01*
X157861000Y-140639800D01*
X157861000Y-141839050D01*
X158019750Y-141997800D01*
X158584000Y-142000872D01*
X158708482Y-141988612D01*
X158828180Y-141952302D01*
X158938494Y-141893337D01*
X159035185Y-141813985D01*
X159114537Y-141717294D01*
X159173502Y-141606980D01*
X159209812Y-141487282D01*
X159222072Y-141362800D01*
X159219000Y-140798550D01*
X159060250Y-140639800D01*
X157861000Y-140639800D01*
X157607000Y-140639800D01*
X156407750Y-140639800D01*
X156249000Y-140798550D01*
X156245928Y-141362800D01*
X155851661Y-141362800D01*
X155745580Y-141306098D01*
X155625882Y-141269788D01*
X155501400Y-141257528D01*
X155274650Y-141260600D01*
X155115900Y-141419350D01*
X154861900Y-141419350D01*
X154703150Y-141260600D01*
X154476400Y-141257528D01*
X154351918Y-141269788D01*
X154232220Y-141306098D01*
X154121906Y-141365063D01*
X154025215Y-141444415D01*
X154001037Y-141473876D01*
X153919787Y-141407195D01*
X153766251Y-141325128D01*
X153599655Y-141274592D01*
X153426401Y-141257528D01*
X152901399Y-141257528D01*
X152728145Y-141274592D01*
X152561549Y-141325128D01*
X152408013Y-141407195D01*
X152273438Y-141517638D01*
X152162995Y-141652213D01*
X152080928Y-141805749D01*
X152030392Y-141972345D01*
X152013328Y-142145599D01*
X152013328Y-142369000D01*
X146861858Y-142369000D01*
X146954578Y-142338236D01*
X147086225Y-142064391D01*
X147161916Y-141770124D01*
X147178745Y-141466744D01*
X147136065Y-141165911D01*
X147035514Y-140879185D01*
X146954578Y-140727764D01*
X146699633Y-140643175D01*
X146815559Y-140527249D01*
X146735487Y-140447177D01*
X146770530Y-140419785D01*
X146852159Y-140325008D01*
X146885984Y-140265192D01*
X146907000Y-140290801D01*
X146935998Y-140314599D01*
X147115596Y-140494197D01*
X147139399Y-140523201D01*
X147255124Y-140618174D01*
X147387153Y-140688746D01*
X147530414Y-140732203D01*
X147642067Y-140743200D01*
X147642076Y-140743200D01*
X147679399Y-140746876D01*
X147716722Y-140743200D01*
X147972328Y-140743200D01*
X147972328Y-140763200D01*
X147984588Y-140887682D01*
X148020898Y-141007380D01*
X148079863Y-141117694D01*
X148159215Y-141214385D01*
X148255906Y-141293737D01*
X148366220Y-141352702D01*
X148485918Y-141389012D01*
X148610400Y-141401272D01*
X149260400Y-141401272D01*
X149384882Y-141389012D01*
X149410400Y-141381271D01*
X149435918Y-141389012D01*
X149560400Y-141401272D01*
X149599650Y-141398200D01*
X149758400Y-141239450D01*
X149758400Y-141157341D01*
X149790937Y-141117694D01*
X149849902Y-141007380D01*
X149885400Y-140890359D01*
X149920898Y-141007380D01*
X149979863Y-141117694D01*
X150012400Y-141157341D01*
X150012400Y-141239450D01*
X150171150Y-141398200D01*
X150210400Y-141401272D01*
X150334882Y-141389012D01*
X150360400Y-141381271D01*
X150385918Y-141389012D01*
X150510400Y-141401272D01*
X151160400Y-141401272D01*
X151284882Y-141389012D01*
X151404580Y-141352702D01*
X151514894Y-141293737D01*
X151611585Y-141214385D01*
X151690937Y-141117694D01*
X151749902Y-141007380D01*
X151786212Y-140887682D01*
X151798472Y-140763200D01*
X151798472Y-139514577D01*
X151801528Y-139524651D01*
X151883595Y-139678187D01*
X151994038Y-139812762D01*
X152128613Y-139923205D01*
X152282149Y-140005272D01*
X152448745Y-140055808D01*
X152621999Y-140072872D01*
X153147001Y-140072872D01*
X153320255Y-140055808D01*
X153486851Y-140005272D01*
X153640387Y-139923205D01*
X153774962Y-139812762D01*
X153797000Y-139785909D01*
X153819038Y-139812762D01*
X153953613Y-139923205D01*
X154107149Y-140005272D01*
X154273745Y-140055808D01*
X154446999Y-140072872D01*
X154972001Y-140072872D01*
X155145255Y-140055808D01*
X155311851Y-140005272D01*
X155465387Y-139923205D01*
X155599962Y-139812762D01*
X155710405Y-139678187D01*
X155792472Y-139524651D01*
X155801527Y-139494800D01*
X156045678Y-139494800D01*
X156083000Y-139498476D01*
X156120322Y-139494800D01*
X156120333Y-139494800D01*
X156231986Y-139483803D01*
X156279056Y-139469525D01*
X156258188Y-139538318D01*
X156245928Y-139662800D01*
X156249000Y-140227050D01*
X156407750Y-140385800D01*
X157607000Y-140385800D01*
X157607000Y-140365800D01*
X157861000Y-140365800D01*
X157861000Y-140385800D01*
X159060250Y-140385800D01*
X159219000Y-140227050D01*
X159222072Y-139662800D01*
X159209812Y-139538318D01*
X159173502Y-139418620D01*
X159114537Y-139308306D01*
X159035185Y-139211615D01*
X158938494Y-139132263D01*
X158828180Y-139073298D01*
X158755620Y-139051287D01*
X158887475Y-138919432D01*
X159049990Y-138676211D01*
X159161932Y-138405958D01*
X159219000Y-138119060D01*
X159219000Y-137826540D01*
X159161932Y-137539642D01*
X159049990Y-137269389D01*
X158887475Y-137026168D01*
X158680632Y-136819325D01*
X158506240Y-136702800D01*
X158680632Y-136586275D01*
X158887475Y-136379432D01*
X159049990Y-136136211D01*
X159161932Y-135865958D01*
X159219000Y-135579060D01*
X159219000Y-135286540D01*
X159161932Y-134999642D01*
X159049990Y-134729389D01*
X158887475Y-134486168D01*
X158680632Y-134279325D01*
X158506240Y-134162800D01*
X158680632Y-134046275D01*
X158887475Y-133839432D01*
X159049990Y-133596211D01*
X159161932Y-133325958D01*
X159219000Y-133039060D01*
X159219000Y-132746540D01*
X159161932Y-132459642D01*
X159049990Y-132189389D01*
X158887475Y-131946168D01*
X158680632Y-131739325D01*
X158437411Y-131576810D01*
X158167158Y-131464868D01*
X157880260Y-131407800D01*
X157587740Y-131407800D01*
X157300842Y-131464868D01*
X157030589Y-131576810D01*
X156787368Y-131739325D01*
X156580525Y-131946168D01*
X156418010Y-132189389D01*
X156306068Y-132459642D01*
X156249000Y-132746540D01*
X156249000Y-133039060D01*
X156306068Y-133325958D01*
X156418010Y-133596211D01*
X156580525Y-133839432D01*
X156787368Y-134046275D01*
X156961760Y-134162800D01*
X156787368Y-134279325D01*
X156580525Y-134486168D01*
X156457875Y-134669727D01*
X156426676Y-134672800D01*
X156426667Y-134672800D01*
X156315014Y-134683797D01*
X156171753Y-134727254D01*
X156039724Y-134797826D01*
X155923999Y-134892799D01*
X155900196Y-134921803D01*
X155749803Y-135072196D01*
X155720799Y-135095999D01*
X155682852Y-135142238D01*
X155666807Y-135161789D01*
X155650762Y-135142238D01*
X155516187Y-135031795D01*
X155362651Y-134949728D01*
X155196055Y-134899192D01*
X155022801Y-134882128D01*
X154497799Y-134882128D01*
X154429460Y-134888859D01*
X154224794Y-134684193D01*
X154200991Y-134655189D01*
X154085266Y-134560216D01*
X153953237Y-134489644D01*
X153809976Y-134446187D01*
X153698323Y-134435190D01*
X153698312Y-134435190D01*
X153660990Y-134431514D01*
X153623668Y-134435190D01*
X149850379Y-134435190D01*
X149872403Y-134362586D01*
X149883400Y-134250933D01*
X149883400Y-134250924D01*
X149887076Y-134213601D01*
X149886771Y-134210505D01*
X149913251Y-134202472D01*
X150066787Y-134120405D01*
X150201362Y-134009962D01*
X150311805Y-133875387D01*
X150393872Y-133721851D01*
X150444408Y-133555255D01*
X150461472Y-133382001D01*
X150461472Y-132856999D01*
X150444408Y-132683745D01*
X150393872Y-132517149D01*
X150311805Y-132363613D01*
X150245124Y-132282363D01*
X150274585Y-132258185D01*
X150353937Y-132161494D01*
X150412902Y-132051180D01*
X150449212Y-131931482D01*
X150461472Y-131807000D01*
X150458400Y-131580250D01*
X150299650Y-131421500D01*
X149250400Y-131421500D01*
X149250400Y-131441500D01*
X148996400Y-131441500D01*
X148996400Y-131421500D01*
X147947150Y-131421500D01*
X147788400Y-131580250D01*
X147785328Y-131807000D01*
X147797588Y-131931482D01*
X147833898Y-132051180D01*
X147892863Y-132161494D01*
X147972215Y-132258185D01*
X148001676Y-132282363D01*
X147934995Y-132363613D01*
X147852928Y-132517149D01*
X147802392Y-132683745D01*
X147785328Y-132856999D01*
X147785328Y-133382001D01*
X147802392Y-133555255D01*
X147848605Y-133707600D01*
X147484322Y-133707600D01*
X147446999Y-133703924D01*
X147409676Y-133707600D01*
X147409667Y-133707600D01*
X147298014Y-133718597D01*
X147154753Y-133762054D01*
X147022724Y-133832626D01*
X146932456Y-133906707D01*
X146913729Y-133849873D01*
X146852159Y-133740992D01*
X146770530Y-133646215D01*
X146735487Y-133618823D01*
X146815559Y-133538751D01*
X146699633Y-133422825D01*
X146954578Y-133338236D01*
X147086225Y-133064391D01*
X147161916Y-132770124D01*
X147178745Y-132466744D01*
X147136065Y-132165911D01*
X147035514Y-131879185D01*
X146954578Y-131727764D01*
X146699631Y-131643174D01*
X145809805Y-132533000D01*
X145823948Y-132547143D01*
X145644343Y-132726748D01*
X145630200Y-132712605D01*
X145616058Y-132726748D01*
X145436453Y-132547143D01*
X145450595Y-132533000D01*
X144560769Y-131643174D01*
X144305822Y-131727764D01*
X144174175Y-132001609D01*
X144098484Y-132295876D01*
X144095593Y-132348000D01*
X144035648Y-132348000D01*
X143850178Y-132384892D01*
X143675469Y-132457259D01*
X143518236Y-132562319D01*
X143384519Y-132696036D01*
X143279459Y-132853269D01*
X143207092Y-133027978D01*
X143170200Y-133213448D01*
X143170200Y-133402552D01*
X143207092Y-133588022D01*
X143279459Y-133762731D01*
X143384519Y-133919964D01*
X143435055Y-133970500D01*
X143384519Y-134021036D01*
X143279459Y-134178269D01*
X143207092Y-134352978D01*
X143170200Y-134538448D01*
X143170200Y-134727552D01*
X143207092Y-134913022D01*
X143256789Y-135033000D01*
X143207092Y-135152978D01*
X143170200Y-135338448D01*
X143170200Y-135527552D01*
X143207092Y-135713022D01*
X143256789Y-135833000D01*
X143207092Y-135952978D01*
X143170200Y-136138448D01*
X143170200Y-136327552D01*
X143207092Y-136513022D01*
X143279459Y-136687731D01*
X143384519Y-136844964D01*
X143518236Y-136978681D01*
X143599530Y-137033000D01*
X143539666Y-137073000D01*
X143077522Y-137073000D01*
X143040199Y-137069324D01*
X143002876Y-137073000D01*
X143002867Y-137073000D01*
X142891214Y-137083997D01*
X142747953Y-137127454D01*
X142615924Y-137198026D01*
X142500199Y-137292999D01*
X142476396Y-137322003D01*
X142186203Y-137612196D01*
X142157199Y-137635999D01*
X142117794Y-137684015D01*
X142062226Y-137751724D01*
X142018783Y-137833000D01*
X141991654Y-137883754D01*
X141948197Y-138027015D01*
X141937200Y-138138668D01*
X141937200Y-138138678D01*
X141933524Y-138176000D01*
X138660000Y-138176000D01*
X138660000Y-133698719D01*
X139044086Y-133698719D01*
X139144981Y-133967466D01*
X139441840Y-134112600D01*
X139761311Y-134197032D01*
X140091114Y-134217516D01*
X140418576Y-134173264D01*
X140731113Y-134065979D01*
X140915419Y-133967466D01*
X141016314Y-133698719D01*
X140030200Y-132712605D01*
X139044086Y-133698719D01*
X138660000Y-133698719D01*
X138660000Y-133442346D01*
X138864481Y-133519114D01*
X139850595Y-132533000D01*
X140209805Y-132533000D01*
X141195919Y-133519114D01*
X141464666Y-133418219D01*
X141609800Y-133121360D01*
X141694232Y-132801889D01*
X141714716Y-132472086D01*
X141670464Y-132144624D01*
X141563179Y-131832087D01*
X141464666Y-131647781D01*
X141195919Y-131546886D01*
X140209805Y-132533000D01*
X139850595Y-132533000D01*
X138864481Y-131546886D01*
X138660000Y-131623654D01*
X138660000Y-131367281D01*
X139044086Y-131367281D01*
X140030200Y-132353395D01*
X140920026Y-131463569D01*
X144740374Y-131463569D01*
X145630200Y-132353395D01*
X146520026Y-131463569D01*
X146435436Y-131208622D01*
X146161591Y-131076975D01*
X145867324Y-131001284D01*
X145563944Y-130984455D01*
X145263111Y-131027135D01*
X144976385Y-131127686D01*
X144824964Y-131208622D01*
X144740374Y-131463569D01*
X140920026Y-131463569D01*
X141016314Y-131367281D01*
X140915419Y-131098534D01*
X140618560Y-130953400D01*
X140299089Y-130868968D01*
X139969286Y-130848484D01*
X139641824Y-130892736D01*
X139329287Y-131000021D01*
X139144981Y-131098534D01*
X139044086Y-131367281D01*
X138660000Y-131367281D01*
X138660000Y-130782000D01*
X147785328Y-130782000D01*
X147788400Y-131008750D01*
X147947150Y-131167500D01*
X148996400Y-131167500D01*
X148996400Y-130305750D01*
X149250400Y-130305750D01*
X149250400Y-131167500D01*
X150299650Y-131167500D01*
X150458400Y-131008750D01*
X150461472Y-130782000D01*
X150449212Y-130657518D01*
X150412902Y-130537820D01*
X150353937Y-130427506D01*
X150274585Y-130330815D01*
X150177894Y-130251463D01*
X150067580Y-130192498D01*
X149947882Y-130156188D01*
X149823400Y-130143928D01*
X149409150Y-130147000D01*
X149250400Y-130305750D01*
X148996400Y-130305750D01*
X148837650Y-130147000D01*
X148423400Y-130143928D01*
X148298918Y-130156188D01*
X148179220Y-130192498D01*
X148068906Y-130251463D01*
X147972215Y-130330815D01*
X147892863Y-130427506D01*
X147833898Y-130537820D01*
X147797588Y-130657518D01*
X147785328Y-130782000D01*
X138660000Y-130782000D01*
X138660000Y-128787955D01*
X164388998Y-128778049D01*
X164414002Y-144805937D01*
G37*
%TD.AperFunction*%
D28*
X145823948Y-141518858D02*
X145809805Y-141533000D01*
X145823948Y-141547143D01*
X145644343Y-141726748D01*
X145630200Y-141712605D01*
X145616058Y-141726748D01*
X145436453Y-141547143D01*
X145450595Y-141533000D01*
X145436453Y-141518858D01*
X145616058Y-141339253D01*
X145630200Y-141353395D01*
X145644343Y-141339253D01*
X145823948Y-141518858D01*
%TA.AperFunction,Conductor*%
D29*
G36*
X145823948Y-141518858D02*
G01*
X145809805Y-141533000D01*
X145823948Y-141547143D01*
X145644343Y-141726748D01*
X145630200Y-141712605D01*
X145616058Y-141726748D01*
X145436453Y-141547143D01*
X145450595Y-141533000D01*
X145436453Y-141518858D01*
X145616058Y-141339253D01*
X145630200Y-141353395D01*
X145644343Y-141339253D01*
X145823948Y-141518858D01*
G37*
%TD.AperFunction*%
D28*
X144993478Y-133938388D02*
X145011550Y-133956460D01*
X145007525Y-133968674D01*
X145001716Y-134019374D01*
X144925618Y-134095472D01*
X144875881Y-134021036D01*
X144825345Y-133970500D01*
X144875881Y-133919964D01*
X144895154Y-133891121D01*
X144993478Y-133938388D01*
%TA.AperFunction,Conductor*%
D29*
G36*
X144993478Y-133938388D02*
G01*
X145011550Y-133956460D01*
X145007525Y-133968674D01*
X145001716Y-134019374D01*
X144925618Y-134095472D01*
X144875881Y-134021036D01*
X144825345Y-133970500D01*
X144875881Y-133919964D01*
X144895154Y-133891121D01*
X144993478Y-133938388D01*
G37*
%TD.AperFunction*%
%TD*%
M02*
